# Blender v2.79 (sub 0) OBJ File: ''
# www.blender.org
mtllib Step.mtl
o Step.003
v -0.100000 0.000035 -0.003991
v -0.100000 -0.099964 -4.003991
v -0.100000 -0.099965 -0.003991
v -0.100000 0.000035 -4.003991
v 0.500000 -0.099965 -0.003991
v 0.500000 -1.999965 -4.003992
v 0.500000 -1.999965 -0.003992
v 0.500000 -0.099964 -4.003991
v 0.600000 -1.899965 -0.003992
v 0.600000 -1.899965 -4.003992
v 0.600000 -0.099965 -0.003991
v 0.600000 -0.099964 -4.003991
v 0.700000 -1.999965 -0.003992
v 0.700000 -1.999965 -4.003992
v 0.700000 -1.899965 -0.003992
v 0.700000 -1.899965 -4.003992
v 0.700000 -0.099965 -0.003991
v 0.700000 -0.099964 -4.003991
v 0.700000 0.000035 -0.003991
v 0.700000 0.000035 -4.003991
v 0.000000 -0.099965 -0.003991
v -0.100000 0.000035 -0.003991
v -0.100000 -0.099965 -0.003991
v 0.000000 0.000035 -0.003991
v 0.500000 -0.099965 -0.003991
v 0.500000 0.000035 -0.003991
v 0.600000 -1.899965 -0.003992
v 0.500000 -1.999965 -0.003992
v 0.600000 -0.099965 -0.003991
v 0.600000 0.000035 -0.003991
v 0.700000 -1.999965 -0.003992
v 0.700000 -1.899965 -0.003992
v 0.700000 -0.099965 -0.003991
v 0.700000 0.000035 -0.003991
v -0.100000 -0.099964 -4.003991
v -0.100000 0.000035 -4.003991
v 0.000000 -0.099964 -4.003991
v 0.000000 0.000035 -4.003991
v 0.500000 -0.099964 -4.003991
v 0.500000 0.000035 -4.003991
v 0.500000 -1.999965 -4.003992
v 0.600000 -1.899965 -4.003992
v 0.600000 -0.099964 -4.003991
v 0.600000 0.000035 -4.003991
v 0.700000 -1.999965 -4.003992
v 0.700000 -1.899965 -4.003992
v 0.700000 -0.099964 -4.003991
v 0.700000 0.000035 -4.003991
v 0.500000 -1.999965 -4.003992
v 0.700000 -1.999965 -0.003992
v 0.500000 -1.999965 -0.003992
v 0.700000 -1.999965 -4.003992
v -0.100000 -0.099964 -4.003991
v 0.000000 -0.099965 -0.003991
v -0.100000 -0.099965 -0.003991
v 0.000000 -0.099964 -4.003991
v 0.500000 -0.099965 -0.003991
v 0.500000 -0.099964 -4.003991
v 0.600000 -0.099964 -4.003991
v 0.700000 -0.099965 -0.003991
v 0.600000 -0.099965 -0.003991
v 0.700000 -0.099964 -4.003991
v 0.600000 -1.899965 -0.003992
v 0.700000 -1.899965 -0.003992
v 0.600000 -1.899965 -4.003992
v 0.700000 -1.899965 -4.003992
v -0.100000 0.000035 -0.003991
v 0.000000 0.000035 -0.003991
v -0.100000 0.000035 -4.003991
v 0.500000 0.000035 -0.003991
v 0.000000 0.000035 -4.003991
v 0.600000 0.000035 -0.003991
v 0.500000 0.000035 -4.003991
v 0.700000 0.000035 -0.003991
v 0.600000 0.000035 -4.003991
v 0.700000 0.000035 -4.003991
vt 0.916016 0.500000
vt 0.916016 0.500000
vt 0.916016 0.500000
vt 0.916016 0.500000
vt 0.916016 0.500000
vt 0.916016 0.500000
vt 0.916016 0.500000
vt 0.916016 0.500000
vt 0.916016 0.500000
vt 0.916016 0.500000
vt 0.916016 0.500000
vt 0.916016 0.500000
vt 0.916016 0.500000
vt 0.916016 0.500000
vt 0.916016 0.500000
vt 0.916016 0.500000
vt 0.994141 0.500000
vt 0.994141 0.500000
vt 0.994141 0.500000
vt 0.994141 0.500000
vt 0.916016 0.500000
vt 0.916016 0.500000
vt 0.916016 0.500000
vt 0.916016 0.500000
vt 0.908203 0.500000
vt 0.908203 0.500000
vt 0.908203 0.500000
vt 0.908203 0.500000
vt 0.916016 0.500000
vt 0.916016 0.500000
vt 0.916016 0.500000
vt 0.912109 0.500000
vt 0.912109 0.500000
vt 0.912109 0.500000
vt 0.916016 0.500000
vt 0.912109 0.500000
vt 0.916016 0.500000
vt 0.916016 0.500000
vt 0.994141 0.500000
vt 0.994141 0.500000
vt 0.994141 0.500000
vt 0.994141 0.500000
vt 0.916016 0.500000
vt 0.916016 0.500000
vt 0.916016 0.500000
vt 0.916016 0.500000
vt 0.908203 0.500000
vt 0.908203 0.500000
vt 0.908203 0.500000
vt 0.908203 0.500000
vt 0.916016 0.500000
vt 0.916016 0.500000
vt 0.916016 0.500000
vt 0.912109 0.500000
vt 0.912109 0.500000
vt 0.912109 0.500000
vt 0.916016 0.500000
vt 0.912109 0.500000
vt 0.916016 0.500000
vt 0.916016 0.500000
vt 0.994141 0.500000
vt 0.994141 0.500000
vt 0.994141 0.500000
vt 0.994141 0.500000
vt 0.916016 0.500000
vt 0.916016 0.500000
vt 0.916016 0.500000
vt 0.916016 0.500000
vt 0.916016 0.500000
vt 0.916016 0.500000
vt 0.916016 0.500000
vt 0.908203 0.500000
vt 0.908203 0.500000
vt 0.908203 0.500000
vt 0.916016 0.500000
vt 0.908203 0.500000
vt 0.994141 0.500000
vt 0.994141 0.500000
vt 0.994141 0.500000
vt 0.994141 0.500000
vt 0.916016 0.500000
vt 0.916016 0.500000
vt 0.916016 0.500000
vt 0.916016 0.500000
vt 0.916016 0.500000
vt 0.916016 0.500000
vt 0.916016 0.500000
vt 0.908203 0.500000
vt 0.908203 0.500000
vt 0.908203 0.500000
vt 0.916016 0.500000
vt 0.912109 0.500000
vt 0.912109 0.500000
vt 0.912109 0.500000
vt 0.908203 0.500000
vt 0.994141 0.500000
vt 0.994141 0.500000
vt 0.994141 0.500000
vt 0.912109 0.500000
vt 0.994141 0.500000
vn -1.0000 0.0000 0.0000
vn 1.0000 0.0000 0.0000
vn 0.0000 -0.0000 1.0000
vn 0.0000 0.0000 -1.0000
vn 0.0000 -1.0000 -0.0000
vn 0.0000 1.0000 0.0000
usemtl palette.003
s 1
f 1/1/1 2/2/1 3/3/1
f 4/4/1 2/2/1 1/1/1
f 5/5/1 6/6/1 7/7/1
f 8/8/1 6/6/1 5/5/1
f 9/9/2 10/10/2 11/11/2
f 11/11/2 10/10/2 12/12/2
f 13/13/2 14/14/2 15/15/2
f 15/15/2 14/14/2 16/16/2
f 17/17/2 18/18/2 19/19/2
f 19/19/2 18/18/2 20/20/2
f 21/21/3 22/22/3 23/23/3
f 24/24/3 22/22/3 21/21/3
f 25/25/3 24/26/3 21/27/3
f 26/28/3 24/26/3 25/25/3
f 27/29/3 25/30/3 28/31/3
f 29/32/3 26/33/3 25/34/3
f 29/35/3 25/30/3 27/29/3
f 30/36/3 26/33/3 29/32/3
f 31/37/3 27/29/3 28/31/3
f 32/38/3 27/29/3 31/37/3
f 33/39/3 30/40/3 29/41/3
f 34/42/3 30/40/3 33/39/3
f 35/43/4 36/44/4 37/45/4
f 37/45/4 36/44/4 38/46/4
f 37/47/4 38/48/4 39/49/4
f 39/49/4 38/48/4 40/50/4
f 41/51/4 39/52/4 42/53/4
f 39/54/4 40/55/4 43/56/4
f 42/53/4 39/52/4 43/57/4
f 43/56/4 40/55/4 44/58/4
f 41/51/4 42/53/4 45/59/4
f 45/59/4 42/53/4 46/60/4
f 43/61/4 44/62/4 47/63/4
f 47/63/4 44/62/4 48/64/4
f 49/65/5 50/66/5 51/67/5
f 52/68/5 50/66/5 49/65/5
f 53/69/5 54/70/5 55/71/5
f 56/72/5 57/73/5 54/74/5
f 56/75/5 54/70/5 53/69/5
f 58/76/5 57/73/5 56/72/5
f 59/77/5 60/78/5 61/79/5
f 62/80/5 60/78/5 59/77/5
f 63/81/6 64/82/6 65/83/6
f 65/83/6 64/82/6 66/84/6
f 67/85/6 68/86/6 69/87/6
f 68/88/6 70/89/6 71/90/6
f 69/87/6 68/86/6 71/91/6
f 70/92/6 72/93/6 73/94/6
f 71/90/6 70/89/6 73/95/6
f 72/96/6 74/97/6 75/98/6
f 73/94/6 72/93/6 75/99/6
f 75/98/6 74/97/6 76/100/6
