# MagicaVoxel @ Ephtracy

# group
o 

# material
mtllib FullWindow.mtl
usemtl palette

# normals
vn -1 0 0
vn 1 0 0
vn 0 0 1
vn 0 0 -1
vn 0 -1 0
vn 0 1 0

# texcoords
vt 0.974609 0.5
vt 0.982422 0.5

# verts
v -3 0 0.1
v -3 0 -0.4
v -3 6 0.1
v -3 6 -0.4
v -2.8 5.8 -0.2
v -2.8 5.8 -0.3
v -2.8 5.9 -0.2
v -2.8 5.9 -0.3
v 2.3 0.2 -0.1
v 2.3 0.2 -0.2
v 2.3 5.8 -0.1
v 2.3 5.8 -0.2
v 2.4 0.1 0.1
v 2.4 0.1 -0.1
v 2.4 0.1 -0.2
v 2.4 0.1 -0.4
v 2.4 5.8 -0.2
v 2.4 5.8 -0.3
v 2.4 5.9 0.1
v 2.4 5.9 -0.1
v 2.4 5.9 -0.3
v 2.4 5.9 -0.4
v -2.9 0.1 0.1
v -2.9 0.1 -0.1
v -2.9 0.1 -0.2
v -2.9 0.1 -0.4
v -2.9 5.9 0.1
v -2.9 5.9 -0.1
v -2.9 5.9 -0.2
v -2.9 5.9 -0.4
v -2.8 0.2 -0.1
v -2.8 0.2 -0.2
v -2.8 5.8 -0.1
v -2.8 5.8 -0.2
v 2.5 0 0.1
v 2.5 0 -0.4
v 2.5 6 0.1
v 2.5 6 -0.4
v -3 0 0.1
v -3 6 0.1
v -2.9 0.1 0.1
v -2.9 5.9 0.1
v 2.4 0.1 0.1
v 2.4 5.9 0.1
v 2.5 0 0.1
v 2.5 6 0.1
v -2.9 0.1 -0.1
v -2.9 5.9 -0.1
v -2.8 0.2 -0.1
v -2.8 5.8 -0.1
v 2.3 0.2 -0.1
v 2.3 5.8 -0.1
v 2.4 0.1 -0.1
v 2.4 5.9 -0.1
v -2.9 0.1 -0.2
v -2.9 5.9 -0.2
v -2.8 0.2 -0.2
v -2.8 5.8 -0.2
v -2.8 5.9 -0.2
v 2.3 0.2 -0.2
v 2.3 5.8 -0.2
v 2.4 0.1 -0.2
v 2.4 5.8 -0.2
v -2.8 5.8 -0.3
v -2.8 5.9 -0.3
v 2.4 5.8 -0.3
v 2.4 5.9 -0.3
v -3 0 -0.4
v -3 6 -0.4
v -2.9 0.1 -0.4
v -2.9 5.9 -0.4
v 2.4 0.1 -0.4
v 2.4 5.9 -0.4
v 2.5 0 -0.4
v 2.5 6 -0.4
v -3 0 0.1
v 2.5 0 0.1
v -3 0 -0.4
v 2.5 0 -0.4
v -2.8 5.8 -0.1
v 2.3 5.8 -0.1
v -2.8 5.8 -0.2
v 2.3 5.8 -0.2
v 2.4 5.8 -0.2
v -2.8 5.8 -0.3
v 2.4 5.8 -0.3
v -2.9 5.9 0.1
v 2.4 5.9 0.1
v -2.9 5.9 -0.1
v 2.4 5.9 -0.1
v -2.9 5.9 -0.2
v -2.8 5.9 -0.2
v -2.8 5.9 -0.3
v 2.4 5.9 -0.3
v -2.9 5.9 -0.4
v 2.4 5.9 -0.4
v -2.9 0.1 0.1
v 2.4 0.1 0.1
v -2.9 0.1 -0.1
v 2.4 0.1 -0.1
v -2.9 0.1 -0.2
v 2.4 0.1 -0.2
v -2.9 0.1 -0.4
v 2.4 0.1 -0.4
v -2.8 0.2 -0.1
v 2.3 0.2 -0.1
v -2.8 0.2 -0.2
v 2.3 0.2 -0.2
v -3 6 0.1
v 2.5 6 0.1
v -3 6 -0.4
v 2.5 6 -0.4

# faces
f 3/2/1 2/2/1 1/2/1
f 4/2/1 2/2/1 3/2/1
f 7/1/1 6/1/1 5/1/1
f 8/1/1 6/1/1 7/1/1
f 11/1/1 10/1/1 9/1/1
f 12/1/1 10/1/1 11/1/1
f 17/2/1 16/2/1 15/2/1
f 18/2/1 16/2/1 17/2/1
f 19/2/1 14/2/1 13/2/1
f 20/2/1 14/2/1 19/2/1
f 21/2/1 16/2/1 18/2/1
f 22/2/1 16/2/1 21/2/1
f 23/2/2 24/2/2 27/2/2
f 27/2/2 24/2/2 28/2/2
f 25/2/2 26/2/2 29/2/2
f 29/2/2 26/2/2 30/2/2
f 31/1/2 32/1/2 33/1/2
f 33/1/2 32/1/2 34/1/2
f 35/2/2 36/2/2 37/2/2
f 37/2/2 36/2/2 38/2/2
f 41/2/3 40/2/3 39/2/3
f 42/2/3 40/2/3 41/2/3
f 43/2/3 41/2/3 39/2/3
f 44/2/3 40/2/3 42/2/3
f 45/2/3 43/2/3 39/2/3
f 45/2/3 44/2/3 43/2/3
f 46/2/3 40/2/3 44/2/3
f 46/2/3 44/2/3 45/2/3
f 49/1/3 48/1/3 47/1/3
f 50/1/3 48/1/3 49/1/3
f 51/1/3 49/1/3 47/1/3
f 52/1/3 48/1/3 50/1/3
f 53/1/3 51/1/3 47/1/3
f 53/1/3 52/1/3 51/1/3
f 54/1/3 48/1/3 52/1/3
f 54/1/3 52/1/3 53/1/3
f 55/1/4 56/1/4 57/1/4
f 57/1/4 56/1/4 58/1/4
f 58/1/4 56/1/4 59/1/4
f 55/1/4 57/1/4 60/1/4
f 55/1/4 60/1/4 62/1/4
f 60/1/4 61/1/4 62/1/4
f 62/1/4 61/1/4 63/1/4
f 64/1/4 65/1/4 66/1/4
f 66/1/4 65/1/4 67/1/4
f 68/2/4 69/2/4 70/2/4
f 70/2/4 69/2/4 71/2/4
f 68/2/4 70/2/4 72/2/4
f 71/2/4 69/2/4 73/2/4
f 68/2/4 72/2/4 74/2/4
f 72/2/4 73/2/4 74/2/4
f 73/2/4 69/2/4 75/2/4
f 74/2/4 73/2/4 75/2/4
f 78/2/5 77/2/5 76/2/5
f 79/2/5 77/2/5 78/2/5
f 82/1/5 81/1/5 80/1/5
f 83/1/5 81/1/5 82/1/5
f 85/1/5 83/1/5 82/1/5
f 85/1/5 84/1/5 83/1/5
f 86/1/5 84/1/5 85/1/5
f 89/2/5 88/2/5 87/2/5
f 90/2/5 88/2/5 89/2/5
f 93/2/5 92/2/5 91/2/5
f 95/2/5 93/2/5 91/2/5
f 95/2/5 94/2/5 93/2/5
f 96/2/5 94/2/5 95/2/5
f 97/2/6 98/2/6 99/2/6
f 99/2/6 98/2/6 100/2/6
f 101/2/6 102/2/6 103/2/6
f 103/2/6 102/2/6 104/2/6
f 105/1/6 106/1/6 107/1/6
f 107/1/6 106/1/6 108/1/6
f 109/2/6 110/2/6 111/2/6
f 111/2/6 110/2/6 112/2/6
