# Blender v2.79 (sub 0) OBJ File: ''
# www.blender.org
mtllib LargeWindow.mtl
o LargeWindow.002
v -0.424508 0.107399 1.487639
v -0.424508 0.007400 -1.612361
v -0.424508 0.007399 1.587639
v -0.424508 0.107400 -1.512361
v -0.424508 2.407399 1.487639
v -0.424508 2.407400 -1.512360
v -0.424508 2.507399 1.587639
v -0.424508 2.507400 -1.612361
v -0.324508 0.207399 1.387639
v -0.324508 0.107400 -1.512361
v -0.324508 0.107399 1.487639
v -0.324508 0.207400 -1.412361
v -0.324508 2.307400 1.387639
v -0.324508 2.307400 -1.412361
v -0.324508 2.407399 1.487639
v -0.324508 2.407400 -1.512360
v -0.124508 0.107399 1.487639
v -0.124508 0.107400 -1.512361
v -0.124508 0.207399 1.387639
v -0.124508 0.207400 -1.412361
v -0.124508 2.307400 1.387639
v -0.124508 2.307400 -1.412361
v -0.124508 2.407399 1.487639
v -0.124508 2.407400 -1.512360
v 0.575492 0.007399 1.587639
v 0.575492 0.007400 -1.612361
v 0.575492 0.107399 1.487639
v 0.575492 0.107400 -1.512361
v 0.575492 2.407399 1.487639
v 0.575492 2.407400 -1.512360
v 0.575492 2.507399 1.587639
v 0.575492 2.507400 -1.612361
v 0.075492 0.107399 1.587639
v -0.424508 2.507399 1.587639
v -0.424508 0.007399 1.587639
v 0.075492 0.307399 1.587639
v 0.075492 2.307400 1.587639
v 0.075492 2.407399 1.587639
v 0.175492 0.107399 1.587639
v 0.175492 0.307399 1.587639
v 0.275492 0.107399 1.587639
v 0.275492 0.207399 1.587639
v 0.275492 2.207399 1.587639
v 0.275492 2.307400 1.587639
v 0.375492 0.207399 1.587639
v 0.375492 0.307399 1.587639
v 0.375492 2.207399 1.587639
v 0.375492 2.307400 1.587639
v 0.475492 0.107399 1.587639
v 0.475492 0.307399 1.587639
v 0.475492 2.307400 1.587639
v 0.475492 2.407399 1.587639
v 0.575492 0.007399 1.587639
v 0.575492 2.507399 1.587639
v -0.224508 0.207400 -1.412361
v -0.324508 2.307400 -1.412361
v -0.324508 0.207400 -1.412361
v -0.224508 2.307400 -1.412361
v -0.124508 0.207400 -1.412361
v -0.124508 2.307400 -1.412361
v -0.324508 0.107400 -1.512361
v -0.424508 2.407400 -1.512360
v -0.424508 0.107400 -1.512361
v -0.324508 2.407400 -1.512360
v 0.075492 0.107400 -1.512361
v -0.124508 2.407400 -1.512360
v -0.124508 0.107400 -1.512361
v 0.075492 0.207400 -1.512361
v 0.075492 2.207400 -1.512360
v 0.075492 2.407400 -1.512360
v 0.175492 0.107400 -1.512361
v 0.175492 2.207400 -1.512360
v 0.175492 2.307400 -1.512360
v 0.275492 0.107400 -1.512361
v 0.275492 0.207400 -1.512361
v 0.275492 2.307400 -1.512360
v 0.275492 2.407400 -1.512360
v 0.375492 0.107400 -1.512361
v 0.375492 0.307400 -1.512361
v 0.375492 2.307400 -1.512360
v 0.375492 2.407400 -1.512360
v 0.475492 0.107400 -1.512361
v 0.475492 0.307400 -1.512361
v 0.475492 2.307400 -1.512360
v 0.475492 2.407400 -1.512360
v 0.575492 0.107400 -1.512361
v 0.575492 2.407400 -1.512360
v -0.424508 0.107399 1.487639
v -0.424508 2.407399 1.487639
v -0.324508 0.107399 1.487639
v -0.324508 2.407399 1.487639
v -0.124508 0.107399 1.487639
v -0.124508 2.407399 1.487639
v 0.075492 0.107399 1.487639
v 0.075492 0.307399 1.487639
v 0.075492 2.307400 1.487639
v 0.075492 2.407399 1.487639
v 0.175492 0.107399 1.487639
v 0.175492 0.307399 1.487639
v 0.275492 0.107399 1.487639
v 0.275492 0.207399 1.487639
v 0.275492 2.207399 1.487639
v 0.275492 2.307400 1.487639
v 0.375492 0.107399 1.487639
v 0.375492 0.207399 1.487639
v 0.375492 0.307399 1.487639
v 0.375492 2.207399 1.487639
v 0.375492 2.307400 1.487639
v 0.475492 0.107399 1.487639
v 0.475492 0.307399 1.487639
v 0.475492 2.307400 1.487639
v 0.475492 2.407399 1.487639
v 0.575492 0.107399 1.487639
v 0.575492 2.407399 1.487639
v -0.324508 0.207399 1.387639
v -0.324508 2.307400 1.387639
v -0.224508 0.207399 1.387639
v -0.224508 2.307400 1.387639
v -0.124508 0.207399 1.387639
v -0.124508 2.307400 1.387639
v -0.424508 0.007400 -1.612361
v -0.424508 2.507400 -1.612361
v 0.075492 0.107400 -1.612361
v 0.075492 0.207400 -1.612361
v 0.075492 2.207400 -1.612361
v 0.075492 2.407400 -1.612361
v 0.175492 2.207400 -1.612361
v 0.175492 2.307400 -1.612361
v 0.275492 0.107400 -1.612361
v 0.275492 0.207400 -1.612361
v 0.275492 2.307400 -1.612361
v 0.275492 2.407400 -1.612361
v 0.375492 0.107400 -1.612361
v 0.375492 0.307400 -1.612361
v 0.375492 2.307400 -1.612361
v 0.375492 2.407400 -1.612361
v 0.475492 0.107400 -1.612361
v 0.475492 0.307400 -1.612361
v 0.475492 2.307400 -1.612361
v 0.475492 2.407400 -1.612361
v 0.575492 0.007400 -1.612361
v 0.575492 2.507400 -1.612361
v 0.075492 0.007399 1.487639
v 0.575492 0.007399 1.587639
v -0.424508 0.007399 1.587639
v 0.275492 0.007399 1.487639
v 0.375492 0.007399 1.487639
v 0.475492 0.007399 1.487639
v 0.075492 0.007399 1.387639
v 0.275492 0.007399 1.387639
v 0.375492 0.007399 1.287639
v 0.475492 0.007399 1.287639
v 0.375492 0.007400 -1.312361
v 0.475492 0.007400 -1.312361
v 0.075492 0.007400 -1.412361
v 0.175492 0.007400 -1.412361
v 0.275492 0.007400 -1.412361
v 0.375492 0.007400 -1.412361
v 0.075492 0.007400 -1.512361
v 0.175492 0.007400 -1.512361
v 0.275492 0.007400 -1.512361
v 0.475492 0.007400 -1.512361
v -0.424508 0.007400 -1.612361
v 0.575492 0.007400 -1.612361
v -0.324508 2.307400 -1.412361
v -0.224508 2.307400 1.387639
v -0.324508 2.307400 1.387639
v -0.224508 2.307400 -1.412361
v -0.124508 2.307400 1.387639
v -0.124508 2.307400 -1.412361
v -0.424508 2.407400 -1.512360
v -0.324508 2.407399 1.487639
v -0.424508 2.407399 1.487639
v -0.324508 2.407400 -1.512360
v -0.124508 2.407400 -1.512360
v 0.075492 2.407399 1.487639
v -0.124508 2.407399 1.487639
v 0.075492 2.407400 -1.512360
v 0.475492 2.407399 1.487639
v 0.275492 2.407400 -1.512360
v 0.375492 2.407400 -1.512360
v 0.475492 2.407400 -1.512360
v 0.575492 2.407399 1.487639
v 0.575492 2.407400 -1.512360
v -0.124508 0.107399 1.487639
v 0.075492 0.107399 1.487639
v 0.075492 0.107399 1.387639
v 0.175492 0.107399 1.487639
v 0.275492 0.107399 1.487639
v 0.375492 0.107399 1.487639
v 0.275492 0.107399 1.387639
v 0.475492 0.107399 1.487639
v 0.375492 0.107399 1.287639
v 0.575492 0.107399 1.487639
v 0.475492 0.107399 1.287639
v 0.375492 0.107400 -1.312361
v 0.475492 0.107400 -1.312361
v 0.075492 0.107400 -1.412361
v 0.175492 0.107400 -1.412361
v 0.275492 0.107400 -1.412361
v 0.375492 0.107400 -1.412361
v -0.424508 0.107399 1.487639
v -0.324508 0.107399 1.487639
v -0.424508 0.107400 -1.512361
v -0.324508 0.107400 -1.512361
v -0.124508 0.107400 -1.512361
v 0.075492 0.107400 -1.512361
v 0.175492 0.107400 -1.512361
v 0.275492 0.107400 -1.512361
v 0.375492 0.107400 -1.512361
v 0.475492 0.107400 -1.512361
v 0.575492 0.107400 -1.512361
v -0.324508 0.207399 1.387639
v -0.224508 0.207399 1.387639
v -0.324508 0.207400 -1.412361
v -0.124508 0.207399 1.387639
v -0.224508 0.207400 -1.412361
v -0.124508 0.207400 -1.412361
v -0.424508 2.507399 1.587639
v 0.575492 2.507399 1.587639
v 0.075492 2.507399 1.487639
v 0.475492 2.507399 1.487639
v 0.075492 2.507400 -1.512360
v 0.475492 2.507400 -1.512360
v -0.424508 2.507400 -1.612361
v 0.575492 2.507400 -1.612361
vt 0.994141 0.500000
vt 0.994141 0.500000
vt 0.994141 0.500000
vt 0.994141 0.500000
vt 0.994141 0.500000
vt 0.994141 0.500000
vt 0.994141 0.500000
vt 0.994141 0.500000
vt 0.982422 0.500000
vt 0.982422 0.500000
vt 0.982422 0.500000
vt 0.982422 0.500000
vt 0.982422 0.500000
vt 0.982422 0.500000
vt 0.982422 0.500000
vt 0.982422 0.500000
vt 0.986328 0.500000
vt 0.986328 0.500000
vt 0.986328 0.500000
vt 0.986328 0.500000
vt 0.986328 0.500000
vt 0.986328 0.500000
vt 0.986328 0.500000
vt 0.986328 0.500000
vt 0.994141 0.500000
vt 0.994141 0.500000
vt 0.994141 0.500000
vt 0.994141 0.500000
vt 0.994141 0.500000
vt 0.994141 0.500000
vt 0.994141 0.500000
vt 0.994141 0.500000
vt 0.994141 0.500000
vt 0.994141 0.500000
vt 0.994141 0.500000
vt 0.994141 0.500000
vt 0.994141 0.500000
vt 0.994141 0.500000
vt 0.994141 0.500000
vt 0.978516 0.500000
vt 0.978516 0.500000
vt 0.978516 0.500000
vt 0.974609 0.500000
vt 0.974609 0.500000
vt 0.974609 0.500000
vt 0.978516 0.500000
vt 0.994141 0.500000
vt 0.974609 0.500000
vt 0.974609 0.500000
vt 0.974609 0.500000
vt 0.974609 0.500000
vt 0.978516 0.500000
vt 0.978516 0.500000
vt 0.978516 0.500000
vt 0.974609 0.500000
vt 0.974609 0.500000
vt 0.978516 0.500000
vt 0.978516 0.500000
vt 0.978516 0.500000
vt 0.974609 0.500000
vt 0.978516 0.500000
vt 0.978516 0.500000
vt 0.974609 0.500000
vt 0.978516 0.500000
vt 0.978516 0.500000
vt 0.978516 0.500000
vt 0.994141 0.500000
vt 0.974609 0.500000
vt 0.978516 0.500000
vt 0.974609 0.500000
vt 0.978516 0.500000
vt 0.974609 0.500000
vt 0.994141 0.500000
vt 0.978516 0.500000
vt 0.994141 0.500000
vt 0.994141 0.500000
vt 0.994141 0.500000
vt 0.994141 0.500000
vt 0.982422 0.500000
vt 0.982422 0.500000
vt 0.982422 0.500000
vt 0.982422 0.500000
vt 0.986328 0.500000
vt 0.986328 0.500000
vt 0.986328 0.500000
vt 0.986328 0.500000
vt 0.994141 0.500000
vt 0.994141 0.500000
vt 0.994141 0.500000
vt 0.994141 0.500000
vt 0.994141 0.500000
vt 0.994141 0.500000
vt 0.994141 0.500000
vt 0.994141 0.500000
vt 0.994141 0.500000
vt 0.994141 0.500000
vt 0.978516 0.500000
vt 0.978516 0.500000
vt 0.978516 0.500000
vt 0.974609 0.500000
vt 0.974609 0.500000
vt 0.974609 0.500000
vt 0.978516 0.500000
vt 0.978516 0.500000
vt 0.978516 0.500000
vt 0.978516 0.500000
vt 0.978516 0.500000
vt 0.974609 0.500000
vt 0.978516 0.500000
vt 0.974609 0.500000
vt 0.978516 0.500000
vt 0.974609 0.500000
vt 0.978516 0.500000
vt 0.974609 0.500000
vt 0.974609 0.500000
vt 0.974609 0.500000
vt 0.974609 0.500000
vt 0.974609 0.500000
vt 0.974609 0.500000
vt 0.978516 0.500000
vt 0.978516 0.500000
vt 0.978516 0.500000
vt 0.974609 0.500000
vt 0.978516 0.500000
vt 0.978516 0.500000
vt 0.978516 0.500000
vt 0.978516 0.500000
vt 0.974609 0.500000
vt 0.978516 0.500000
vt 0.994141 0.500000
vt 0.994141 0.500000
vt 0.994141 0.500000
vt 0.994141 0.500000
vt 0.994141 0.500000
vt 0.994141 0.500000
vt 0.994141 0.500000
vt 0.994141 0.500000
vt 0.994141 0.500000
vt 0.994141 0.500000
vt 0.994141 0.500000
vt 0.994141 0.500000
vt 0.994141 0.500000
vt 0.994141 0.500000
vt 0.994141 0.500000
vt 0.994141 0.500000
vt 0.978516 0.500000
vt 0.978516 0.500000
vt 0.978516 0.500000
vt 0.974609 0.500000
vt 0.974609 0.500000
vt 0.974609 0.500000
vt 0.978516 0.500000
vt 0.974609 0.500000
vt 0.974609 0.500000
vt 0.974609 0.500000
vt 0.974609 0.500000
vt 0.978516 0.500000
vt 0.978516 0.500000
vt 0.978516 0.500000
vt 0.974609 0.500000
vt 0.978516 0.500000
vt 0.978516 0.500000
vt 0.978516 0.500000
vt 0.974609 0.500000
vt 0.978516 0.500000
vt 0.974609 0.500000
vt 0.978516 0.500000
vt 0.978516 0.500000
vt 0.974609 0.500000
vt 0.978516 0.500000
vt 0.978516 0.500000
vt 0.978516 0.500000
vt 0.974609 0.500000
vt 0.978516 0.500000
vt 0.974609 0.500000
vt 0.978516 0.500000
vt 0.974609 0.500000
vt 0.978516 0.500000
vt 0.994141 0.500000
vt 0.994141 0.500000
vt 0.994141 0.500000
vt 0.994141 0.500000
vt 0.994141 0.500000
vt 0.994141 0.500000
vt 0.982422 0.500000
vt 0.982422 0.500000
vt 0.982422 0.500000
vt 0.982422 0.500000
vt 0.986328 0.500000
vt 0.986328 0.500000
vt 0.986328 0.500000
vt 0.986328 0.500000
vt 0.994141 0.500000
vt 0.994141 0.500000
vt 0.994141 0.500000
vt 0.994141 0.500000
vt 0.994141 0.500000
vt 0.994141 0.500000
vt 0.974609 0.500000
vt 0.974609 0.500000
vt 0.974609 0.500000
vt 0.978516 0.500000
vt 0.978516 0.500000
vt 0.978516 0.500000
vt 0.978516 0.500000
vt 0.994141 0.500000
vt 0.978516 0.500000
vt 0.978516 0.500000
vt 0.978516 0.500000
vt 0.974609 0.500000
vt 0.974609 0.500000
vt 0.978516 0.500000
vt 0.978516 0.500000
vt 0.974609 0.500000
vt 0.994141 0.500000
vt 0.978516 0.500000
vt 0.974609 0.500000
vt 0.974609 0.500000
vt 0.994141 0.500000
vt 0.974609 0.500000
vt 0.974609 0.500000
vt 0.974609 0.500000
vt 0.994141 0.500000
vt 0.974609 0.500000
vt 0.994141 0.500000
vt 0.978516 0.500000
vt 0.978516 0.500000
vt 0.978516 0.500000
vt 0.974609 0.500000
vt 0.978516 0.500000
vt 0.978516 0.500000
vt 0.978516 0.500000
vt 0.978516 0.500000
vt 0.974609 0.500000
vt 0.994141 0.500000
vt 0.978516 0.500000
vt 0.994141 0.500000
vt 0.994141 0.500000
vt 0.994141 0.500000
vt 0.994141 0.500000
vt 0.994141 0.500000
vt 0.994141 0.500000
vt 0.994141 0.500000
vt 0.994141 0.500000
vt 0.994141 0.500000
vt 0.994141 0.500000
vt 0.994141 0.500000
vt 0.974609 0.500000
vt 0.974609 0.500000
vt 0.974609 0.500000
vt 0.970703 0.500000
vt 0.970703 0.500000
vt 0.970703 0.500000
vt 0.974609 0.500000
vt 0.974609 0.500000
vt 0.974609 0.500000
vt 0.974609 0.500000
vt 0.970703 0.500000
vt 0.970703 0.500000
vt 0.994141 0.500000
vt 0.974609 0.500000
vt 0.970703 0.500000
vt 0.970703 0.500000
vt 0.994141 0.500000
vt 0.970703 0.500000
vt 0.970703 0.500000
vt 0.994141 0.500000
vt 0.970703 0.500000
vt 0.970703 0.500000
vt 0.974609 0.500000
vt 0.974609 0.500000
vt 0.974609 0.500000
vt 0.970703 0.500000
vt 0.994141 0.500000
vt 0.974609 0.500000
vt 0.974609 0.500000
vt 0.974609 0.500000
vt 0.970703 0.500000
vt 0.974609 0.500000
vt 0.974609 0.500000
vt 0.974609 0.500000
vt 0.970703 0.500000
vt 0.994141 0.500000
vt 0.974609 0.500000
vt 0.994141 0.500000
vt 0.994141 0.500000
vt 0.994141 0.500000
vt 0.994141 0.500000
vt 0.982422 0.500000
vt 0.982422 0.500000
vt 0.982422 0.500000
vt 0.986328 0.500000
vt 0.986328 0.500000
vt 0.986328 0.500000
vt 0.982422 0.500000
vt 0.986328 0.500000
vt 0.994141 0.500000
vt 0.994141 0.500000
vt 0.994141 0.500000
vt 0.994141 0.500000
vt 0.994141 0.500000
vt 0.994141 0.500000
vt 0.994141 0.500000
vt 0.978516 0.500000
vt 0.978516 0.500000
vt 0.978516 0.500000
vt 0.994141 0.500000
vt 0.978516 0.500000
vt 0.978516 0.500000
vt 0.994141 0.500000
vt 0.994141 0.500000
vt 0.994141 0.500000
vt 0.978516 0.500000
vt 0.994141 0.500000
vt 0.994141 0.500000
vt 0.994141 0.500000
vt 0.994141 0.500000
vt 0.974609 0.500000
vt 0.974609 0.500000
vt 0.974609 0.500000
vt 0.974609 0.500000
vt 0.970703 0.500000
vt 0.970703 0.500000
vt 0.970703 0.500000
vt 0.974609 0.500000
vt 0.974609 0.500000
vt 0.974609 0.500000
vt 0.974609 0.500000
vt 0.970703 0.500000
vt 0.970703 0.500000
vt 0.994141 0.500000
vt 0.994141 0.500000
vt 0.994141 0.500000
vt 0.974609 0.500000
vt 0.970703 0.500000
vt 0.970703 0.500000
vt 0.994141 0.500000
vt 0.970703 0.500000
vt 0.970703 0.500000
vt 0.994141 0.500000
vt 0.970703 0.500000
vt 0.970703 0.500000
vt 0.974609 0.500000
vt 0.974609 0.500000
vt 0.974609 0.500000
vt 0.970703 0.500000
vt 0.994141 0.500000
vt 0.994141 0.500000
vt 0.994141 0.500000
vt 0.994141 0.500000
vt 0.994141 0.500000
vt 0.974609 0.500000
vt 0.974609 0.500000
vt 0.974609 0.500000
vt 0.994141 0.500000
vt 0.970703 0.500000
vt 0.974609 0.500000
vt 0.974609 0.500000
vt 0.974609 0.500000
vt 0.970703 0.500000
vt 0.974609 0.500000
vt 0.994141 0.500000
vt 0.974609 0.500000
vt 0.994141 0.500000
vt 0.982422 0.500000
vt 0.982422 0.500000
vt 0.982422 0.500000
vt 0.986328 0.500000
vt 0.986328 0.500000
vt 0.986328 0.500000
vt 0.982422 0.500000
vt 0.986328 0.500000
vt 0.994141 0.500000
vt 0.994141 0.500000
vt 0.994141 0.500000
vt 0.994141 0.500000
vt 0.994141 0.500000
vt 0.978516 0.500000
vt 0.978516 0.500000
vt 0.978516 0.500000
vt 0.994141 0.500000
vt 0.978516 0.500000
vt 0.994141 0.500000
vt 0.994141 0.500000
vn -1.0000 0.0000 0.0000
vn 1.0000 -0.0000 0.0000
vn -0.0000 -0.0000 1.0000
vn 0.0000 0.0000 -1.0000
vn 0.0000 -1.0000 -0.0000
vn 0.0000 1.0000 0.0000
usemtl palette.002
s 1
f 1/1/1 2/2/1 3/3/1
f 4/4/1 2/2/1 1/1/1
f 5/5/1 1/1/1 3/3/1
f 6/6/1 2/2/1 4/4/1
f 7/7/1 5/5/1 3/3/1
f 7/7/1 6/6/1 5/5/1
f 8/8/1 2/2/1 6/6/1
f 8/8/1 6/6/1 7/7/1
f 9/9/1 10/10/1 11/11/1
f 12/12/1 10/10/1 9/9/1
f 13/13/1 9/9/1 11/11/1
f 14/14/1 10/10/1 12/12/1
f 15/15/1 13/13/1 11/11/1
f 15/15/1 14/14/1 13/13/1
f 16/16/1 10/10/1 14/14/1
f 16/16/1 14/14/1 15/15/1
f 17/17/2 18/18/2 19/19/2
f 19/19/2 18/18/2 20/20/2
f 17/17/2 19/19/2 21/21/2
f 20/20/2 18/18/2 22/22/2
f 17/17/2 21/21/2 23/23/2
f 21/21/2 22/22/2 23/23/2
f 22/22/2 18/18/2 24/24/2
f 23/23/2 22/22/2 24/24/2
f 25/25/2 26/26/2 27/27/2
f 27/27/2 26/26/2 28/28/2
f 25/25/2 27/27/2 29/29/2
f 28/28/2 26/26/2 30/30/2
f 25/25/2 29/29/2 31/31/2
f 29/29/2 30/30/2 31/31/2
f 30/30/2 26/26/2 32/32/2
f 31/31/2 30/30/2 32/32/2
f 33/33/3 34/34/3 35/35/3
f 36/36/3 34/34/3 33/33/3
f 37/37/3 34/34/3 36/36/3
f 38/38/3 34/34/3 37/37/3
f 39/39/3 33/33/3 35/35/3
f 39/40/3 36/41/3 33/42/3
f 40/43/3 37/44/3 36/45/3
f 40/46/3 36/41/3 39/40/3
f 41/47/3 39/39/3 35/35/3
f 41/48/3 40/43/3 39/49/3
f 42/50/3 40/43/3 41/48/3
f 43/51/3 37/44/3 40/43/3
f 43/51/3 40/43/3 42/50/3
f 44/52/3 38/53/3 37/54/3
f 44/55/3 37/44/3 43/51/3
f 45/56/3 43/51/3 42/50/3
f 45/57/3 42/58/3 41/59/3
f 46/60/3 43/51/3 45/56/3
f 47/61/3 44/52/3 43/62/3
f 47/63/3 43/51/3 46/60/3
f 48/64/3 38/53/3 44/52/3
f 48/64/3 44/52/3 47/61/3
f 49/65/3 46/66/3 45/57/3
f 49/67/3 41/47/3 35/35/3
f 49/65/3 45/57/3 41/59/3
f 50/68/3 47/63/3 46/60/3
f 50/69/3 46/66/3 49/65/3
f 50/68/3 48/70/3 47/63/3
f 51/71/3 38/53/3 48/64/3
f 51/72/3 48/70/3 50/68/3
f 52/73/3 34/34/3 38/38/3
f 52/74/3 38/53/3 51/71/3
f 53/75/3 51/76/3 50/77/3
f 53/75/3 49/67/3 35/35/3
f 53/75/3 52/73/3 51/76/3
f 53/75/3 50/77/3 49/67/3
f 54/78/3 34/34/3 52/73/3
f 54/78/3 52/73/3 53/75/3
f 55/79/3 56/80/3 57/81/3
f 58/82/3 56/80/3 55/79/3
f 59/83/3 58/84/3 55/85/3
f 60/86/3 58/84/3 59/83/3
f 61/87/3 62/88/3 63/89/3
f 64/90/3 62/88/3 61/87/3
f 65/91/3 66/92/3 67/93/3
f 68/94/3 66/92/3 65/91/3
f 69/95/3 66/92/3 68/94/3
f 70/96/3 66/92/3 69/95/3
f 71/97/3 68/98/3 65/99/3
f 72/100/3 69/101/3 68/102/3
f 72/103/3 70/104/3 69/105/3
f 73/106/3 70/104/3 72/103/3
f 74/107/3 68/98/3 71/97/3
f 75/108/3 72/100/3 68/102/3
f 75/109/3 68/98/3 74/107/3
f 75/108/3 73/110/3 72/100/3
f 76/111/3 70/104/3 73/106/3
f 76/112/3 73/110/3 75/108/3
f 77/113/3 70/104/3 76/111/3
f 78/114/3 75/108/3 74/115/3
f 78/114/3 76/112/3 75/108/3
f 78/114/3 77/116/3 76/112/3
f 79/117/3 77/116/3 78/114/3
f 80/118/3 77/116/3 79/117/3
f 81/119/3 77/116/3 80/118/3
f 82/120/3 79/121/3 78/122/3
f 83/123/3 80/118/3 79/117/3
f 83/124/3 79/121/3 82/120/3
f 84/125/3 81/126/3 80/127/3
f 84/128/3 80/118/3 83/123/3
f 85/129/3 81/126/3 84/125/3
f 86/130/3 83/131/3 82/132/3
f 86/130/3 84/133/3 83/131/3
f 86/130/3 85/134/3 84/133/3
f 87/135/3 85/134/3 86/130/3
f 88/136/4 89/137/4 90/138/4
f 90/138/4 89/137/4 91/139/4
f 92/140/4 93/141/4 94/142/4
f 94/142/4 93/141/4 95/143/4
f 95/143/4 93/141/4 96/144/4
f 96/144/4 93/141/4 97/145/4
f 94/146/4 95/147/4 98/148/4
f 95/149/4 96/150/4 99/151/4
f 98/148/4 95/147/4 99/152/4
f 98/153/4 99/151/4 100/154/4
f 100/154/4 99/151/4 101/155/4
f 99/151/4 96/150/4 102/156/4
f 101/155/4 99/151/4 102/156/4
f 96/157/4 97/158/4 103/159/4
f 102/156/4 96/150/4 103/160/4
f 100/161/4 101/162/4 104/163/4
f 101/155/4 102/156/4 105/164/4
f 104/163/4 101/162/4 105/165/4
f 105/164/4 102/156/4 106/166/4
f 102/167/4 103/159/4 107/168/4
f 106/166/4 102/156/4 107/169/4
f 103/159/4 97/158/4 108/170/4
f 107/168/4 103/159/4 108/170/4
f 105/165/4 106/171/4 109/172/4
f 104/163/4 105/165/4 109/172/4
f 106/166/4 107/169/4 110/173/4
f 109/172/4 106/171/4 110/174/4
f 107/169/4 108/175/4 110/173/4
f 108/170/4 97/158/4 111/176/4
f 110/173/4 108/175/4 111/177/4
f 111/176/4 97/158/4 112/178/4
f 109/179/4 110/180/4 113/181/4
f 110/180/4 111/182/4 113/181/4
f 111/182/4 112/183/4 113/181/4
f 113/181/4 112/183/4 114/184/4
f 115/185/4 116/186/4 117/187/4
f 117/187/4 116/186/4 118/188/4
f 117/189/4 118/190/4 119/191/4
f 119/191/4 118/190/4 120/192/4
f 121/193/4 122/194/4 123/195/4
f 123/195/4 122/194/4 124/196/4
f 124/196/4 122/194/4 125/197/4
f 125/197/4 122/194/4 126/198/4
f 124/199/4 125/200/4 127/201/4
f 125/202/4 126/203/4 127/204/4
f 127/204/4 126/203/4 128/205/4
f 121/193/4 123/195/4 129/206/4
f 123/207/4 124/208/4 129/209/4
f 127/201/4 128/210/4 130/211/4
f 129/209/4 124/208/4 130/212/4
f 124/199/4 127/201/4 130/211/4
f 128/205/4 126/203/4 131/213/4
f 130/211/4 128/210/4 131/214/4
f 126/198/4 122/194/4 132/215/4
f 131/213/4 126/203/4 132/216/4
f 129/217/4 130/211/4 133/218/4
f 121/193/4 129/206/4 133/219/4
f 131/214/4 132/220/4 133/218/4
f 130/211/4 131/214/4 133/218/4
f 133/218/4 132/220/4 134/221/4
f 134/221/4 132/220/4 135/222/4
f 132/215/4 122/194/4 136/223/4
f 135/222/4 132/220/4 136/224/4
f 121/193/4 133/219/4 137/225/4
f 133/226/4 134/227/4 137/228/4
f 134/221/4 135/222/4 138/229/4
f 137/228/4 134/227/4 138/230/4
f 135/231/4 136/232/4 139/233/4
f 138/229/4 135/222/4 139/234/4
f 136/223/4 122/194/4 140/235/4
f 139/233/4 136/232/4 140/236/4
f 121/193/4 137/225/4 141/237/4
f 138/238/4 139/239/4 141/237/4
f 139/239/4 140/235/4 141/237/4
f 137/225/4 138/238/4 141/237/4
f 140/235/4 122/194/4 142/240/4
f 141/237/4 140/235/4 142/240/4
f 143/241/5 144/242/5 145/243/5
f 146/244/5 144/242/5 143/241/5
f 147/245/5 144/242/5 146/244/5
f 148/246/5 144/242/5 147/245/5
f 149/247/5 143/241/5 145/243/5
f 149/248/5 146/249/5 143/250/5
f 150/251/5 147/252/5 146/253/5
f 150/254/5 146/249/5 149/248/5
f 151/255/5 148/256/5 147/257/5
f 151/258/5 147/252/5 150/251/5
f 151/258/5 150/251/5 149/259/5
f 152/260/5 144/242/5 148/246/5
f 152/261/5 148/256/5 151/255/5
f 153/262/5 151/258/5 149/259/5
f 153/262/5 152/263/5 151/258/5
f 154/264/5 144/242/5 152/260/5
f 154/265/5 152/263/5 153/262/5
f 155/266/5 153/262/5 149/259/5
f 155/267/5 149/247/5 145/243/5
f 156/268/5 153/262/5 155/266/5
f 157/269/5 153/262/5 156/268/5
f 158/270/5 154/271/5 153/272/5
f 158/273/5 153/262/5 157/269/5
f 159/274/5 155/267/5 145/243/5
f 159/275/5 156/276/5 155/277/5
f 160/278/5 157/269/5 156/268/5
f 160/279/5 156/276/5 159/275/5
f 161/280/5 158/270/5 157/281/5
f 161/282/5 157/269/5 160/278/5
f 162/283/5 144/242/5 154/264/5
f 162/284/5 158/270/5 161/280/5
f 162/284/5 154/271/5 158/270/5
f 163/285/5 161/286/5 160/287/5
f 163/285/5 159/274/5 145/243/5
f 163/285/5 162/283/5 161/286/5
f 163/285/5 160/287/5 159/274/5
f 164/288/5 144/242/5 162/283/5
f 164/288/5 162/283/5 163/285/5
f 165/289/5 166/290/5 167/291/5
f 168/292/5 169/293/5 166/294/5
f 168/295/5 166/290/5 165/289/5
f 170/296/5 169/293/5 168/292/5
f 171/297/5 172/298/5 173/299/5
f 174/300/5 172/298/5 171/297/5
f 175/301/5 176/302/5 177/303/5
f 178/304/5 179/305/5 176/306/5
f 178/307/5 176/302/5 175/301/5
f 180/308/5 179/305/5 178/304/5
f 181/309/5 179/305/5 180/308/5
f 182/310/5 183/311/5 179/312/5
f 182/313/5 179/305/5 181/309/5
f 184/314/5 183/311/5 182/310/5
f 185/315/6 186/316/6 187/317/6
f 186/318/6 188/319/6 187/320/6
f 188/319/6 189/321/6 187/320/6
f 189/322/6 190/323/6 191/324/6
f 187/320/6 189/321/6 191/325/6
f 190/326/6 192/327/6 193/328/6
f 191/324/6 190/323/6 193/329/6
f 187/330/6 191/324/6 193/329/6
f 192/331/6 194/332/6 195/333/6
f 193/328/6 192/327/6 195/334/6
f 187/330/6 193/329/6 196/335/6
f 193/329/6 195/336/6 196/335/6
f 195/333/6 194/332/6 197/337/6
f 196/335/6 195/336/6 197/338/6
f 187/330/6 196/335/6 198/339/6
f 185/315/6 187/317/6 198/340/6
f 198/339/6 196/335/6 199/341/6
f 199/341/6 196/335/6 200/342/6
f 196/343/6 197/344/6 201/345/6
f 200/342/6 196/335/6 201/346/6
f 202/347/6 203/348/6 204/349/6
f 204/349/6 203/348/6 205/350/6
f 185/315/6 198/340/6 206/351/6
f 198/352/6 199/353/6 207/354/6
f 206/351/6 198/340/6 207/355/6
f 199/341/6 200/342/6 208/356/6
f 207/354/6 199/353/6 208/357/6
f 200/358/6 201/345/6 209/359/6
f 208/356/6 200/342/6 209/360/6
f 201/345/6 197/344/6 210/361/6
f 209/359/6 201/345/6 210/361/6
f 197/337/6 194/332/6 211/362/6
f 210/361/6 197/344/6 211/363/6
f 211/362/6 194/332/6 212/364/6
f 213/365/6 214/366/6 215/367/6
f 214/368/6 216/369/6 217/370/6
f 215/367/6 214/366/6 217/371/6
f 217/370/6 216/369/6 218/372/6
f 219/373/6 220/374/6 221/375/6
f 221/375/6 220/374/6 222/376/6
f 219/373/6 221/375/6 223/377/6
f 221/378/6 222/379/6 223/380/6
f 222/376/6 220/374/6 224/381/6
f 223/380/6 222/379/6 224/382/6
f 219/373/6 223/377/6 225/383/6
f 223/377/6 224/381/6 225/383/6
f 224/381/6 220/374/6 226/384/6
f 225/383/6 224/381/6 226/384/6
