# MagicaVoxel @ Ephtracy

# group
o 

# material
mtllib DiningTable.mtl
usemtl palette

# normals
vn -1 0 0
vn 1 0 0
vn 0 0 1
vn 0 0 -1
vn 0 -1 0
vn 0 1 0

# texcoords
vt 0.970703 0.5
vt 0.974609 0.5
vt 0.994141 0.5

# verts
v -1.6 0 2.5
v -1.6 0 2.2
v -1.6 0 -2.2
v -1.6 0 -2.5
v -1.6 0.1 2.4
v -1.6 0.1 2.3
v -1.6 0.1 -2.3
v -1.6 0.1 -2.4
v -1.6 1.7 2.4
v -1.6 1.7 2.3
v -1.6 1.7 2.2
v -1.6 1.7 -2.2
v -1.6 1.7 -2.3
v -1.6 1.7 -2.4
v -1.6 1.8 2.4
v -1.6 1.8 2.3
v -1.6 1.8 2.2
v -1.6 1.8 -2.2
v -1.6 1.8 -2.3
v -1.6 1.8 -2.4
v -1.6 1.9 2.4
v -1.6 1.9 2.3
v -1.6 1.9 2.2
v -1.6 1.9 -2.2
v -1.6 1.9 -2.3
v -1.6 1.9 -2.4
v -1.6 2 2.5
v -1.6 2 -2.5
v -1.4 0 2.4
v -1.4 0 2.3
v -1.4 0 -2.3
v -1.4 0 -2.4
v -1.4 0.1 2.4
v -1.4 0.1 2.3
v -1.4 0.1 -2.3
v -1.4 0.1 -2.4
v -1.4 1.7 2.4
v -1.4 1.7 -2.4
v -1.4 1.8 2.4
v -1.4 1.8 -2.4
v -1.4 1.9 2.4
v -1.4 1.9 2.3
v -1.4 1.9 -2.3
v -1.4 1.9 -2.4
v 1.3 0 2.5
v 1.3 0 2.2
v 1.3 0 -2.2
v 1.3 0 -2.5
v 1.3 0.1 2.4
v 1.3 0.1 2.3
v 1.3 0.1 -2.3
v 1.3 0.1 -2.4
v 1.3 1.7 2.5
v 1.3 1.7 2.4
v 1.3 1.7 -2.4
v 1.3 1.7 -2.5
v 1.3 1.8 2.4
v 1.3 1.8 -2.4
v 1.3 1.9 2.4
v 1.3 1.9 2.3
v 1.3 1.9 2.2
v 1.3 1.9 -2.2
v 1.3 1.9 -2.3
v 1.3 1.9 -2.4
v 1.5 0 2.4
v 1.5 0 2.3
v 1.5 0 -2.3
v 1.5 0 -2.4
v 1.5 0.1 2.4
v 1.5 0.1 2.3
v 1.5 0.1 -2.3
v 1.5 0.1 -2.4
v 1.5 1.7 2.4
v 1.5 1.7 2.3
v 1.5 1.7 2.2
v 1.5 1.7 -2.2
v 1.5 1.7 -2.3
v 1.5 1.7 -2.4
v 1.5 1.8 2.4
v 1.5 1.8 2.3
v 1.5 1.8 2.2
v 1.5 1.8 -2.2
v 1.5 1.8 -2.3
v 1.5 1.8 -2.4
v 1.5 1.9 2.4
v 1.5 1.9 2.3
v 1.5 1.9 2.2
v 1.5 1.9 -2.2
v 1.5 1.9 -2.3
v 1.5 1.9 -2.4
v -1.5 0 2.4
v -1.5 0 2.3
v -1.5 0 -2.3
v -1.5 0 -2.4
v -1.5 0.1 2.4
v -1.5 0.1 2.3
v -1.5 0.1 -2.3
v -1.5 0.1 -2.4
v -1.5 1.7 2.4
v -1.5 1.7 2.3
v -1.5 1.7 2.2
v -1.5 1.7 -2.2
v -1.5 1.7 -2.3
v -1.5 1.7 -2.4
v -1.5 1.8 2.4
v -1.5 1.8 2.3
v -1.5 1.8 2.2
v -1.5 1.8 -2.2
v -1.5 1.8 -2.3
v -1.5 1.8 -2.4
v -1.5 1.9 2.4
v -1.5 1.9 2.3
v -1.5 1.9 2.2
v -1.5 1.9 -2.2
v -1.5 1.9 -2.3
v -1.5 1.9 -2.4
v -1.3 0 2.5
v -1.3 0 2.2
v -1.3 0 -2.2
v -1.3 0 -2.5
v -1.3 0.1 2.4
v -1.3 0.1 2.3
v -1.3 0.1 -2.3
v -1.3 0.1 -2.4
v -1.3 1.7 2.5
v -1.3 1.7 2.4
v -1.3 1.7 -2.4
v -1.3 1.7 -2.5
v -1.3 1.8 2.4
v -1.3 1.8 -2.4
v -1.3 1.9 2.4
v -1.3 1.9 2.3
v -1.3 1.9 2.2
v -1.3 1.9 -2.2
v -1.3 1.9 -2.3
v -1.3 1.9 -2.4
v 1.4 0 2.4
v 1.4 0 2.3
v 1.4 0 -2.3
v 1.4 0 -2.4
v 1.4 0.1 2.4
v 1.4 0.1 2.3
v 1.4 0.1 -2.3
v 1.4 0.1 -2.4
v 1.4 1.7 2.4
v 1.4 1.7 -2.4
v 1.4 1.8 2.4
v 1.4 1.8 -2.4
v 1.4 1.9 2.4
v 1.4 1.9 2.3
v 1.4 1.9 -2.3
v 1.4 1.9 -2.4
v 1.6 0 2.5
v 1.6 0 2.2
v 1.6 0 -2.2
v 1.6 0 -2.5
v 1.6 0.1 2.4
v 1.6 0.1 2.3
v 1.6 0.1 -2.3
v 1.6 0.1 -2.4
v 1.6 1.7 2.4
v 1.6 1.7 2.3
v 1.6 1.7 2.2
v 1.6 1.7 -2.2
v 1.6 1.7 -2.3
v 1.6 1.7 -2.4
v 1.6 1.8 2.4
v 1.6 1.8 2.3
v 1.6 1.8 2.2
v 1.6 1.8 -2.2
v 1.6 1.8 -2.3
v 1.6 1.8 -2.4
v 1.6 1.9 2.4
v 1.6 1.9 2.3
v 1.6 1.9 2.2
v 1.6 1.9 -2.2
v 1.6 1.9 -2.3
v 1.6 1.9 -2.4
v 1.6 2 2.5
v 1.6 2 -2.5
v -1.6 0 2.5
v -1.6 2 2.5
v -1.5 0.1 2.5
v -1.5 1.7 2.5
v -1.5 1.8 2.5
v -1.5 1.9 2.5
v -1.4 0.1 2.5
v -1.4 1.7 2.5
v -1.4 1.8 2.5
v -1.4 1.9 2.5
v -1.3 0 2.5
v -1.3 1.7 2.5
v -1.3 1.8 2.5
v -1.3 1.9 2.5
v 1.3 0 2.5
v 1.3 1.7 2.5
v 1.3 1.8 2.5
v 1.3 1.9 2.5
v 1.4 0.1 2.5
v 1.4 1.7 2.5
v 1.4 1.8 2.5
v 1.4 1.9 2.5
v 1.5 0.1 2.5
v 1.5 1.7 2.5
v 1.5 1.8 2.5
v 1.5 1.9 2.5
v 1.6 0 2.5
v 1.6 2 2.5
v -1.5 0 2.3
v -1.5 0.1 2.3
v -1.5 1.7 2.3
v -1.5 1.8 2.3
v -1.5 1.9 2.3
v -1.4 0 2.3
v -1.4 0.1 2.3
v -1.4 1.9 2.3
v 1.4 0 2.3
v 1.4 0.1 2.3
v 1.4 1.9 2.3
v 1.5 0 2.3
v 1.5 0.1 2.3
v 1.5 1.7 2.3
v 1.5 1.8 2.3
v 1.5 1.9 2.3
v -1.6 0 -2.2
v -1.6 1.7 -2.2
v -1.5 0.1 -2.2
v -1.5 1.7 -2.2
v -1.5 1.8 -2.2
v -1.5 1.9 -2.2
v -1.4 0.1 -2.2
v -1.4 1.9 -2.2
v -1.3 0 -2.2
v -1.3 1.9 -2.2
v 1.3 0 -2.2
v 1.3 1.9 -2.2
v 1.4 0.1 -2.2
v 1.4 1.9 -2.2
v 1.5 0.1 -2.2
v 1.5 1.7 -2.2
v 1.5 1.8 -2.2
v 1.5 1.9 -2.2
v 1.6 0 -2.2
v 1.6 1.7 -2.2
v -1.5 0 -2.4
v -1.5 0.1 -2.4
v -1.5 1.7 -2.4
v -1.5 1.8 -2.4
v -1.5 1.9 -2.4
v -1.4 0 -2.4
v -1.4 0.1 -2.4
v -1.4 1.7 -2.4
v -1.4 1.8 -2.4
v -1.4 1.9 -2.4
v -1.3 1.7 -2.4
v -1.3 1.8 -2.4
v -1.3 1.9 -2.4
v 1.3 1.7 -2.4
v 1.3 1.8 -2.4
v 1.3 1.9 -2.4
v 1.4 0 -2.4
v 1.4 0.1 -2.4
v 1.4 1.7 -2.4
v 1.4 1.8 -2.4
v 1.4 1.9 -2.4
v 1.5 0 -2.4
v 1.5 0.1 -2.4
v 1.5 1.7 -2.4
v 1.5 1.8 -2.4
v 1.5 1.9 -2.4
v -1.5 0 2.4
v -1.5 0.1 2.4
v -1.5 1.7 2.4
v -1.5 1.8 2.4
v -1.5 1.9 2.4
v -1.4 0 2.4
v -1.4 0.1 2.4
v -1.4 1.7 2.4
v -1.4 1.8 2.4
v -1.4 1.9 2.4
v -1.3 1.7 2.4
v -1.3 1.8 2.4
v -1.3 1.9 2.4
v 1.3 1.7 2.4
v 1.3 1.8 2.4
v 1.3 1.9 2.4
v 1.4 0 2.4
v 1.4 0.1 2.4
v 1.4 1.7 2.4
v 1.4 1.8 2.4
v 1.4 1.9 2.4
v 1.5 0 2.4
v 1.5 0.1 2.4
v 1.5 1.7 2.4
v 1.5 1.8 2.4
v 1.5 1.9 2.4
v -1.6 0 2.2
v -1.6 1.7 2.2
v -1.5 0.1 2.2
v -1.5 1.7 2.2
v -1.5 1.8 2.2
v -1.5 1.9 2.2
v -1.4 0.1 2.2
v -1.4 1.9 2.2
v -1.3 0 2.2
v -1.3 1.9 2.2
v 1.3 0 2.2
v 1.3 1.9 2.2
v 1.4 0.1 2.2
v 1.4 1.9 2.2
v 1.5 0.1 2.2
v 1.5 1.7 2.2
v 1.5 1.8 2.2
v 1.5 1.9 2.2
v 1.6 0 2.2
v 1.6 1.7 2.2
v -1.5 0 -2.3
v -1.5 0.1 -2.3
v -1.5 1.7 -2.3
v -1.5 1.8 -2.3
v -1.5 1.9 -2.3
v -1.4 0 -2.3
v -1.4 0.1 -2.3
v -1.4 1.9 -2.3
v 1.4 0 -2.3
v 1.4 0.1 -2.3
v 1.4 1.9 -2.3
v 1.5 0 -2.3
v 1.5 0.1 -2.3
v 1.5 1.7 -2.3
v 1.5 1.8 -2.3
v 1.5 1.9 -2.3
v -1.6 0 -2.5
v -1.6 2 -2.5
v -1.5 0.1 -2.5
v -1.5 1.7 -2.5
v -1.5 1.8 -2.5
v -1.5 1.9 -2.5
v -1.4 0.1 -2.5
v -1.4 1.7 -2.5
v -1.4 1.8 -2.5
v -1.4 1.9 -2.5
v -1.3 0 -2.5
v -1.3 1.7 -2.5
v -1.3 1.8 -2.5
v -1.3 1.9 -2.5
v 1.3 0 -2.5
v 1.3 1.7 -2.5
v 1.3 1.8 -2.5
v 1.3 1.9 -2.5
v 1.4 0.1 -2.5
v 1.4 1.7 -2.5
v 1.4 1.8 -2.5
v 1.4 1.9 -2.5
v 1.5 0.1 -2.5
v 1.5 1.7 -2.5
v 1.5 1.8 -2.5
v 1.5 1.9 -2.5
v 1.6 0 -2.5
v 1.6 2 -2.5
v -1.6 0 2.5
v -1.3 0 2.5
v 1.3 0 2.5
v 1.6 0 2.5
v -1.5 0 2.4
v -1.4 0 2.4
v 1.4 0 2.4
v 1.5 0 2.4
v -1.5 0 2.3
v -1.4 0 2.3
v 1.4 0 2.3
v 1.5 0 2.3
v -1.6 0 2.2
v -1.3 0 2.2
v 1.3 0 2.2
v 1.6 0 2.2
v -1.6 0 -2.2
v -1.3 0 -2.2
v 1.3 0 -2.2
v 1.6 0 -2.2
v -1.5 0 -2.3
v -1.4 0 -2.3
v 1.4 0 -2.3
v 1.5 0 -2.3
v -1.5 0 -2.4
v -1.4 0 -2.4
v 1.4 0 -2.4
v 1.5 0 -2.4
v -1.6 0 -2.5
v -1.3 0 -2.5
v 1.3 0 -2.5
v 1.6 0 -2.5
v -1.3 1.7 2.5
v 1.3 1.7 2.5
v -1.3 1.7 2.4
v 1.3 1.7 2.4
v -1.6 1.7 2.2
v -1.5 1.7 2.2
v 1.5 1.7 2.2
v 1.6 1.7 2.2
v -1.6 1.7 -2.2
v -1.5 1.7 -2.2
v 1.5 1.7 -2.2
v 1.6 1.7 -2.2
v -1.3 1.7 -2.4
v 1.3 1.7 -2.4
v -1.3 1.7 -2.5
v 1.3 1.7 -2.5
v -1.5 1.9 2.4
v -1.4 1.9 2.4
v -1.3 1.9 2.4
v 1.3 1.9 2.4
v 1.4 1.9 2.4
v 1.5 1.9 2.4
v -1.5 1.9 2.3
v -1.4 1.9 2.3
v -1.3 1.9 2.3
v 1.3 1.9 2.3
v 1.4 1.9 2.3
v 1.5 1.9 2.3
v -1.5 1.9 2.2
v -1.4 1.9 2.2
v -1.3 1.9 2.2
v 1.3 1.9 2.2
v 1.4 1.9 2.2
v 1.5 1.9 2.2
v -1.5 1.9 -2.2
v -1.4 1.9 -2.2
v -1.3 1.9 -2.2
v 1.3 1.9 -2.2
v 1.4 1.9 -2.2
v 1.5 1.9 -2.2
v -1.5 1.9 -2.3
v -1.4 1.9 -2.3
v -1.3 1.9 -2.3
v 1.3 1.9 -2.3
v 1.4 1.9 -2.3
v 1.5 1.9 -2.3
v -1.5 1.9 -2.4
v -1.4 1.9 -2.4
v -1.3 1.9 -2.4
v 1.3 1.9 -2.4
v 1.4 1.9 -2.4
v 1.5 1.9 -2.4
v -1.6 2 2.5
v 1.6 2 2.5
v -1.5 2 2.4
v 1.5 2 2.4
v -1.4 2 2.3
v 1.4 2 2.3
v -1.3 2 2.2
v 1.3 2 2.2
v -1.3 2 -2.2
v 1.3 2 -2.2
v -1.4 2 -2.3
v 1.4 2 -2.3
v -1.5 2 -2.4
v 1.5 2 -2.4
v -1.6 2 -2.5
v 1.6 2 -2.5

# faces
f 5/3/1 2/3/1 1/3/1
f 6/3/1 2/3/1 5/3/1
f 7/3/1 4/3/1 3/3/1
f 8/3/1 4/3/1 7/3/1
f 9/3/1 5/3/1 1/3/1
f 9/1/1 6/1/1 5/1/1
f 10/3/1 2/3/1 6/3/1
f 10/1/1 6/1/1 9/1/1
f 11/3/1 2/3/1 10/3/1
f 12/3/1 7/3/1 3/3/1
f 13/1/1 8/1/1 7/1/1
f 13/3/1 7/3/1 12/3/1
f 14/3/1 4/3/1 8/3/1
f 14/1/1 8/1/1 13/1/1
f 15/3/1 9/3/1 1/3/1
f 15/3/1 13/3/1 12/3/1
f 15/3/1 14/3/1 13/3/1
f 15/3/1 12/3/1 11/3/1
f 15/3/1 10/3/1 9/3/1
f 15/3/1 11/3/1 10/3/1
f 16/3/1 14/3/1 15/3/1
f 17/3/1 14/3/1 16/3/1
f 18/3/1 14/3/1 17/3/1
f 19/3/1 14/3/1 18/3/1
f 20/3/1 4/3/1 14/3/1
f 20/3/1 14/3/1 19/3/1
f 21/3/1 15/3/1 1/3/1
f 21/1/1 16/1/1 15/1/1
f 22/3/1 17/3/1 16/3/1
f 22/1/1 16/1/1 21/1/1
f 23/1/1 18/1/1 17/1/1
f 23/3/1 17/3/1 22/3/1
f 24/3/1 19/3/1 18/3/1
f 24/1/1 18/1/1 23/1/1
f 25/1/1 20/1/1 19/1/1
f 25/3/1 19/3/1 24/3/1
f 26/3/1 4/3/1 20/3/1
f 26/1/1 20/1/1 25/1/1
f 27/3/1 23/3/1 22/3/1
f 27/3/1 25/3/1 24/3/1
f 27/3/1 26/3/1 25/3/1
f 27/3/1 22/3/1 21/3/1
f 27/3/1 21/3/1 1/3/1
f 27/3/1 24/3/1 23/3/1
f 28/3/1 4/3/1 26/3/1
f 28/3/1 26/3/1 27/3/1
f 33/3/1 30/3/1 29/3/1
f 34/3/1 30/3/1 33/3/1
f 35/3/1 32/3/1 31/3/1
f 36/3/1 32/3/1 35/3/1
f 37/1/1 34/1/1 33/1/1
f 38/1/1 36/1/1 35/1/1
f 39/1/1 34/1/1 37/1/1
f 40/1/1 38/1/1 35/1/1
f 41/1/1 34/1/1 39/1/1
f 42/1/1 34/1/1 41/1/1
f 43/1/1 40/1/1 35/1/1
f 44/1/1 40/1/1 43/1/1
f 49/3/1 46/3/1 45/3/1
f 50/3/1 46/3/1 49/3/1
f 51/3/1 48/3/1 47/3/1
f 52/3/1 48/3/1 51/3/1
f 53/3/1 49/3/1 45/3/1
f 54/1/1 50/1/1 49/1/1
f 54/3/1 49/3/1 53/3/1
f 55/3/1 48/3/1 52/3/1
f 55/1/1 52/1/1 51/1/1
f 56/3/1 48/3/1 55/3/1
f 57/1/1 50/1/1 54/1/1
f 58/1/1 55/1/1 51/1/1
f 59/1/1 50/1/1 57/1/1
f 60/3/1 46/3/1 50/3/1
f 60/1/1 50/1/1 59/1/1
f 61/3/1 46/3/1 60/3/1
f 62/3/1 51/3/1 47/3/1
f 63/1/1 58/1/1 51/1/1
f 63/3/1 51/3/1 62/3/1
f 64/1/1 58/1/1 63/1/1
f 69/3/1 66/3/1 65/3/1
f 70/3/1 66/3/1 69/3/1
f 71/3/1 68/3/1 67/3/1
f 72/3/1 68/3/1 71/3/1
f 73/1/1 70/1/1 69/1/1
f 74/1/1 70/1/1 73/1/1
f 77/1/1 72/1/1 71/1/1
f 78/1/1 72/1/1 77/1/1
f 79/3/1 74/3/1 73/3/1
f 80/3/1 74/3/1 79/3/1
f 81/3/1 76/3/1 75/3/1
f 82/3/1 76/3/1 81/3/1
f 83/3/1 78/3/1 77/3/1
f 84/3/1 78/3/1 83/3/1
f 85/1/1 80/1/1 79/1/1
f 86/1/1 80/1/1 85/1/1
f 87/1/1 82/1/1 81/1/1
f 88/1/1 82/1/1 87/1/1
f 89/1/1 84/1/1 83/1/1
f 90/1/1 84/1/1 89/1/1
f 91/3/2 92/3/2 95/3/2
f 95/3/2 92/3/2 96/3/2
f 93/3/2 94/3/2 97/3/2
f 97/3/2 94/3/2 98/3/2
f 95/1/2 96/1/2 99/1/2
f 99/1/2 96/1/2 100/1/2
f 97/1/2 98/1/2 103/1/2
f 103/1/2 98/1/2 104/1/2
f 99/3/2 100/3/2 105/3/2
f 105/3/2 100/3/2 106/3/2
f 101/3/2 102/3/2 107/3/2
f 107/3/2 102/3/2 108/3/2
f 103/3/2 104/3/2 109/3/2
f 109/3/2 104/3/2 110/3/2
f 105/1/2 106/1/2 111/1/2
f 111/1/2 106/1/2 112/1/2
f 107/1/2 108/1/2 113/1/2
f 113/1/2 108/1/2 114/1/2
f 109/1/2 110/1/2 115/1/2
f 115/1/2 110/1/2 116/1/2
f 117/3/2 118/3/2 121/3/2
f 121/3/2 118/3/2 122/3/2
f 119/3/2 120/3/2 123/3/2
f 123/3/2 120/3/2 124/3/2
f 117/3/2 121/3/2 125/3/2
f 121/1/2 122/1/2 126/1/2
f 125/3/2 121/3/2 126/3/2
f 124/3/2 120/3/2 127/3/2
f 123/1/2 124/1/2 127/1/2
f 127/3/2 120/3/2 128/3/2
f 126/1/2 122/1/2 129/1/2
f 123/1/2 127/1/2 130/1/2
f 129/1/2 122/1/2 131/1/2
f 122/3/2 118/3/2 132/3/2
f 131/1/2 122/1/2 132/1/2
f 132/3/2 118/3/2 133/3/2
f 119/3/2 123/3/2 134/3/2
f 123/1/2 130/1/2 135/1/2
f 134/3/2 123/3/2 135/3/2
f 135/1/2 130/1/2 136/1/2
f 137/3/2 138/3/2 141/3/2
f 141/3/2 138/3/2 142/3/2
f 139/3/2 140/3/2 143/3/2
f 143/3/2 140/3/2 144/3/2
f 141/1/2 142/1/2 145/1/2
f 143/1/2 144/1/2 146/1/2
f 145/1/2 142/1/2 147/1/2
f 143/1/2 146/1/2 148/1/2
f 147/1/2 142/1/2 149/1/2
f 149/1/2 142/1/2 150/1/2
f 143/1/2 148/1/2 151/1/2
f 151/1/2 148/1/2 152/1/2
f 153/3/2 154/3/2 157/3/2
f 157/3/2 154/3/2 158/3/2
f 155/3/2 156/3/2 159/3/2
f 159/3/2 156/3/2 160/3/2
f 153/3/2 157/3/2 161/3/2
f 157/1/2 158/1/2 161/1/2
f 158/3/2 154/3/2 162/3/2
f 161/1/2 158/1/2 162/1/2
f 162/3/2 154/3/2 163/3/2
f 155/3/2 159/3/2 164/3/2
f 159/1/2 160/1/2 165/1/2
f 164/3/2 159/3/2 165/3/2
f 160/3/2 156/3/2 166/3/2
f 165/1/2 160/1/2 166/1/2
f 153/3/2 161/3/2 167/3/2
f 164/3/2 165/3/2 167/3/2
f 165/3/2 166/3/2 167/3/2
f 163/3/2 164/3/2 167/3/2
f 161/3/2 162/3/2 167/3/2
f 162/3/2 163/3/2 167/3/2
f 167/3/2 166/3/2 168/3/2
f 168/3/2 166/3/2 169/3/2
f 169/3/2 166/3/2 170/3/2
f 170/3/2 166/3/2 171/3/2
f 166/3/2 156/3/2 172/3/2
f 171/3/2 166/3/2 172/3/2
f 153/3/2 167/3/2 173/3/2
f 167/1/2 168/1/2 173/1/2
f 168/3/2 169/3/2 174/3/2
f 173/1/2 168/1/2 174/1/2
f 169/1/2 170/1/2 175/1/2
f 174/3/2 169/3/2 175/3/2
f 170/3/2 171/3/2 176/3/2
f 175/1/2 170/1/2 176/1/2
f 171/1/2 172/1/2 177/1/2
f 176/3/2 171/3/2 177/3/2
f 172/3/2 156/3/2 178/3/2
f 177/1/2 172/1/2 178/1/2
f 174/3/2 175/3/2 179/3/2
f 176/3/2 177/3/2 179/3/2
f 177/3/2 178/3/2 179/3/2
f 173/3/2 174/3/2 179/3/2
f 153/3/2 173/3/2 179/3/2
f 175/3/2 176/3/2 179/3/2
f 178/3/2 156/3/2 180/3/2
f 179/3/2 178/3/2 180/3/2
f 183/3/3 182/3/3 181/3/3
f 184/3/3 182/3/3 183/3/3
f 185/3/3 182/3/3 184/3/3
f 186/3/3 182/3/3 185/3/3
f 187/3/3 183/3/3 181/3/3
f 187/1/3 184/1/3 183/1/3
f 188/3/3 185/3/3 184/3/3
f 188/1/3 184/1/3 187/1/3
f 189/1/3 186/1/3 185/1/3
f 189/3/3 185/3/3 188/3/3
f 190/3/3 182/3/3 186/3/3
f 190/1/3 186/1/3 189/1/3
f 191/3/3 189/3/3 188/3/3
f 191/3/3 188/3/3 187/3/3
f 191/3/3 190/3/3 189/3/3
f 191/3/3 187/3/3 181/3/3
f 192/3/3 190/3/3 191/3/3
f 193/3/3 190/3/3 192/3/3
f 194/3/3 182/3/3 190/3/3
f 194/3/3 190/3/3 193/3/3
f 196/3/3 193/3/3 192/3/3
f 197/1/3 194/1/3 193/1/3
f 197/3/3 193/3/3 196/3/3
f 198/3/3 182/3/3 194/3/3
f 198/1/3 194/1/3 197/1/3
f 199/3/3 196/3/3 195/3/3
f 199/3/3 197/3/3 196/3/3
f 199/3/3 198/3/3 197/3/3
f 200/3/3 198/3/3 199/3/3
f 201/3/3 198/3/3 200/3/3
f 202/3/3 182/3/3 198/3/3
f 202/3/3 198/3/3 201/3/3
f 203/3/3 199/3/3 195/3/3
f 203/1/3 200/1/3 199/1/3
f 204/3/3 201/3/3 200/3/3
f 204/1/3 200/1/3 203/1/3
f 205/1/3 202/1/3 201/1/3
f 205/3/3 201/3/3 204/3/3
f 206/3/3 182/3/3 202/3/3
f 206/1/3 202/1/3 205/1/3
f 207/3/3 203/3/3 195/3/3
f 207/3/3 205/3/3 204/3/3
f 207/3/3 206/3/3 205/3/3
f 207/3/3 204/3/3 203/3/3
f 208/3/3 182/3/3 206/3/3
f 208/3/3 206/3/3 207/3/3
f 214/3/3 210/3/3 209/3/3
f 215/1/3 213/1/3 212/1/3
f 215/3/3 210/3/3 214/3/3
f 215/1/3 211/1/3 210/1/3
f 215/1/3 212/1/3 211/1/3
f 216/1/3 213/1/3 215/1/3
f 220/3/3 218/3/3 217/3/3
f 221/1/3 219/1/3 218/1/3
f 221/3/3 218/3/3 220/3/3
f 222/1/3 219/1/3 221/1/3
f 223/1/3 219/1/3 222/1/3
f 224/1/3 219/1/3 223/1/3
f 227/3/3 226/3/3 225/3/3
f 228/3/3 226/3/3 227/3/3
f 231/3/3 227/3/3 225/3/3
f 231/1/3 230/1/3 229/1/3
f 231/1/3 229/1/3 228/1/3
f 231/1/3 228/1/3 227/1/3
f 232/1/3 230/1/3 231/1/3
f 233/3/3 231/3/3 225/3/3
f 233/3/3 232/3/3 231/3/3
f 234/3/3 232/3/3 233/3/3
f 237/3/3 236/3/3 235/3/3
f 238/3/3 236/3/3 237/3/3
f 239/3/3 237/3/3 235/3/3
f 239/1/3 238/1/3 237/1/3
f 240/1/3 238/1/3 239/1/3
f 241/1/3 238/1/3 240/1/3
f 242/1/3 238/1/3 241/1/3
f 243/3/3 239/3/3 235/3/3
f 243/3/3 240/3/3 239/3/3
f 244/3/3 240/3/3 243/3/3
f 250/3/3 246/3/3 245/3/3
f 251/1/3 247/1/3 246/1/3
f 251/3/3 246/3/3 250/3/3
f 252/3/3 248/3/3 247/3/3
f 252/1/3 247/1/3 251/1/3
f 253/1/3 249/1/3 248/1/3
f 253/3/3 248/3/3 252/3/3
f 254/1/3 249/1/3 253/1/3
f 258/3/3 256/3/3 255/3/3
f 259/1/3 257/1/3 256/1/3
f 259/3/3 256/3/3 258/3/3
f 260/1/3 257/1/3 259/1/3
f 266/3/3 262/3/3 261/3/3
f 267/1/3 263/1/3 262/1/3
f 267/3/3 262/3/3 266/3/3
f 268/3/3 264/3/3 263/3/3
f 268/1/3 263/1/3 267/1/3
f 269/1/3 265/1/3 264/1/3
f 269/3/3 264/3/3 268/3/3
f 270/1/3 265/1/3 269/1/3
f 271/3/4 272/3/4 276/3/4
f 272/1/4 273/1/4 277/1/4
f 276/3/4 272/3/4 277/3/4
f 273/3/4 274/3/4 278/3/4
f 277/1/4 273/1/4 278/1/4
f 274/1/4 275/1/4 279/1/4
f 278/3/4 274/3/4 279/3/4
f 279/1/4 275/1/4 280/1/4
f 281/3/4 282/3/4 284/3/4
f 282/1/4 283/1/4 285/1/4
f 284/3/4 282/3/4 285/3/4
f 285/1/4 283/1/4 286/1/4
f 287/3/4 288/3/4 292/3/4
f 288/1/4 289/1/4 293/1/4
f 292/3/4 288/3/4 293/3/4
f 289/3/4 290/3/4 294/3/4
f 293/1/4 289/1/4 294/1/4
f 290/1/4 291/1/4 295/1/4
f 294/3/4 290/3/4 295/3/4
f 295/1/4 291/1/4 296/1/4
f 297/3/4 298/3/4 299/3/4
f 299/3/4 298/3/4 300/3/4
f 297/3/4 299/3/4 303/3/4
f 301/1/4 302/1/4 303/1/4
f 300/1/4 301/1/4 303/1/4
f 299/1/4 300/1/4 303/1/4
f 303/1/4 302/1/4 304/1/4
f 297/3/4 303/3/4 305/3/4
f 303/3/4 304/3/4 305/3/4
f 305/3/4 304/3/4 306/3/4
f 307/3/4 308/3/4 309/3/4
f 309/3/4 308/3/4 310/3/4
f 307/3/4 309/3/4 311/3/4
f 309/1/4 310/1/4 311/1/4
f 311/1/4 310/1/4 312/1/4
f 312/1/4 310/1/4 313/1/4
f 313/1/4 310/1/4 314/1/4
f 307/3/4 311/3/4 315/3/4
f 311/3/4 312/3/4 315/3/4
f 315/3/4 312/3/4 316/3/4
f 317/3/4 318/3/4 322/3/4
f 320/1/4 321/1/4 323/1/4
f 322/3/4 318/3/4 323/3/4
f 318/1/4 319/1/4 323/1/4
f 319/1/4 320/1/4 323/1/4
f 323/1/4 321/1/4 324/1/4
f 325/3/4 326/3/4 328/3/4
f 326/1/4 327/1/4 329/1/4
f 328/3/4 326/3/4 329/3/4
f 329/1/4 327/1/4 330/1/4
f 330/1/4 327/1/4 331/1/4
f 331/1/4 327/1/4 332/1/4
f 333/3/4 334/3/4 335/3/4
f 335/3/4 334/3/4 336/3/4
f 336/3/4 334/3/4 337/3/4
f 337/3/4 334/3/4 338/3/4
f 333/3/4 335/3/4 339/3/4
f 335/1/4 336/1/4 339/1/4
f 336/3/4 337/3/4 340/3/4
f 339/1/4 336/1/4 340/1/4
f 337/1/4 338/1/4 341/1/4
f 340/3/4 337/3/4 341/3/4
f 338/3/4 334/3/4 342/3/4
f 341/1/4 338/1/4 342/1/4
f 340/3/4 341/3/4 343/3/4
f 339/3/4 340/3/4 343/3/4
f 341/3/4 342/3/4 343/3/4
f 333/3/4 339/3/4 343/3/4
f 343/3/4 342/3/4 344/3/4
f 344/3/4 342/3/4 345/3/4
f 342/3/4 334/3/4 346/3/4
f 345/3/4 342/3/4 346/3/4
f 344/3/4 345/3/4 348/3/4
f 345/1/4 346/1/4 349/1/4
f 348/3/4 345/3/4 349/3/4
f 346/3/4 334/3/4 350/3/4
f 349/1/4 346/1/4 350/1/4
f 347/3/4 348/3/4 351/3/4
f 348/3/4 349/3/4 351/3/4
f 349/3/4 350/3/4 351/3/4
f 351/3/4 350/3/4 352/3/4
f 352/3/4 350/3/4 353/3/4
f 350/3/4 334/3/4 354/3/4
f 353/3/4 350/3/4 354/3/4
f 347/3/4 351/3/4 355/3/4
f 351/1/4 352/1/4 355/1/4
f 352/3/4 353/3/4 356/3/4
f 355/1/4 352/1/4 356/1/4
f 353/1/4 354/1/4 357/1/4
f 356/3/4 353/3/4 357/3/4
f 354/3/4 334/3/4 358/3/4
f 357/1/4 354/1/4 358/1/4
f 347/3/4 355/3/4 359/3/4
f 356/3/4 357/3/4 359/3/4
f 357/3/4 358/3/4 359/3/4
f 355/3/4 356/3/4 359/3/4
f 358/3/4 334/3/4 360/3/4
f 359/3/4 358/3/4 360/3/4
f 365/3/5 362/3/5 361/3/5
f 366/3/5 362/3/5 365/3/5
f 367/3/5 364/3/5 363/3/5
f 368/3/5 364/3/5 367/3/5
f 369/3/5 365/3/5 361/3/5
f 370/3/5 362/3/5 366/3/5
f 371/3/5 367/3/5 363/3/5
f 372/3/5 364/3/5 368/3/5
f 373/3/5 369/3/5 361/3/5
f 373/3/5 370/3/5 369/3/5
f 374/3/5 362/3/5 370/3/5
f 374/3/5 370/3/5 373/3/5
f 375/3/5 372/3/5 371/3/5
f 375/3/5 371/3/5 363/3/5
f 376/3/5 364/3/5 372/3/5
f 376/3/5 372/3/5 375/3/5
f 381/3/5 378/3/5 377/3/5
f 382/3/5 378/3/5 381/3/5
f 383/3/5 380/3/5 379/3/5
f 384/3/5 380/3/5 383/3/5
f 385/3/5 381/3/5 377/3/5
f 386/3/5 378/3/5 382/3/5
f 387/3/5 383/3/5 379/3/5
f 388/3/5 380/3/5 384/3/5
f 389/3/5 385/3/5 377/3/5
f 389/3/5 386/3/5 385/3/5
f 390/3/5 378/3/5 386/3/5
f 390/3/5 386/3/5 389/3/5
f 391/3/5 388/3/5 387/3/5
f 391/3/5 387/3/5 379/3/5
f 392/3/5 380/3/5 388/3/5
f 392/3/5 388/3/5 391/3/5
f 395/3/5 394/3/5 393/3/5
f 396/3/5 394/3/5 395/3/5
f 401/3/5 398/3/5 397/3/5
f 402/3/5 398/3/5 401/3/5
f 403/3/5 400/3/5 399/3/5
f 404/3/5 400/3/5 403/3/5
f 407/3/5 406/3/5 405/3/5
f 408/3/5 406/3/5 407/3/5
f 415/1/5 410/1/5 409/1/5
f 416/1/5 410/1/5 415/1/5
f 417/1/5 412/1/5 411/1/5
f 418/1/5 412/1/5 417/1/5
f 419/1/5 414/1/5 413/1/5
f 420/1/5 414/1/5 419/1/5
f 423/2/5 418/2/5 417/2/5
f 424/2/5 418/2/5 423/2/5
f 427/1/5 422/1/5 421/1/5
f 428/2/5 423/2/5 422/2/5
f 428/1/5 422/1/5 427/1/5
f 429/1/5 424/1/5 423/1/5
f 429/2/5 423/2/5 428/2/5
f 430/2/5 425/2/5 424/2/5
f 430/1/5 424/1/5 429/1/5
f 431/1/5 426/1/5 425/1/5
f 431/2/5 425/2/5 430/2/5
f 432/1/5 426/1/5 431/1/5
f 435/2/5 430/2/5 429/2/5
f 436/2/5 430/2/5 435/2/5
f 439/1/5 434/1/5 433/1/5
f 440/1/5 434/1/5 439/1/5
f 441/1/5 436/1/5 435/1/5
f 442/1/5 436/1/5 441/1/5
f 443/1/5 438/1/5 437/1/5
f 444/1/5 438/1/5 443/1/5
f 445/3/6 446/3/6 447/3/6
f 447/3/6 446/3/6 448/3/6
f 447/1/6 448/1/6 449/1/6
f 449/1/6 448/1/6 450/1/6
f 449/2/6 450/2/6 451/2/6
f 451/2/6 450/2/6 452/2/6
f 449/2/6 451/2/6 453/2/6
f 451/1/6 452/1/6 453/1/6
f 452/2/6 450/2/6 454/2/6
f 453/1/6 452/1/6 454/1/6
f 447/1/6 449/1/6 455/1/6
f 449/2/6 453/2/6 455/2/6
f 453/2/6 454/2/6 455/2/6
f 454/2/6 450/2/6 456/2/6
f 455/2/6 454/2/6 456/2/6
f 450/1/6 448/1/6 456/1/6
f 445/3/6 447/3/6 457/3/6
f 447/1/6 455/1/6 457/1/6
f 455/1/6 456/1/6 457/1/6
f 456/1/6 448/1/6 458/1/6
f 457/1/6 456/1/6 458/1/6
f 448/3/6 446/3/6 458/3/6
f 445/3/6 457/3/6 459/3/6
f 457/3/6 458/3/6 459/3/6
f 458/3/6 446/3/6 460/3/6
f 459/3/6 458/3/6 460/3/6
