# MagicaVoxel @ Ephtracy

# group
o 

# material
mtllib ElevatorDoor.mtl
usemtl palette

# normals
vn -1 0 0
vn 1 0 0
vn 0 0 1
vn 0 0 -1
vn 0 -1 0
vn 0 1 0

# texcoords
vt 0.849609 0.5
vt 0.865234 0.5
vt 0.978516 0.5
vt 0.982422 0.5
vt 0.986328 0.5
vt 0.990234 0.5
vt 0.994141 0.5

# verts
v -0.2 0 1.6
v -0.2 0 1.3
v -0.2 0 -2.1
v -0.2 0 -2.4
v -0.2 0.1 1.2
v -0.2 0.1 -0.3
v -0.2 0.1 -0.5
v -0.2 0.1 -2
v -0.2 2.3 1.2
v -0.2 2.3 0.5
v -0.2 2.4 0.5
v -0.2 2.4 -0.3
v -0.2 2.5 -0.5
v -0.2 2.5 -1.3
v -0.2 2.6 -1.3
v -0.2 2.6 -2
v -0.2 4.6 1.2
v -0.2 4.6 -0.3
v -0.2 4.6 -0.5
v -0.2 4.6 -2
v -0.2 4.7 1.3
v -0.2 4.7 -2.1
v -0.2 5 1.6
v -0.2 5 -2.4
v 0.1 2 2.5
v 0.1 2 1.8
v 0.1 2.1 2.4
v 0.1 2.1 1.9
v 0.1 2.2 2.2
v 0.1 2.2 2.1
v 0.1 2.3 2.3
v 0.1 2.3 2.2
v 0.1 2.3 2.1
v 0.1 2.3 2
v 0.1 2.4 2.3
v 0.1 2.4 2
v 0.1 2.5 2.4
v 0.1 2.5 1.9
v 0.1 2.6 2.4
v 0.1 2.6 1.9
v 0.1 2.7 2.3
v 0.1 2.7 2
v 0.1 2.8 2.3
v 0.1 2.8 2.2
v 0.1 2.8 2.1
v 0.1 2.8 2
v 0.1 2.9 2.2
v 0.1 2.9 2.1
v 0.1 3 2.4
v 0.1 3 1.9
v 0.1 3.1 2.5
v 0.1 3.1 1.8
v -0.1 0 1.3
v -0.1 0 -2.1
v -0.1 0.1 1.2
v -0.1 0.1 -0.3
v -0.1 0.1 -0.5
v -0.1 0.1 -2
v -0.1 2.3 1.2
v -0.1 2.3 0.5
v -0.1 2.4 0.5
v -0.1 2.4 -0.3
v -0.1 2.5 -0.5
v -0.1 2.5 -1.3
v -0.1 2.6 -1.3
v -0.1 2.6 -2
v -0.1 4.6 1.2
v -0.1 4.6 -0.3
v -0.1 4.6 -0.5
v -0.1 4.6 -2
v -0.1 4.7 1.3
v -0.1 4.7 -2
v -0.1 4.7 -2.1
v 0.2 2 2.5
v 0.2 2 1.8
v 0.2 2.1 2.4
v 0.2 2.1 1.9
v 0.2 2.2 2.2
v 0.2 2.2 2.1
v 0.2 2.3 2.3
v 0.2 2.3 2.2
v 0.2 2.3 2.1
v 0.2 2.3 2
v 0.2 2.4 2.3
v 0.2 2.4 2
v 0.2 2.5 2.4
v 0.2 2.5 1.9
v 0.2 2.6 2.4
v 0.2 2.6 1.9
v 0.2 2.7 2.3
v 0.2 2.7 2
v 0.2 2.8 2.3
v 0.2 2.8 2.2
v 0.2 2.8 2.1
v 0.2 2.8 2
v 0.2 2.9 2.2
v 0.2 2.9 2.1
v 0.2 3 2.4
v 0.2 3 1.9
v 0.2 3.1 2.5
v 0.2 3.1 1.8
v 0.2 4.7 1.3
v 0.2 4.7 -2.1
v 0.2 4.8 1.3
v 0.2 4.8 -2
v 0.2 5 1.3
v 0.2 5 -2
v 0.2 5 -2.1
v 0.3 0 1.6
v 0.3 0 1.4
v 0.3 0 1.3
v 0.3 0 -2.1
v 0.3 0 -2.2
v 0.3 0 -2.4
v 0.3 5 1.6
v 0.3 5 1.4
v 0.3 5 1.3
v 0.3 5 -2.1
v 0.3 5 -2.2
v 0.3 5 -2.4
v 0.1 2 2.5
v 0.1 3.1 2.5
v 0.2 2 2.5
v 0.2 3.1 2.5
v -0.2 0 1.6
v -0.2 5 1.6
v -0.1 0 1.6
v -0.1 5 1.6
v 0.3 0 1.6
v 0.3 5 1.6
v -0.1 0 -2.1
v -0.1 4.7 -2.1
v 0.2 0 -2.1
v 0.2 4.7 -2.1
v 0.2 5 -2.1
v 0.3 0 -2.1
v 0.3 5 -2.1
v 0.1 2 1.8
v 0.1 3.1 1.8
v 0.2 2 1.8
v 0.2 3.1 1.8
v -0.1 0 1.3
v -0.1 4.7 1.3
v 0.1 4.7 1.3
v 0.2 0 1.3
v 0.2 4.7 1.3
v 0.2 4.8 1.3
v 0.2 5 1.3
v 0.3 0 1.3
v 0.3 5 1.3
v -0.2 0 -2.4
v -0.2 5 -2.4
v -0.1 0 -2.4
v -0.1 5 -2.4
v 0.3 0 -2.4
v 0.3 5 -2.4
v -0.2 0 1.6
v -0.1 0 1.6
v 0.3 0 1.6
v 0.2 0 1.4
v 0.3 0 1.4
v -0.2 0 1.3
v -0.1 0 1.3
v 0.2 0 1.3
v 0.3 0 1.3
v -0.2 0 -2.1
v -0.1 0 -2.1
v 0.2 0 -2.1
v 0.3 0 -2.1
v 0.2 0 -2.2
v 0.3 0 -2.2
v -0.2 0 -2.4
v -0.1 0 -2.4
v 0.3 0 -2.4
v 0.1 2 2.5
v 0.2 2 2.5
v 0.1 2 1.8
v 0.2 2 1.8
v -0.1 4.7 1.3
v 0.1 4.7 1.3
v 0.2 4.7 1.3
v -0.1 4.7 -2
v 0.1 4.7 -2
v -0.1 4.7 -2.1
v 0.2 4.7 -2.1
v 0.1 3.1 2.5
v 0.2 3.1 2.5
v 0.1 3.1 1.8
v 0.2 3.1 1.8
v -0.2 5 1.6
v -0.1 5 1.6
v 0.3 5 1.6
v -0.1 5 1.4
v 0.3 5 1.4
v -0.1 5 1.3
v 0.2 5 1.3
v 0.3 5 1.3
v -0.1 5 -2
v 0.2 5 -2
v -0.1 5 -2.1
v 0.2 5 -2.1
v 0.3 5 -2.1
v 0.2 5 -2.2
v 0.3 5 -2.2
v -0.2 5 -2.4
v -0.1 5 -2.4
v 0.3 5 -2.4

# faces
f 5/7/1 3/7/1 2/7/1
f 6/7/1 3/7/1 5/7/1
f 7/7/1 3/7/1 6/7/1
f 8/7/1 3/7/1 7/7/1
f 9/7/1 5/7/1 2/7/1
f 9/3/1 6/3/1 5/3/1
f 10/3/1 6/3/1 9/3/1
f 11/4/1 10/4/1 9/4/1
f 11/3/1 6/3/1 10/3/1
f 12/7/1 7/7/1 6/7/1
f 12/3/1 6/3/1 11/3/1
f 13/3/1 8/3/1 7/3/1
f 13/7/1 7/7/1 12/7/1
f 14/3/1 8/3/1 13/3/1
f 15/4/1 14/4/1 13/4/1
f 15/3/1 8/3/1 14/3/1
f 16/7/1 3/7/1 8/7/1
f 16/3/1 8/3/1 15/3/1
f 17/4/1 12/4/1 11/4/1
f 17/4/1 11/4/1 9/4/1
f 17/7/1 9/7/1 2/7/1
f 18/7/1 13/7/1 12/7/1
f 18/4/1 12/4/1 17/4/1
f 19/4/1 15/4/1 13/4/1
f 19/7/1 13/7/1 18/7/1
f 19/4/1 16/4/1 15/4/1
f 20/7/1 3/7/1 16/7/1
f 20/4/1 16/4/1 19/4/1
f 21/6/1 2/6/1 1/6/1
f 21/7/1 18/7/1 17/7/1
f 21/7/1 20/7/1 19/7/1
f 21/7/1 17/7/1 2/7/1
f 21/7/1 19/7/1 18/7/1
f 22/7/1 3/7/1 20/7/1
f 22/7/1 20/7/1 21/7/1
f 22/6/1 4/6/1 3/6/1
f 23/6/1 21/6/1 1/6/1
f 23/6/1 22/6/1 21/6/1
f 24/6/1 4/6/1 22/6/1
f 24/6/1 22/6/1 23/6/1
f 27/6/1 26/6/1 25/6/1
f 28/6/1 26/6/1 27/6/1
f 29/5/1 28/5/1 27/5/1
f 30/5/1 28/5/1 29/5/1
f 31/5/1 29/5/1 27/5/1
f 32/2/1 30/2/1 29/2/1
f 32/5/1 29/5/1 31/5/1
f 33/5/1 28/5/1 30/5/1
f 33/2/1 30/2/1 32/2/1
f 34/5/1 28/5/1 33/5/1
f 35/2/1 32/2/1 31/2/1
f 35/5/1 31/5/1 27/5/1
f 35/2/1 34/2/1 33/2/1
f 35/2/1 33/2/1 32/2/1
f 36/5/1 28/5/1 34/5/1
f 36/2/1 34/2/1 35/2/1
f 37/6/1 27/6/1 25/6/1
f 37/5/1 35/5/1 27/5/1
f 37/5/1 36/5/1 35/5/1
f 38/5/1 28/5/1 36/5/1
f 38/5/1 36/5/1 37/5/1
f 38/6/1 26/6/1 28/6/1
f 39/6/1 37/6/1 25/6/1
f 39/6/1 38/6/1 37/6/1
f 40/6/1 26/6/1 38/6/1
f 40/6/1 38/6/1 39/6/1
f 41/5/1 40/5/1 39/5/1
f 42/5/1 40/5/1 41/5/1
f 43/5/1 41/5/1 39/5/1
f 43/1/1 42/1/1 41/1/1
f 44/1/1 42/1/1 43/1/1
f 45/1/1 42/1/1 44/1/1
f 46/5/1 40/5/1 42/5/1
f 46/1/1 42/1/1 45/1/1
f 47/1/1 45/1/1 44/1/1
f 47/5/1 44/5/1 43/5/1
f 48/5/1 46/5/1 45/5/1
f 48/1/1 45/1/1 47/1/1
f 49/6/1 39/6/1 25/6/1
f 49/5/1 43/5/1 39/5/1
f 49/5/1 48/5/1 47/5/1
f 49/5/1 47/5/1 43/5/1
f 50/5/1 46/5/1 48/5/1
f 50/5/1 48/5/1 49/5/1
f 50/6/1 26/6/1 40/6/1
f 50/5/1 40/5/1 46/5/1
f 51/6/1 49/6/1 25/6/1
f 51/6/1 50/6/1 49/6/1
f 52/6/1 26/6/1 50/6/1
f 52/6/1 50/6/1 51/6/1
f 53/7/2 54/7/2 55/7/2
f 55/7/2 54/7/2 56/7/2
f 56/7/2 54/7/2 57/7/2
f 57/7/2 54/7/2 58/7/2
f 53/7/2 55/7/2 59/7/2
f 55/3/2 56/3/2 59/3/2
f 59/3/2 56/3/2 60/3/2
f 59/4/2 60/4/2 61/4/2
f 60/3/2 56/3/2 61/3/2
f 56/7/2 57/7/2 62/7/2
f 61/3/2 56/3/2 62/3/2
f 57/3/2 58/3/2 63/3/2
f 62/7/2 57/7/2 63/7/2
f 63/3/2 58/3/2 64/3/2
f 63/4/2 64/4/2 65/4/2
f 64/3/2 58/3/2 65/3/2
f 58/7/2 54/7/2 66/7/2
f 65/3/2 58/3/2 66/3/2
f 61/4/2 62/4/2 67/4/2
f 59/4/2 61/4/2 67/4/2
f 53/7/2 59/7/2 67/7/2
f 62/7/2 63/7/2 68/7/2
f 67/4/2 62/4/2 68/4/2
f 63/4/2 65/4/2 69/4/2
f 68/7/2 63/7/2 69/7/2
f 65/4/2 66/4/2 69/4/2
f 66/7/2 54/7/2 70/7/2
f 69/4/2 66/4/2 70/4/2
f 67/7/2 68/7/2 71/7/2
f 68/7/2 69/7/2 71/7/2
f 69/7/2 70/7/2 71/7/2
f 53/7/2 67/7/2 71/7/2
f 70/7/2 54/7/2 72/7/2
f 71/7/2 70/7/2 72/7/2
f 72/7/2 54/7/2 73/7/2
f 74/6/2 75/6/2 76/6/2
f 76/6/2 75/6/2 77/6/2
f 76/5/2 77/5/2 78/5/2
f 78/5/2 77/5/2 79/5/2
f 76/5/2 78/5/2 80/5/2
f 78/2/2 79/2/2 81/2/2
f 80/5/2 78/5/2 81/5/2
f 79/5/2 77/5/2 82/5/2
f 81/2/2 79/2/2 82/2/2
f 82/5/2 77/5/2 83/5/2
f 80/2/2 81/2/2 84/2/2
f 76/5/2 80/5/2 84/5/2
f 82/2/2 83/2/2 84/2/2
f 81/2/2 82/2/2 84/2/2
f 83/5/2 77/5/2 85/5/2
f 84/2/2 83/2/2 85/2/2
f 74/6/2 76/6/2 86/6/2
f 76/5/2 84/5/2 86/5/2
f 84/5/2 85/5/2 86/5/2
f 85/5/2 77/5/2 87/5/2
f 86/5/2 85/5/2 87/5/2
f 77/6/2 75/6/2 87/6/2
f 74/6/2 86/6/2 88/6/2
f 86/6/2 87/6/2 88/6/2
f 87/6/2 75/6/2 89/6/2
f 88/6/2 87/6/2 89/6/2
f 88/5/2 89/5/2 90/5/2
f 90/5/2 89/5/2 91/5/2
f 88/5/2 90/5/2 92/5/2
f 90/1/2 91/1/2 92/1/2
f 92/1/2 91/1/2 93/1/2
f 93/1/2 91/1/2 94/1/2
f 91/5/2 89/5/2 95/5/2
f 94/1/2 91/1/2 95/1/2
f 93/1/2 94/1/2 96/1/2
f 92/5/2 93/5/2 96/5/2
f 94/5/2 95/5/2 97/5/2
f 96/1/2 94/1/2 97/1/2
f 74/6/2 88/6/2 98/6/2
f 88/5/2 92/5/2 98/5/2
f 96/5/2 97/5/2 98/5/2
f 92/5/2 96/5/2 98/5/2
f 97/5/2 95/5/2 99/5/2
f 98/5/2 97/5/2 99/5/2
f 89/6/2 75/6/2 99/6/2
f 95/5/2 89/5/2 99/5/2
f 74/6/2 98/6/2 100/6/2
f 98/6/2 99/6/2 100/6/2
f 99/6/2 75/6/2 101/6/2
f 100/6/2 99/6/2 101/6/2
f 102/6/2 103/6/2 104/6/2
f 104/6/2 103/6/2 105/6/2
f 104/5/2 105/5/2 106/5/2
f 105/6/2 103/6/2 107/6/2
f 106/5/2 105/5/2 107/5/2
f 107/6/2 103/6/2 108/6/2
f 109/5/2 110/5/2 115/5/2
f 110/6/2 111/6/2 116/6/2
f 115/5/2 110/5/2 116/5/2
f 116/6/2 111/6/2 117/6/2
f 112/6/2 113/6/2 118/6/2
f 113/5/2 114/5/2 119/5/2
f 118/6/2 113/6/2 119/6/2
f 119/5/2 114/5/2 120/5/2
f 123/6/3 122/6/3 121/6/3
f 124/6/3 122/6/3 123/6/3
f 127/6/3 126/6/3 125/6/3
f 128/6/3 126/6/3 127/6/3
f 129/5/3 128/5/3 127/5/3
f 130/5/3 128/5/3 129/5/3
f 133/5/3 132/5/3 131/5/3
f 134/5/3 132/5/3 133/5/3
f 136/6/3 134/6/3 133/6/3
f 136/6/3 135/6/3 134/6/3
f 137/6/3 135/6/3 136/6/3
f 138/6/4 139/6/4 140/6/4
f 140/6/4 139/6/4 141/6/4
f 142/5/4 143/5/4 144/5/4
f 142/5/4 144/5/4 145/5/4
f 145/5/4 144/5/4 146/5/4
f 145/6/4 146/6/4 149/6/4
f 147/6/4 148/6/4 149/6/4
f 146/6/4 147/6/4 149/6/4
f 149/6/4 148/6/4 150/6/4
f 151/6/4 152/6/4 153/6/4
f 153/6/4 152/6/4 154/6/4
f 153/5/4 154/5/4 155/5/4
f 155/5/4 154/5/4 156/5/4
f 160/5/5 159/5/5 158/5/5
f 161/5/5 159/5/5 160/5/5
f 162/6/5 158/6/5 157/6/5
f 163/5/5 160/5/5 158/5/5
f 163/6/5 158/6/5 162/6/5
f 164/6/5 161/6/5 160/6/5
f 164/5/5 160/5/5 163/5/5
f 165/6/5 161/6/5 164/6/5
f 166/7/5 163/7/5 162/7/5
f 167/7/5 163/7/5 166/7/5
f 170/5/5 168/5/5 167/5/5
f 170/6/5 169/6/5 168/6/5
f 171/6/5 169/6/5 170/6/5
f 172/6/5 167/6/5 166/6/5
f 173/5/5 170/5/5 167/5/5
f 173/6/5 167/6/5 172/6/5
f 173/5/5 171/5/5 170/5/5
f 174/5/5 171/5/5 173/5/5
f 177/6/5 176/6/5 175/6/5
f 178/6/5 176/6/5 177/6/5
f 182/5/5 180/5/5 179/5/5
f 183/6/5 181/6/5 180/6/5
f 183/5/5 180/5/5 182/5/5
f 184/6/5 183/6/5 182/6/5
f 185/6/5 181/6/5 183/6/5
f 185/6/5 183/6/5 184/6/5
f 186/6/6 187/6/6 188/6/6
f 188/6/6 187/6/6 189/6/6
f 190/6/6 191/6/6 193/6/6
f 191/5/6 192/5/6 193/5/6
f 193/5/6 192/5/6 194/5/6
f 190/6/6 193/6/6 195/6/6
f 193/6/6 194/6/6 195/6/6
f 195/6/6 194/6/6 196/6/6
f 196/6/6 194/6/6 197/6/6
f 190/6/6 195/6/6 198/6/6
f 195/5/6 196/5/6 198/5/6
f 198/5/6 196/5/6 199/5/6
f 190/6/6 198/6/6 200/6/6
f 198/6/6 199/6/6 200/6/6
f 200/6/6 199/6/6 201/6/6
f 200/5/6 201/5/6 203/5/6
f 201/6/6 202/6/6 203/6/6
f 203/6/6 202/6/6 204/6/6
f 190/6/6 200/6/6 205/6/6
f 200/5/6 203/5/6 206/5/6
f 205/6/6 200/6/6 206/6/6
f 203/5/6 204/5/6 206/5/6
f 206/5/6 204/5/6 207/5/6
