# MagicaVoxel @ Ephtracy

# group
o 

# material
mtllib WideMirror.mtl
usemtl palette

# normals
vn -1 0 0
vn 1 0 0
vn 0 0 1
vn 0 0 -1
vn 0 -1 0
vn 0 1 0

# texcoords
vt 0.705078 0.5
vt 0.732422 0.5
vt 0.970703 0.5

# verts
v -2 0 0
v -2 0 -0.1
v -2 2 0
v -2 2 -0.1
v -1.9 0.1 0.1
v -1.9 0.1 0
v -1.9 1.9 0.1
v -1.9 1.9 0
v 1.8 0.2 0.1
v 1.8 0.2 0
v 1.8 1.8 0.1
v 1.8 1.8 0
v -1.8 0.2 0.1
v -1.8 0.2 0
v -1.8 0.3 0
v -1.8 1.8 0.1
v -1.8 1.8 0
v 1.9 0.1 0.1
v 1.9 0.1 0
v 1.9 1.9 0.1
v 1.9 1.9 0
v 2 0 0
v 2 0 -0.1
v 2 2 0
v 2 2 -0.1
v -1.9 0.1 0.1
v -1.9 1.9 0.1
v -1.8 0.2 0.1
v -1.8 1.8 0.1
v 1.8 0.2 0.1
v 1.8 1.8 0.1
v 1.9 0.1 0.1
v 1.9 1.9 0.1
v -2 0 0
v -2 2 0
v -1.9 0.1 0
v -1.9 1.9 0
v -1.8 0.2 0
v -1.8 0.3 0
v -1.8 1.8 0
v -1.7 0.3 0
v -1.7 0.4 0
v -1.6 0.4 0
v -1.6 0.5 0
v -1.5 0.5 0
v -1.5 0.6 0
v -1.4 0.2 0
v -1.4 0.3 0
v -1.4 0.6 0
v -1.4 0.7 0
v -1.3 0.3 0
v -1.3 0.4 0
v -1.3 0.7 0
v -1.3 0.8 0
v -1.2 0.4 0
v -1.2 0.6 0
v -1.2 0.8 0
v -1.2 0.9 0
v -1.1 0.6 0
v -1.1 0.7 0
v -1.1 0.9 0
v -1.1 1 0
v -1 1 0
v -1 1.1 0
v -0.9 0.7 0
v -0.9 0.8 0
v -0.9 1.1 0
v -0.9 1.3 0
v -0.8 0.8 0
v -0.8 0.9 0
v -0.8 1.3 0
v -0.8 1.4 0
v -0.7 0.2 0
v -0.7 0.3 0
v -0.7 0.9 0
v -0.7 1 0
v -0.7 1.4 0
v -0.7 1.5 0
v -0.6 0.3 0
v -0.6 0.4 0
v -0.6 1 0
v -0.6 1.2 0
v -0.6 1.5 0
v -0.6 1.6 0
v -0.5 0.4 0
v -0.5 0.5 0
v -0.5 1.2 0
v -0.5 1.3 0
v -0.5 1.6 0
v -0.5 1.7 0
v -0.4 0.5 0
v -0.4 0.6 0
v -0.4 1.3 0
v -0.4 1.4 0
v -0.4 1.7 0
v -0.4 1.8 0
v -0.3 1.4 0
v -0.3 1.5 0
v -0.2 0.6 0
v -0.2 0.7 0
v -0.2 1.5 0
v -0.2 1.6 0
v -0.0999999 0.7 0
v -0.0999999 0.8 0
v -0.0999999 1.6 0
v -0.0999999 1.7 0
v 2.38419e-007 0.2 0
v 2.38419e-007 0.3 0
v 2.38419e-007 0.8 0
v 2.38419e-007 0.9 0
v 2.38419e-007 1.7 0
v 2.38419e-007 1.8 0
v 0.1 0.3 0
v 0.1 0.4 0
v 0.1 0.9 0
v 0.1 1 0
v 0.2 0.4 0
v 0.2 0.5 0
v 0.2 1 0
v 0.2 1.1 0
v 0.3 0.5 0
v 0.3 0.6 0
v 0.4 0.6 0
v 0.4 0.7 0
v 0.4 1.1 0
v 0.4 1.2 0
v 0.5 0.7 0
v 0.5 0.8 0
v 0.5 1.2 0
v 0.5 1.3 0
v 0.6 0.8 0
v 0.6 0.9 0
v 0.6 1.3 0
v 0.6 1.4 0
v 0.7 1.4 0
v 0.7 1.5 0
v 0.8 0.9 0
v 0.8 1 0
v 0.8 1.5 0
v 0.8 1.6 0
v 0.9 1 0
v 0.9 1.1 0
v 0.9 1.6 0
v 0.9 1.7 0
v 1 1.1 0
v 1 1.2 0
v 1 1.7 0
v 1 1.8 0
v 1.1 1.2 0
v 1.1 1.3 0
v 1.2 1.3 0
v 1.2 1.4 0
v 1.3 1.4 0
v 1.3 1.5 0
v 1.4 1.5 0
v 1.4 1.7 0
v 1.5 1.7 0
v 1.5 1.8 0
v 1.8 0.2 0
v 1.8 1.8 0
v 1.9 0.1 0
v 1.9 1.9 0
v 2 0 0
v 2 2 0
v -2 0 -0.1
v -2 2 -0.1
v -1.8 0.2 -0.1
v -1.8 0.3 -0.1
v -1.8 1.8 -0.1
v -1.7 0.3 -0.1
v -1.7 0.4 -0.1
v -1.6 0.4 -0.1
v -1.6 0.5 -0.1
v -1.5 0.5 -0.1
v -1.5 0.6 -0.1
v -1.4 0.2 -0.1
v -1.4 0.3 -0.1
v -1.4 0.6 -0.1
v -1.4 0.7 -0.1
v -1.3 0.3 -0.1
v -1.3 0.4 -0.1
v -1.3 0.7 -0.1
v -1.3 0.8 -0.1
v -1.2 0.4 -0.1
v -1.2 0.6 -0.1
v -1.2 0.8 -0.1
v -1.2 0.9 -0.1
v -1.1 0.6 -0.1
v -1.1 0.7 -0.1
v -1.1 0.9 -0.1
v -1.1 1 -0.1
v -1 1 -0.1
v -1 1.1 -0.1
v -0.9 0.7 -0.1
v -0.9 0.8 -0.1
v -0.9 1.1 -0.1
v -0.9 1.3 -0.1
v -0.8 0.8 -0.1
v -0.8 0.9 -0.1
v -0.8 1.3 -0.1
v -0.8 1.4 -0.1
v -0.7 0.2 -0.1
v -0.7 0.3 -0.1
v -0.7 0.9 -0.1
v -0.7 1 -0.1
v -0.7 1.4 -0.1
v -0.7 1.5 -0.1
v -0.6 0.3 -0.1
v -0.6 0.4 -0.1
v -0.6 1 -0.1
v -0.6 1.2 -0.1
v -0.6 1.5 -0.1
v -0.6 1.6 -0.1
v -0.5 0.4 -0.1
v -0.5 0.5 -0.1
v -0.5 1.2 -0.1
v -0.5 1.3 -0.1
v -0.5 1.6 -0.1
v -0.5 1.7 -0.1
v -0.4 0.5 -0.1
v -0.4 0.6 -0.1
v -0.4 1.3 -0.1
v -0.4 1.4 -0.1
v -0.4 1.7 -0.1
v -0.4 1.8 -0.1
v -0.3 1.4 -0.1
v -0.3 1.5 -0.1
v -0.2 0.6 -0.1
v -0.2 0.7 -0.1
v -0.2 1.5 -0.1
v -0.2 1.6 -0.1
v -0.0999999 0.7 -0.1
v -0.0999999 0.8 -0.1
v -0.0999999 1.6 -0.1
v -0.0999999 1.7 -0.1
v 2.38419e-007 0.2 -0.1
v 2.38419e-007 0.3 -0.1
v 2.38419e-007 0.8 -0.1
v 2.38419e-007 0.9 -0.1
v 2.38419e-007 1.7 -0.1
v 2.38419e-007 1.8 -0.1
v 0.1 0.3 -0.1
v 0.1 0.4 -0.1
v 0.1 0.9 -0.1
v 0.1 1 -0.1
v 0.2 0.4 -0.1
v 0.2 0.5 -0.1
v 0.2 1 -0.1
v 0.2 1.1 -0.1
v 0.3 0.5 -0.1
v 0.3 0.6 -0.1
v 0.4 0.6 -0.1
v 0.4 0.7 -0.1
v 0.4 1.1 -0.1
v 0.4 1.2 -0.1
v 0.5 0.7 -0.1
v 0.5 0.8 -0.1
v 0.5 1.2 -0.1
v 0.5 1.3 -0.1
v 0.6 0.8 -0.1
v 0.6 0.9 -0.1
v 0.6 1.3 -0.1
v 0.6 1.4 -0.1
v 0.7 1.4 -0.1
v 0.7 1.5 -0.1
v 0.8 0.9 -0.1
v 0.8 1 -0.1
v 0.8 1.5 -0.1
v 0.8 1.6 -0.1
v 0.9 1 -0.1
v 0.9 1.1 -0.1
v 0.9 1.6 -0.1
v 0.9 1.7 -0.1
v 1 1.1 -0.1
v 1 1.2 -0.1
v 1 1.7 -0.1
v 1 1.8 -0.1
v 1.1 1.2 -0.1
v 1.1 1.3 -0.1
v 1.2 1.3 -0.1
v 1.2 1.4 -0.1
v 1.3 1.4 -0.1
v 1.3 1.5 -0.1
v 1.4 1.5 -0.1
v 1.4 1.7 -0.1
v 1.5 1.7 -0.1
v 1.5 1.8 -0.1
v 1.8 0.2 -0.1
v 1.8 1.8 -0.1
v 2 0 -0.1
v 2 2 -0.1
v -2 0 0
v 2 0 0
v -2 0 -0.1
v 2 0 -0.1
v -1.9 0.1 0.1
v 1.9 0.1 0.1
v -1.9 0.1 0
v 1.9 0.1 0
v -1.8 1.8 0.1
v 1.8 1.8 0.1
v -1.8 1.8 0
v -0.4 1.8 0
v 2.38419e-007 1.8 0
v 1 1.8 0
v 1.5 1.8 0
v 1.8 1.8 0
v -1.8 0.2 0.1
v 1.8 0.2 0.1
v -1.8 0.2 0
v -1.4 0.2 0
v -0.7 0.2 0
v 2.38419e-007 0.2 0
v 1.8 0.2 0
v -1.9 1.9 0.1
v 1.9 1.9 0.1
v -1.9 1.9 0
v 1.9 1.9 0
v -2 2 0
v 2 2 0
v -2 2 -0.1
v 2 2 -0.1

# faces
f 3/3/1 2/3/1 1/3/1
f 4/3/1 2/3/1 3/3/1
f 7/3/1 6/3/1 5/3/1
f 8/3/1 6/3/1 7/3/1
f 11/3/1 10/3/1 9/3/1
f 12/3/1 10/3/1 11/3/1
f 13/3/2 14/3/2 15/3/2
f 13/3/2 15/3/2 16/3/2
f 16/3/2 15/3/2 17/3/2
f 18/3/2 19/3/2 20/3/2
f 20/3/2 19/3/2 21/3/2
f 22/3/2 23/3/2 24/3/2
f 24/3/2 23/3/2 25/3/2
f 28/3/3 27/3/3 26/3/3
f 29/3/3 27/3/3 28/3/3
f 30/3/3 28/3/3 26/3/3
f 31/3/3 27/3/3 29/3/3
f 32/3/3 30/3/3 26/3/3
f 32/3/3 31/3/3 30/3/3
f 33/3/3 27/3/3 31/3/3
f 33/3/3 31/3/3 32/3/3
f 36/3/3 35/3/3 34/3/3
f 37/3/3 35/3/3 36/3/3
f 41/1/3 39/1/3 38/1/3
f 41/2/3 40/2/3 39/2/3
f 42/2/3 40/2/3 41/2/3
f 43/1/3 42/1/3 41/1/3
f 43/2/3 40/2/3 42/2/3
f 44/2/3 40/2/3 43/2/3
f 45/1/3 44/1/3 43/1/3
f 45/2/3 40/2/3 44/2/3
f 46/2/3 40/2/3 45/2/3
f 47/1/3 41/1/3 38/1/3
f 47/1/3 43/1/3 41/1/3
f 47/1/3 46/1/3 45/1/3
f 47/1/3 45/1/3 43/1/3
f 48/1/3 46/1/3 47/1/3
f 49/2/3 40/2/3 46/2/3
f 49/1/3 46/1/3 48/1/3
f 50/2/3 40/2/3 49/2/3
f 51/2/3 48/2/3 47/2/3
f 51/1/3 49/1/3 48/1/3
f 51/1/3 50/1/3 49/1/3
f 52/1/3 50/1/3 51/1/3
f 53/2/3 40/2/3 50/2/3
f 53/1/3 50/1/3 52/1/3
f 54/2/3 40/2/3 53/2/3
f 55/2/3 52/2/3 51/2/3
f 55/1/3 53/1/3 52/1/3
f 55/1/3 54/1/3 53/1/3
f 56/1/3 54/1/3 55/1/3
f 57/2/3 40/2/3 54/2/3
f 57/1/3 54/1/3 56/1/3
f 58/2/3 40/2/3 57/2/3
f 59/2/3 56/2/3 55/2/3
f 59/1/3 57/1/3 56/1/3
f 59/1/3 58/1/3 57/1/3
f 60/1/3 58/1/3 59/1/3
f 61/2/3 40/2/3 58/2/3
f 61/1/3 58/1/3 60/1/3
f 62/2/3 40/2/3 61/2/3
f 63/1/3 61/1/3 60/1/3
f 63/2/3 40/2/3 62/2/3
f 63/1/3 62/1/3 61/1/3
f 64/2/3 40/2/3 63/2/3
f 65/2/3 60/2/3 59/2/3
f 65/1/3 63/1/3 60/1/3
f 65/1/3 64/1/3 63/1/3
f 66/1/3 64/1/3 65/1/3
f 67/2/3 40/2/3 64/2/3
f 67/1/3 64/1/3 66/1/3
f 68/2/3 40/2/3 67/2/3
f 69/2/3 66/2/3 65/2/3
f 69/1/3 67/1/3 66/1/3
f 69/1/3 68/1/3 67/1/3
f 70/1/3 68/1/3 69/1/3
f 71/2/3 40/2/3 68/2/3
f 71/1/3 68/1/3 70/1/3
f 72/2/3 40/2/3 71/2/3
f 73/2/3 70/2/3 69/2/3
f 73/2/3 51/2/3 47/2/3
f 73/2/3 55/2/3 51/2/3
f 73/2/3 59/2/3 55/2/3
f 73/2/3 69/2/3 65/2/3
f 73/2/3 65/2/3 59/2/3
f 74/2/3 70/2/3 73/2/3
f 75/1/3 72/1/3 71/1/3
f 75/2/3 70/2/3 74/2/3
f 75/1/3 71/1/3 70/1/3
f 76/1/3 72/1/3 75/1/3
f 77/2/3 40/2/3 72/2/3
f 77/1/3 72/1/3 76/1/3
f 78/2/3 40/2/3 77/2/3
f 79/2/3 76/2/3 75/2/3
f 79/1/3 74/1/3 73/1/3
f 79/2/3 75/2/3 74/2/3
f 80/2/3 76/2/3 79/2/3
f 81/1/3 78/1/3 77/1/3
f 81/2/3 76/2/3 80/2/3
f 81/1/3 77/1/3 76/1/3
f 82/1/3 78/1/3 81/1/3
f 83/2/3 40/2/3 78/2/3
f 83/1/3 78/1/3 82/1/3
f 84/2/3 40/2/3 83/2/3
f 85/2/3 82/2/3 81/2/3
f 85/1/3 80/1/3 79/1/3
f 85/2/3 81/2/3 80/2/3
f 86/2/3 82/2/3 85/2/3
f 87/1/3 84/1/3 83/1/3
f 87/2/3 82/2/3 86/2/3
f 87/1/3 83/1/3 82/1/3
f 88/1/3 84/1/3 87/1/3
f 89/2/3 40/2/3 84/2/3
f 89/1/3 84/1/3 88/1/3
f 90/2/3 40/2/3 89/2/3
f 91/2/3 88/2/3 87/2/3
f 91/1/3 86/1/3 85/1/3
f 91/2/3 87/2/3 86/2/3
f 92/2/3 88/2/3 91/2/3
f 93/1/3 90/1/3 89/1/3
f 93/2/3 88/2/3 92/2/3
f 93/1/3 89/1/3 88/1/3
f 94/1/3 90/1/3 93/1/3
f 95/2/3 40/2/3 90/2/3
f 95/1/3 90/1/3 94/1/3
f 96/2/3 40/2/3 95/2/3
f 97/2/3 94/2/3 93/2/3
f 97/2/3 93/2/3 92/2/3
f 97/1/3 96/1/3 95/1/3
f 97/1/3 95/1/3 94/1/3
f 98/1/3 96/1/3 97/1/3
f 99/1/3 92/1/3 91/1/3
f 99/2/3 97/2/3 92/2/3
f 99/2/3 98/2/3 97/2/3
f 100/2/3 98/2/3 99/2/3
f 101/1/3 96/1/3 98/1/3
f 101/2/3 98/2/3 100/2/3
f 102/1/3 96/1/3 101/1/3
f 103/1/3 100/1/3 99/1/3
f 103/2/3 101/2/3 100/2/3
f 103/2/3 102/2/3 101/2/3
f 104/2/3 102/2/3 103/2/3
f 105/1/3 96/1/3 102/1/3
f 105/2/3 102/2/3 104/2/3
f 106/1/3 96/1/3 105/1/3
f 107/1/3 104/1/3 103/1/3
f 107/1/3 79/1/3 73/1/3
f 107/1/3 85/1/3 79/1/3
f 107/1/3 91/1/3 85/1/3
f 107/1/3 103/1/3 99/1/3
f 107/1/3 99/1/3 91/1/3
f 108/1/3 104/1/3 107/1/3
f 109/2/3 106/2/3 105/2/3
f 109/1/3 104/1/3 108/1/3
f 109/2/3 105/2/3 104/2/3
f 110/2/3 106/2/3 109/2/3
f 111/1/3 96/1/3 106/1/3
f 111/2/3 106/2/3 110/2/3
f 112/1/3 96/1/3 111/1/3
f 113/1/3 110/1/3 109/1/3
f 113/2/3 108/2/3 107/2/3
f 113/1/3 109/1/3 108/1/3
f 114/1/3 110/1/3 113/1/3
f 115/2/3 112/2/3 111/2/3
f 115/1/3 110/1/3 114/1/3
f 115/2/3 111/2/3 110/2/3
f 116/2/3 112/2/3 115/2/3
f 117/2/3 114/2/3 113/2/3
f 117/1/3 115/1/3 114/1/3
f 117/1/3 116/1/3 115/1/3
f 118/1/3 116/1/3 117/1/3
f 119/2/3 112/2/3 116/2/3
f 119/1/3 116/1/3 118/1/3
f 120/2/3 112/2/3 119/2/3
f 121/2/3 118/2/3 117/2/3
f 121/1/3 119/1/3 118/1/3
f 121/1/3 120/1/3 119/1/3
f 122/1/3 120/1/3 121/1/3
f 123/2/3 122/2/3 121/2/3
f 123/1/3 120/1/3 122/1/3
f 124/1/3 120/1/3 123/1/3
f 125/2/3 112/2/3 120/2/3
f 125/1/3 120/1/3 124/1/3
f 126/2/3 112/2/3 125/2/3
f 127/2/3 124/2/3 123/2/3
f 127/1/3 125/1/3 124/1/3
f 127/1/3 126/1/3 125/1/3
f 128/1/3 126/1/3 127/1/3
f 129/2/3 112/2/3 126/2/3
f 129/1/3 126/1/3 128/1/3
f 130/2/3 112/2/3 129/2/3
f 131/2/3 128/2/3 127/2/3
f 131/1/3 129/1/3 128/1/3
f 131/1/3 130/1/3 129/1/3
f 132/1/3 130/1/3 131/1/3
f 133/2/3 112/2/3 130/2/3
f 133/1/3 130/1/3 132/1/3
f 134/2/3 112/2/3 133/2/3
f 135/1/3 133/1/3 132/1/3
f 135/2/3 112/2/3 134/2/3
f 135/1/3 134/1/3 133/1/3
f 136/2/3 112/2/3 135/2/3
f 137/2/3 132/2/3 131/2/3
f 137/1/3 135/1/3 132/1/3
f 137/1/3 136/1/3 135/1/3
f 138/1/3 136/1/3 137/1/3
f 139/2/3 112/2/3 136/2/3
f 139/1/3 136/1/3 138/1/3
f 140/2/3 112/2/3 139/2/3
f 141/2/3 138/2/3 137/2/3
f 141/1/3 139/1/3 138/1/3
f 141/1/3 140/1/3 139/1/3
f 142/1/3 140/1/3 141/1/3
f 143/2/3 112/2/3 140/2/3
f 143/1/3 140/1/3 142/1/3
f 144/2/3 112/2/3 143/2/3
f 145/2/3 142/2/3 141/2/3
f 145/1/3 143/1/3 142/1/3
f 145/1/3 144/1/3 143/1/3
f 146/1/3 144/1/3 145/1/3
f 147/2/3 112/2/3 144/2/3
f 147/1/3 144/1/3 146/1/3
f 148/2/3 112/2/3 147/2/3
f 149/2/3 146/2/3 145/2/3
f 149/1/3 147/1/3 146/1/3
f 149/1/3 148/1/3 147/1/3
f 150/1/3 148/1/3 149/1/3
f 151/2/3 150/2/3 149/2/3
f 151/1/3 148/1/3 150/1/3
f 152/1/3 148/1/3 151/1/3
f 153/2/3 152/2/3 151/2/3
f 153/1/3 148/1/3 152/1/3
f 154/1/3 148/1/3 153/1/3
f 155/2/3 154/2/3 153/2/3
f 155/1/3 148/1/3 154/1/3
f 156/1/3 148/1/3 155/1/3
f 157/2/3 156/2/3 155/2/3
f 157/1/3 148/1/3 156/1/3
f 158/1/3 148/1/3 157/1/3
f 159/2/3 113/2/3 107/2/3
f 159/2/3 117/2/3 113/2/3
f 159/2/3 158/2/3 157/2/3
f 159/2/3 157/2/3 155/2/3
f 159/2/3 155/2/3 153/2/3
f 159/2/3 153/2/3 151/2/3
f 159/2/3 151/2/3 149/2/3
f 159/2/3 149/2/3 145/2/3
f 159/2/3 145/2/3 141/2/3
f 159/2/3 141/2/3 137/2/3
f 159/2/3 137/2/3 131/2/3
f 159/2/3 131/2/3 127/2/3
f 159/2/3 127/2/3 123/2/3
f 159/2/3 123/2/3 121/2/3
f 159/2/3 121/2/3 117/2/3
f 160/2/3 158/2/3 159/2/3
f 161/3/3 36/3/3 34/3/3
f 162/3/3 35/3/3 37/3/3
f 163/3/3 161/3/3 34/3/3
f 163/3/3 162/3/3 161/3/3
f 164/3/3 35/3/3 162/3/3
f 164/3/3 162/3/3 163/3/3
f 165/3/4 166/3/4 167/3/4
f 167/3/4 166/3/4 168/3/4
f 168/3/4 166/3/4 169/3/4
f 167/1/4 168/1/4 170/1/4
f 168/2/4 169/2/4 170/2/4
f 170/2/4 169/2/4 171/2/4
f 170/1/4 171/1/4 172/1/4
f 171/2/4 169/2/4 172/2/4
f 172/2/4 169/2/4 173/2/4
f 172/1/4 173/1/4 174/1/4
f 173/2/4 169/2/4 174/2/4
f 174/2/4 169/2/4 175/2/4
f 165/3/4 167/3/4 176/3/4
f 167/1/4 170/1/4 176/1/4
f 174/1/4 175/1/4 176/1/4
f 172/1/4 174/1/4 176/1/4
f 170/1/4 172/1/4 176/1/4
f 176/1/4 175/1/4 177/1/4
f 175/2/4 169/2/4 178/2/4
f 177/1/4 175/1/4 178/1/4
f 178/2/4 169/2/4 179/2/4
f 176/2/4 177/2/4 180/2/4
f 177/1/4 178/1/4 180/1/4
f 178/1/4 179/1/4 180/1/4
f 180/1/4 179/1/4 181/1/4
f 179/2/4 169/2/4 182/2/4
f 181/1/4 179/1/4 182/1/4
f 182/2/4 169/2/4 183/2/4
f 180/2/4 181/2/4 184/2/4
f 181/1/4 182/1/4 184/1/4
f 182/1/4 183/1/4 184/1/4
f 184/1/4 183/1/4 185/1/4
f 183/2/4 169/2/4 186/2/4
f 185/1/4 183/1/4 186/1/4
f 186/2/4 169/2/4 187/2/4
f 184/2/4 185/2/4 188/2/4
f 185/1/4 186/1/4 188/1/4
f 186/1/4 187/1/4 188/1/4
f 188/1/4 187/1/4 189/1/4
f 187/2/4 169/2/4 190/2/4
f 189/1/4 187/1/4 190/1/4
f 190/2/4 169/2/4 191/2/4
f 189/1/4 190/1/4 192/1/4
f 191/2/4 169/2/4 192/2/4
f 190/1/4 191/1/4 192/1/4
f 192/2/4 169/2/4 193/2/4
f 188/2/4 189/2/4 194/2/4
f 189/1/4 192/1/4 194/1/4
f 192/1/4 193/1/4 194/1/4
f 194/1/4 193/1/4 195/1/4
f 193/2/4 169/2/4 196/2/4
f 195/1/4 193/1/4 196/1/4
f 196/2/4 169/2/4 197/2/4
f 194/2/4 195/2/4 198/2/4
f 195/1/4 196/1/4 198/1/4
f 196/1/4 197/1/4 198/1/4
f 198/1/4 197/1/4 199/1/4
f 197/2/4 169/2/4 200/2/4
f 199/1/4 197/1/4 200/1/4
f 200/2/4 169/2/4 201/2/4
f 198/2/4 199/2/4 202/2/4
f 165/3/4 176/3/4 202/3/4
f 176/2/4 180/2/4 202/2/4
f 180/2/4 184/2/4 202/2/4
f 194/2/4 198/2/4 202/2/4
f 188/2/4 194/2/4 202/2/4
f 184/2/4 188/2/4 202/2/4
f 202/2/4 199/2/4 203/2/4
f 200/1/4 201/1/4 204/1/4
f 203/2/4 199/2/4 204/2/4
f 199/1/4 200/1/4 204/1/4
f 204/1/4 201/1/4 205/1/4
f 201/2/4 169/2/4 206/2/4
f 205/1/4 201/1/4 206/1/4
f 206/2/4 169/2/4 207/2/4
f 204/2/4 205/2/4 208/2/4
f 202/1/4 203/1/4 208/1/4
f 203/2/4 204/2/4 208/2/4
f 208/2/4 205/2/4 209/2/4
f 206/1/4 207/1/4 210/1/4
f 209/2/4 205/2/4 210/2/4
f 205/1/4 206/1/4 210/1/4
f 210/1/4 207/1/4 211/1/4
f 207/2/4 169/2/4 212/2/4
f 211/1/4 207/1/4 212/1/4
f 212/2/4 169/2/4 213/2/4
f 210/2/4 211/2/4 214/2/4
f 208/1/4 209/1/4 214/1/4
f 209/2/4 210/2/4 214/2/4
f 214/2/4 211/2/4 215/2/4
f 212/1/4 213/1/4 216/1/4
f 215/2/4 211/2/4 216/2/4
f 211/1/4 212/1/4 216/1/4
f 216/1/4 213/1/4 217/1/4
f 213/2/4 169/2/4 218/2/4
f 217/1/4 213/1/4 218/1/4
f 218/2/4 169/2/4 219/2/4
f 216/2/4 217/2/4 220/2/4
f 214/1/4 215/1/4 220/1/4
f 215/2/4 216/2/4 220/2/4
f 220/2/4 217/2/4 221/2/4
f 218/1/4 219/1/4 222/1/4
f 221/2/4 217/2/4 222/2/4
f 217/1/4 218/1/4 222/1/4
f 222/1/4 219/1/4 223/1/4
f 219/2/4 169/2/4 224/2/4
f 223/1/4 219/1/4 224/1/4
f 169/3/4 166/3/4 225/3/4
f 224/2/4 169/2/4 225/2/4
f 222/2/4 223/2/4 226/2/4
f 223/1/4 224/1/4 226/1/4
f 224/1/4 225/1/4 226/1/4
f 221/2/4 222/2/4 226/2/4
f 226/1/4 225/1/4 227/1/4
f 220/1/4 221/1/4 228/1/4
f 221/2/4 226/2/4 228/2/4
f 226/2/4 227/2/4 228/2/4
f 228/2/4 227/2/4 229/2/4
f 227/1/4 225/1/4 230/1/4
f 229/2/4 227/2/4 230/2/4
f 230/1/4 225/1/4 231/1/4
f 228/1/4 229/1/4 232/1/4
f 229/2/4 230/2/4 232/2/4
f 230/2/4 231/2/4 232/2/4
f 232/2/4 231/2/4 233/2/4
f 231/1/4 225/1/4 234/1/4
f 233/2/4 231/2/4 234/2/4
f 234/1/4 225/1/4 235/1/4
f 214/1/4 220/1/4 236/1/4
f 232/1/4 233/1/4 236/1/4
f 165/3/4 202/3/4 236/3/4
f 202/1/4 208/1/4 236/1/4
f 228/1/4 232/1/4 236/1/4
f 220/1/4 228/1/4 236/1/4
f 208/1/4 214/1/4 236/1/4
f 236/1/4 233/1/4 237/1/4
f 234/2/4 235/2/4 238/2/4
f 237/1/4 233/1/4 238/1/4
f 233/2/4 234/2/4 238/2/4
f 238/2/4 235/2/4 239/2/4
f 235/1/4 225/1/4 240/1/4
f 239/2/4 235/2/4 240/2/4
f 225/3/4 166/3/4 241/3/4
f 240/1/4 225/1/4 241/1/4
f 238/1/4 239/1/4 242/1/4
f 236/2/4 237/2/4 242/2/4
f 237/1/4 238/1/4 242/1/4
f 242/1/4 239/1/4 243/1/4
f 239/2/4 240/2/4 244/2/4
f 243/1/4 239/1/4 244/1/4
f 240/2/4 241/2/4 244/2/4
f 244/2/4 241/2/4 245/2/4
f 242/2/4 243/2/4 246/2/4
f 243/1/4 244/1/4 246/1/4
f 244/1/4 245/1/4 246/1/4
f 246/1/4 245/1/4 247/1/4
f 245/2/4 241/2/4 248/2/4
f 247/1/4 245/1/4 248/1/4
f 248/2/4 241/2/4 249/2/4
f 246/2/4 247/2/4 250/2/4
f 247/1/4 248/1/4 250/1/4
f 248/1/4 249/1/4 250/1/4
f 250/1/4 249/1/4 251/1/4
f 250/2/4 251/2/4 252/2/4
f 251/1/4 249/1/4 252/1/4
f 252/1/4 249/1/4 253/1/4
f 249/2/4 241/2/4 254/2/4
f 253/1/4 249/1/4 254/1/4
f 254/2/4 241/2/4 255/2/4
f 252/2/4 253/2/4 256/2/4
f 253/1/4 254/1/4 256/1/4
f 254/1/4 255/1/4 256/1/4
f 256/1/4 255/1/4 257/1/4
f 255/2/4 241/2/4 258/2/4
f 257/1/4 255/1/4 258/1/4
f 258/2/4 241/2/4 259/2/4
f 256/2/4 257/2/4 260/2/4
f 257/1/4 258/1/4 260/1/4
f 258/1/4 259/1/4 260/1/4
f 260/1/4 259/1/4 261/1/4
f 259/2/4 241/2/4 262/2/4
f 261/1/4 259/1/4 262/1/4
f 262/2/4 241/2/4 263/2/4
f 261/1/4 262/1/4 264/1/4
f 263/2/4 241/2/4 264/2/4
f 262/1/4 263/1/4 264/1/4
f 264/2/4 241/2/4 265/2/4
f 260/2/4 261/2/4 266/2/4
f 261/1/4 264/1/4 266/1/4
f 264/1/4 265/1/4 266/1/4
f 266/1/4 265/1/4 267/1/4
f 265/2/4 241/2/4 268/2/4
f 267/1/4 265/1/4 268/1/4
f 268/2/4 241/2/4 269/2/4
f 266/2/4 267/2/4 270/2/4
f 267/1/4 268/1/4 270/1/4
f 268/1/4 269/1/4 270/1/4
f 270/1/4 269/1/4 271/1/4
f 269/2/4 241/2/4 272/2/4
f 271/1/4 269/1/4 272/1/4
f 272/2/4 241/2/4 273/2/4
f 270/2/4 271/2/4 274/2/4
f 271/1/4 272/1/4 274/1/4
f 272/1/4 273/1/4 274/1/4
f 274/1/4 273/1/4 275/1/4
f 273/2/4 241/2/4 276/2/4
f 275/1/4 273/1/4 276/1/4
f 241/3/4 166/3/4 277/3/4
f 276/2/4 241/2/4 277/2/4
f 274/2/4 275/2/4 278/2/4
f 275/1/4 276/1/4 278/1/4
f 276/1/4 277/1/4 278/1/4
f 278/1/4 277/1/4 279/1/4
f 278/2/4 279/2/4 280/2/4
f 279/1/4 277/1/4 280/1/4
f 280/1/4 277/1/4 281/1/4
f 280/2/4 281/2/4 282/2/4
f 281/1/4 277/1/4 282/1/4
f 282/1/4 277/1/4 283/1/4
f 282/2/4 283/2/4 284/2/4
f 283/1/4 277/1/4 284/1/4
f 284/1/4 277/1/4 285/1/4
f 284/2/4 285/2/4 286/2/4
f 285/1/4 277/1/4 286/1/4
f 277/3/4 166/3/4 287/3/4
f 286/1/4 277/1/4 287/1/4
f 284/2/4 286/2/4 288/2/4
f 270/2/4 274/2/4 288/2/4
f 286/2/4 287/2/4 288/2/4
f 282/2/4 284/2/4 288/2/4
f 280/2/4 282/2/4 288/2/4
f 278/2/4 280/2/4 288/2/4
f 274/2/4 278/2/4 288/2/4
f 266/2/4 270/2/4 288/2/4
f 260/2/4 266/2/4 288/2/4
f 256/2/4 260/2/4 288/2/4
f 252/2/4 256/2/4 288/2/4
f 250/2/4 252/2/4 288/2/4
f 246/2/4 250/2/4 288/2/4
f 242/2/4 246/2/4 288/2/4
f 165/3/4 236/3/4 288/3/4
f 236/2/4 242/2/4 288/2/4
f 287/3/4 166/3/4 289/3/4
f 288/2/4 287/2/4 289/2/4
f 165/3/4 288/3/4 290/3/4
f 288/3/4 289/3/4 290/3/4
f 289/3/4 166/3/4 291/3/4
f 290/3/4 289/3/4 291/3/4
f 294/3/5 293/3/5 292/3/5
f 295/3/5 293/3/5 294/3/5
f 298/3/5 297/3/5 296/3/5
f 299/3/5 297/3/5 298/3/5
f 302/3/5 301/3/5 300/3/5
f 303/3/5 301/3/5 302/3/5
f 304/3/5 301/3/5 303/3/5
f 305/3/5 301/3/5 304/3/5
f 306/3/5 301/3/5 305/3/5
f 307/3/5 301/3/5 306/3/5
f 308/3/6 309/3/6 310/3/6
f 310/3/6 309/3/6 311/3/6
f 311/3/6 309/3/6 312/3/6
f 312/3/6 309/3/6 313/3/6
f 313/3/6 309/3/6 314/3/6
f 315/3/6 316/3/6 317/3/6
f 317/3/6 316/3/6 318/3/6
f 319/3/6 320/3/6 321/3/6
f 321/3/6 320/3/6 322/3/6
