# Blender v2.79 (sub 0) OBJ File: ''
# www.blender.org
mtllib KitchenFridge.mtl
o KitchenFridge
v -0.987098 0.112915 1.017358
v -0.987098 0.012916 -1.082642
v -0.987098 0.012916 1.117358
v -0.987098 0.112916 -0.982642
v -0.987098 4.912916 1.017359
v -0.987098 4.912916 -0.982641
v -0.987098 5.012916 1.117359
v -0.987098 5.012916 -1.082641
v 0.912902 0.112915 1.017358
v 0.912902 0.012916 -0.982642
v 0.912902 0.012916 1.017358
v 0.912902 0.112916 -0.982642
v 0.912902 0.212916 0.917358
v 0.912902 0.212916 -0.882642
v 0.912902 4.712915 0.917359
v 0.912902 4.812916 0.817359
v 0.912902 4.712915 0.817359
v 0.912902 4.812916 -0.882641
v 0.912902 4.912916 1.017359
v 0.912902 4.912916 -0.982641
v 1.012902 0.312916 0.817358
v 1.012902 0.212916 -0.882642
v 1.012902 0.212916 0.917358
v 1.012902 0.312916 0.617358
v 1.012902 0.312916 -0.382642
v 1.012902 0.312916 -0.482642
v 1.012902 0.312916 -0.582642
v 1.012902 0.312916 -0.782642
v 1.012902 0.412916 0.717358
v 1.012902 0.412916 0.617358
v 1.012902 0.412916 -0.382642
v 1.012902 0.412916 -0.482642
v 1.012902 0.412916 -0.582642
v 1.012902 0.412916 -0.682642
v 1.012902 0.512916 -0.682642
v 1.012902 0.512916 -0.782642
v 1.012902 0.612916 0.817358
v 1.012902 0.612916 0.717358
v 1.012902 4.512916 0.817359
v 1.012902 4.512916 0.717359
v 1.012902 4.612916 0.717359
v 1.012902 4.612916 0.617359
v 1.012902 4.612916 0.517359
v 1.012902 4.612916 0.417359
v 1.012902 4.612916 -0.682641
v 1.012902 4.612916 -0.782641
v 1.012902 4.712915 0.917359
v 1.012902 4.712915 0.817359
v 1.012902 4.712915 0.617359
v 1.012902 4.712915 0.517359
v 1.012902 4.712915 0.417359
v 1.012902 4.712915 -0.682641
v 1.012902 4.712915 -0.782641
v 1.012902 4.812916 0.817359
v 1.012902 4.812916 -0.882641
v -0.887098 0.012916 1.017358
v -0.887098 0.012916 -0.982642
v -0.887098 0.112915 1.017358
v -0.887098 0.112916 -0.982642
v -0.887098 4.912916 1.017359
v -0.887098 4.912916 -0.982641
v 1.012902 0.012916 1.117358
v 1.012902 0.012916 -1.082642
v 1.012902 0.112915 1.017358
v 1.012902 0.112916 -0.982642
v 1.012902 0.212916 0.917358
v 1.012902 0.212916 -0.882642
v 1.012902 4.812916 0.917359
v 1.012902 4.812916 -0.882641
v 1.012902 4.912916 1.017359
v 1.012902 4.912916 -0.982641
v 1.012902 5.012916 1.117359
v 1.012902 5.012916 -1.082641
v 1.112902 0.212916 0.917358
v 1.112902 0.212916 -0.882642
v 1.112902 0.312916 0.817358
v 1.112902 0.312916 0.617358
v 1.112902 0.312916 -0.382642
v 1.112902 0.312916 -0.482642
v 1.112902 0.312916 -0.582642
v 1.112902 0.312916 -0.782642
v 1.112902 0.412916 0.717358
v 1.112902 0.412916 0.617358
v 1.112902 0.412916 -0.382642
v 1.112902 0.412916 -0.482642
v 1.112902 0.412916 -0.582642
v 1.112902 0.412916 -0.682642
v 1.112902 0.512916 -0.682642
v 1.112902 0.512916 -0.782642
v 1.112902 0.612916 0.817358
v 1.112902 0.612916 0.717358
v 1.112902 2.712916 0.717358
v 1.112902 2.712916 0.617358
v 1.112902 2.712916 0.417358
v 1.112902 2.712916 0.317358
v 1.112902 2.812916 0.617359
v 1.112902 2.812916 0.417358
v 1.112902 2.912916 0.717359
v 1.112902 2.912916 0.317358
v 1.112902 4.512916 0.817359
v 1.112902 2.912916 0.417359
v 1.112902 2.912916 0.617359
v 1.112902 4.512916 0.717359
v 1.112902 4.612916 0.717359
v 1.112902 4.612916 0.617359
v 1.112902 4.612916 0.517359
v 1.112902 4.612916 0.417359
v 1.112902 4.612916 -0.682641
v 1.112902 4.612916 -0.782641
v 1.112902 4.712915 0.817359
v 1.112902 4.712915 0.617359
v 1.112902 4.712915 0.517359
v 1.112902 4.712915 0.417359
v 1.112902 4.712915 -0.682641
v 1.112902 4.712915 -0.782641
v 1.112902 4.812916 0.917359
v 1.112902 4.812916 -0.882641
v 1.212902 2.712916 0.717358
v 1.212902 2.712916 0.617358
v 1.212902 2.812916 0.617359
v 1.212902 2.712916 0.417358
v 1.212902 2.712916 0.317358
v 1.212902 2.812916 0.417358
v 1.212902 2.912916 0.717359
v 1.212902 2.912916 0.617359
v 1.212902 2.912916 0.417359
v 1.212902 2.912916 0.317358
v -0.887098 0.112915 1.117358
v -0.987098 5.012916 1.117359
v -0.987098 0.012916 1.117358
v -0.887098 4.912916 1.117359
v 0.912902 0.112915 1.117358
v 0.912902 4.912916 1.117359
v 1.012902 0.012916 1.117358
v 1.012902 5.012916 1.117359
v 1.112902 0.212916 0.917358
v 1.012902 4.812916 0.917359
v 1.012902 0.212916 0.917358
v 1.112902 4.812916 0.917359
v 1.212902 2.712916 0.717358
v 1.112902 2.912916 0.717359
v 1.112902 2.712916 0.717358
v 1.212902 2.912916 0.717359
v 1.212902 2.712916 0.417358
v 1.112902 2.812916 0.417358
v 1.112902 2.712916 0.417358
v 1.212902 2.812916 0.417358
v 1.012902 0.212916 -0.882642
v 0.912902 4.812916 -0.882641
v 0.912902 0.212916 -0.882642
v 1.012902 4.812916 -0.882641
v 0.912902 0.012916 -0.982642
v -0.887098 0.112916 -0.982642
v -0.887098 0.012916 -0.982642
v 0.912902 0.112916 -0.982642
v -0.887098 4.912916 -0.982641
v 0.912902 4.912916 -0.982641
v -0.887098 0.012916 1.017358
v -0.887098 0.112915 1.017358
v 0.912902 0.012916 1.017358
v -0.887098 4.912916 1.017359
v 0.912902 0.112915 1.017358
v 0.912902 4.912916 1.017359
v 0.912902 0.212916 0.917358
v 0.912902 4.712915 0.917359
v 1.012902 0.212916 0.917358
v 1.012902 4.712915 0.917359
v 0.912902 4.712915 0.817359
v 0.912902 4.812916 0.817359
v 1.012902 4.712915 0.817359
v 1.012902 4.812916 0.817359
v 1.112902 2.712916 0.617358
v 1.112902 2.812916 0.617359
v 1.212902 2.712916 0.617358
v 1.212902 2.812916 0.617359
v 1.112902 2.712916 0.317358
v 1.112902 2.912916 0.317358
v 1.212902 2.712916 0.317358
v 1.212902 2.912916 0.317358
v 1.012902 0.212916 -0.882642
v 1.012902 4.812916 -0.882641
v 1.112902 0.212916 -0.882642
v 1.112902 4.812916 -0.882641
v -0.987098 0.012916 -1.082642
v -0.987098 5.012916 -1.082641
v -0.887098 0.112916 -1.082642
v -0.887098 4.912916 -1.082641
v 0.912902 0.112916 -1.082642
v 0.912902 4.912916 -1.082641
v 1.012902 0.012916 -1.082642
v 1.012902 5.012916 -1.082641
v -0.887098 0.012916 1.017358
v 1.012902 0.012916 1.117358
v -0.987098 0.012916 1.117358
v 0.912902 0.012916 1.017358
v -0.887098 0.012916 -0.982642
v 0.912902 0.012916 -0.982642
v -0.987098 0.012916 -1.082642
v 1.012902 0.012916 -1.082642
v 1.012902 0.212916 -0.882642
v 1.112902 0.212916 0.917358
v 1.012902 0.212916 0.917358
v 1.112902 0.212916 -0.882642
v 1.112902 2.712916 0.617358
v 1.212902 2.712916 0.717358
v 1.112902 2.712916 0.717358
v 1.212902 2.712916 0.617358
v 1.112902 2.712916 0.317358
v 1.212902 2.712916 0.417358
v 1.112902 2.712916 0.417358
v 1.212902 2.712916 0.317358
v 1.112902 2.812916 0.417358
v 1.212902 2.812916 0.617359
v 1.112902 2.812916 0.617359
v 1.212902 2.812916 0.417358
v 0.912902 4.712915 0.817359
v 1.012902 4.712915 0.917359
v 0.912902 4.712915 0.917359
v 1.012902 4.712915 0.817359
v 0.912902 4.812916 -0.882641
v 1.012902 4.812916 0.817359
v 0.912902 4.812916 0.817359
v 1.012902 4.812916 -0.882641
v -0.887098 4.912916 -0.982641
v 0.912902 4.912916 1.017359
v -0.887098 4.912916 1.017359
v 0.912902 4.912916 -0.982641
v 0.912902 0.212916 0.917358
v 1.012902 0.212916 0.917358
v 0.912902 0.212916 -0.882642
v 1.012902 0.212916 -0.882642
v 1.112902 2.912916 0.717359
v 1.212902 2.912916 0.717359
v 1.112902 2.912916 0.617359
v 1.212902 2.912916 0.617359
v 1.112902 2.912916 0.417359
v 1.212902 2.912916 0.417359
v 1.112902 2.912916 0.317358
v 1.212902 2.912916 0.317358
v 1.012902 4.812916 0.917359
v 1.112902 4.812916 0.917359
v 1.012902 4.812916 -0.882641
v 1.112902 4.812916 -0.882641
v -0.987098 5.012916 1.117359
v 1.012902 5.012916 1.117359
v -0.887098 5.012916 1.017359
v 0.912902 5.012916 1.017359
v -0.887098 5.012916 -0.982641
v 0.912902 5.012916 -0.982641
v -0.987098 5.012916 -1.082641
v 1.012902 5.012916 -1.082641
vt 0.994141 0.500000
vt 0.994141 0.500000
vt 0.994141 0.500000
vt 0.994141 0.500000
vt 0.994141 0.500000
vt 0.970703 0.500000
vt 0.970703 0.500000
vt 0.970703 0.500000
vt 0.994141 0.500000
vt 0.970703 0.500000
vt 0.994141 0.500000
vt 0.994141 0.500000
vt 0.994141 0.500000
vt 0.994141 0.500000
vt 0.994141 0.500000
vt 0.994141 0.500000
vt 0.970703 0.500000
vt 0.970703 0.500000
vt 0.970703 0.500000
vt 0.970703 0.500000
vt 0.970703 0.500000
vt 0.970703 0.500000
vt 0.970703 0.500000
vt 0.970703 0.500000
vt 0.970703 0.500000
vt 0.970703 0.500000
vt 0.994141 0.500000
vt 0.994141 0.500000
vt 0.994141 0.500000
vt 0.994141 0.500000
vt 0.994141 0.500000
vt 0.994141 0.500000
vt 0.994141 0.500000
vt 0.994141 0.500000
vt 0.974609 0.500000
vt 0.974609 0.500000
vt 0.974609 0.500000
vt 0.970703 0.500000
vt 0.970703 0.500000
vt 0.970703 0.500000
vt 0.974609 0.500000
vt 0.978516 0.500000
vt 0.978516 0.500000
vt 0.978516 0.500000
vt 0.970703 0.500000
vt 0.970703 0.500000
vt 0.970703 0.500000
vt 0.970703 0.500000
vt 0.978516 0.500000
vt 0.978516 0.500000
vt 0.978516 0.500000
vt 0.978516 0.500000
vt 0.970703 0.500000
vt 0.978516 0.500000
vt 0.970703 0.500000
vt 0.970703 0.500000
vt 0.978516 0.500000
vt 0.970703 0.500000
vt 0.994141 0.500000
vt 0.978516 0.500000
vt 0.994141 0.500000
vt 0.974609 0.500000
vt 0.970703 0.500000
vt 0.974609 0.500000
vt 0.970703 0.500000
vt 0.994141 0.500000
vt 0.970703 0.500000
vt 0.970703 0.500000
vt 0.970703 0.500000
vt 0.974609 0.500000
vt 0.974609 0.500000
vt 0.974609 0.500000
vt 0.970703 0.500000
vt 0.970703 0.500000
vt 0.970703 0.500000
vt 0.970703 0.500000
vt 0.970703 0.500000
vt 0.994141 0.500000
vt 0.970703 0.500000
vt 0.994141 0.500000
vt 0.974609 0.500000
vt 0.994141 0.500000
vt 0.974609 0.500000
vt 0.970703 0.500000
vt 0.974609 0.500000
vt 0.974609 0.500000
vt 0.974609 0.500000
vt 0.974609 0.500000
vt 0.970703 0.500000
vt 0.970703 0.500000
vt 0.974609 0.500000
vt 0.978516 0.500000
vt 0.978516 0.500000
vt 0.978516 0.500000
vt 0.970703 0.500000
vt 0.994141 0.500000
vt 0.978516 0.500000
vt 0.994141 0.500000
vt 0.994141 0.500000
vt 0.994141 0.500000
vt 0.994141 0.500000
vt 0.994141 0.500000
vt 0.994141 0.500000
vt 0.994141 0.500000
vt 0.994141 0.500000
vt 0.994141 0.500000
vt 0.994141 0.500000
vt 0.970703 0.500000
vt 0.970703 0.500000
vt 0.970703 0.500000
vt 0.970703 0.500000
vt 0.994141 0.500000
vt 0.994141 0.500000
vt 0.994141 0.500000
vt 0.994141 0.500000
vt 0.970703 0.500000
vt 0.970703 0.500000
vt 0.970703 0.500000
vt 0.970703 0.500000
vt 0.970703 0.500000
vt 0.970703 0.500000
vt 0.994141 0.500000
vt 0.970703 0.500000
vt 0.970703 0.500000
vt 0.994141 0.500000
vt 0.994141 0.500000
vt 0.994141 0.500000
vt 0.994141 0.500000
vt 0.994141 0.500000
vt 0.994141 0.500000
vt 0.994141 0.500000
vt 0.994141 0.500000
vt 0.994141 0.500000
vt 0.994141 0.500000
vt 0.994141 0.500000
vt 0.974609 0.500000
vt 0.974609 0.500000
vt 0.974609 0.500000
vt 0.970703 0.500000
vt 0.970703 0.500000
vt 0.970703 0.500000
vt 0.974609 0.500000
vt 0.978516 0.500000
vt 0.978516 0.500000
vt 0.978516 0.500000
vt 0.970703 0.500000
vt 0.970703 0.500000
vt 0.970703 0.500000
vt 0.970703 0.500000
vt 0.978516 0.500000
vt 0.978516 0.500000
vt 0.978516 0.500000
vt 0.978516 0.500000
vt 0.970703 0.500000
vt 0.978516 0.500000
vt 0.970703 0.500000
vt 0.970703 0.500000
vt 0.978516 0.500000
vt 0.970703 0.500000
vt 0.994141 0.500000
vt 0.978516 0.500000
vt 0.994141 0.500000
vt 0.974609 0.500000
vt 0.970703 0.500000
vt 0.974609 0.500000
vt 0.970703 0.500000
vt 0.970703 0.500000
vt 0.970703 0.500000
vt 0.970703 0.500000
vt 0.970703 0.500000
vt 0.970703 0.500000
vt 0.970703 0.500000
vt 0.970703 0.500000
vt 0.970703 0.500000
vt 0.970703 0.500000
vt 0.994141 0.500000
vt 0.970703 0.500000
vt 0.970703 0.500000
vt 0.970703 0.500000
vt 0.970703 0.500000
vt 0.974609 0.500000
vt 0.974609 0.500000
vt 0.974609 0.500000
vt 0.970703 0.500000
vt 0.970703 0.500000
vt 0.970703 0.500000
vt 0.970703 0.500000
vt 0.970703 0.500000
vt 0.994141 0.500000
vt 0.970703 0.500000
vt 0.994141 0.500000
vt 0.974609 0.500000
vt 0.974609 0.500000
vt 0.970703 0.500000
vt 0.974609 0.500000
vt 0.974609 0.500000
vt 0.974609 0.500000
vt 0.974609 0.500000
vt 0.970703 0.500000
vt 0.970703 0.500000
vt 0.974609 0.500000
vt 0.978516 0.500000
vt 0.978516 0.500000
vt 0.978516 0.500000
vt 0.970703 0.500000
vt 0.994141 0.500000
vt 0.978516 0.500000
vt 0.994141 0.500000
vt 0.994141 0.500000
vt 0.994141 0.500000
vt 0.994141 0.500000
vt 0.994141 0.500000
vt 0.994141 0.500000
vt 0.994141 0.500000
vt 0.994141 0.500000
vt 0.994141 0.500000
vt 0.994141 0.500000
vt 0.994141 0.500000
vt 0.994141 0.500000
vt 0.994141 0.500000
vt 0.978516 0.500000
vt 0.978516 0.500000
vt 0.978516 0.500000
vt 0.994141 0.500000
vt 0.994141 0.500000
vt 0.978516 0.500000
vt 0.994141 0.500000
vt 0.994141 0.500000
vt 0.994141 0.500000
vt 0.994141 0.500000
vt 0.994141 0.500000
vt 0.994141 0.500000
vt 0.970703 0.500000
vt 0.970703 0.500000
vt 0.970703 0.500000
vt 0.994141 0.500000
vt 0.970703 0.500000
vt 0.994141 0.500000
vt 0.994141 0.500000
vt 0.994141 0.500000
vt 0.994141 0.500000
vt 0.994141 0.500000
vt 0.994141 0.500000
vt 0.994141 0.500000
vt 0.994141 0.500000
vt 0.994141 0.500000
vt 0.994141 0.500000
vt 0.994141 0.500000
vt 0.994141 0.500000
vt 0.994141 0.500000
vt 0.994141 0.500000
vt 0.970703 0.500000
vt 0.970703 0.500000
vt 0.970703 0.500000
vt 0.970703 0.500000
vt 0.994141 0.500000
vt 0.994141 0.500000
vt 0.994141 0.500000
vt 0.970703 0.500000
vt 0.970703 0.500000
vt 0.970703 0.500000
vt 0.994141 0.500000
vt 0.970703 0.500000
vt 0.994141 0.500000
vt 0.994141 0.500000
vt 0.994141 0.500000
vt 0.970703 0.500000
vt 0.970703 0.500000
vt 0.970703 0.500000
vt 0.994141 0.500000
vt 0.970703 0.500000
vt 0.970703 0.500000
vt 0.970703 0.500000
vt 0.970703 0.500000
vt 0.970703 0.500000
vt 0.970703 0.500000
vt 0.970703 0.500000
vt 0.970703 0.500000
vt 0.970703 0.500000
vt 0.994141 0.500000
vt 0.994141 0.500000
vt 0.994141 0.500000
vt 0.994141 0.500000
vt 0.994141 0.500000
vt 0.994141 0.500000
vt 0.994141 0.500000
vt 0.994141 0.500000
vt 0.994141 0.500000
vt 0.994141 0.500000
vt 0.994141 0.500000
vt 0.994141 0.500000
vt 0.994141 0.500000
vt 0.994141 0.500000
vt 0.994141 0.500000
vt 0.994141 0.500000
vt 0.994141 0.500000
vt 0.970703 0.500000
vt 0.970703 0.500000
vt 0.970703 0.500000
vt 0.994141 0.500000
vt 0.970703 0.500000
vt 0.994141 0.500000
vt 0.994141 0.500000
vt 0.994141 0.500000
vt 0.994141 0.500000
vt 0.994141 0.500000
vt 0.994141 0.500000
vt 0.994141 0.500000
vt 0.994141 0.500000
vt 0.994141 0.500000
vt 0.994141 0.500000
vt 0.994141 0.500000
vt 0.994141 0.500000
vt 0.994141 0.500000
vt 0.994141 0.500000
vt 0.994141 0.500000
vt 0.994141 0.500000
vt 0.994141 0.500000
vt 0.994141 0.500000
vt 0.994141 0.500000
vt 0.994141 0.500000
vt 0.994141 0.500000
vt 0.994141 0.500000
vt 0.978516 0.500000
vt 0.978516 0.500000
vt 0.978516 0.500000
vt 0.978516 0.500000
vt 0.970703 0.500000
vt 0.970703 0.500000
vt 0.970703 0.500000
vt 0.970703 0.500000
vt 0.970703 0.500000
vt 0.970703 0.500000
vt 0.970703 0.500000
vt 0.970703 0.500000
vt 0.970703 0.500000
vt 0.970703 0.500000
vt 0.970703 0.500000
vt 0.970703 0.500000
vt 0.970703 0.500000
vt 0.970703 0.500000
vt 0.970703 0.500000
vt 0.970703 0.500000
vt 0.994141 0.500000
vt 0.994141 0.500000
vt 0.994141 0.500000
vt 0.994141 0.500000
vt 0.978516 0.500000
vt 0.978516 0.500000
vt 0.978516 0.500000
vt 0.978516 0.500000
vt 0.994141 0.500000
vt 0.994141 0.500000
vt 0.994141 0.500000
vt 0.994141 0.500000
vt 0.994141 0.500000
vt 0.994141 0.500000
vt 0.994141 0.500000
vt 0.994141 0.500000
vt 0.994141 0.500000
vt 0.994141 0.500000
vt 0.994141 0.500000
vt 0.994141 0.500000
vt 0.994141 0.500000
vt 0.970703 0.500000
vt 0.970703 0.500000
vt 0.970703 0.500000
vt 0.994141 0.500000
vt 0.970703 0.500000
vt 0.994141 0.500000
vt 0.994141 0.500000
vn -1.0000 0.0000 0.0000
vn 1.0000 0.0000 0.0000
vn -0.0000 -0.0000 1.0000
vn 0.0000 0.0000 -1.0000
vn 0.0000 -1.0000 -0.0000
vn 0.0000 1.0000 0.0000
usemtl palette.002
s 1
f 1/1/1 2/2/1 3/3/1
f 4/4/1 2/2/1 1/1/1
f 5/5/1 1/1/1 3/3/1
f 5/6/1 4/7/1 1/8/1
f 6/9/1 2/2/1 4/4/1
f 6/10/1 4/7/1 5/6/1
f 7/11/1 5/5/1 3/3/1
f 7/11/1 6/9/1 5/5/1
f 8/12/1 2/2/1 6/9/1
f 8/12/1 6/9/1 7/11/1
f 9/13/1 10/14/1 11/15/1
f 12/16/1 10/14/1 9/13/1
f 13/17/1 12/18/1 9/19/1
f 14/20/1 12/18/1 13/17/1
f 15/21/1 13/17/1 9/19/1
f 16/22/1 17/23/1 15/21/1
f 18/24/1 12/18/1 14/20/1
f 19/25/1 16/22/1 15/21/1
f 19/25/1 18/24/1 16/22/1
f 19/25/1 15/21/1 9/19/1
f 20/26/1 12/18/1 18/24/1
f 20/26/1 18/24/1 19/25/1
f 21/27/1 22/28/1 23/29/1
f 24/30/1 22/28/1 21/27/1
f 25/31/1 22/28/1 24/30/1
f 26/32/1 22/28/1 25/31/1
f 27/33/1 22/28/1 26/32/1
f 28/34/1 22/28/1 27/33/1
f 29/35/1 24/36/1 21/37/1
f 30/38/1 25/39/1 24/40/1
f 30/41/1 24/36/1 29/35/1
f 31/42/1 26/43/1 25/44/1
f 31/45/1 25/39/1 30/38/1
f 32/46/1 27/47/1 26/48/1
f 32/49/1 26/43/1 31/42/1
f 33/50/1 28/51/1 27/52/1
f 33/53/1 27/47/1 32/46/1
f 34/54/1 28/51/1 33/50/1
f 35/55/1 30/38/1 29/56/1
f 35/57/1 28/51/1 34/54/1
f 35/55/1 34/58/1 33/53/1
f 35/55/1 33/53/1 32/46/1
f 35/55/1 32/46/1 31/45/1
f 35/55/1 31/45/1 30/38/1
f 36/59/1 22/28/1 28/34/1
f 36/60/1 28/51/1 35/57/1
f 37/61/1 21/27/1 23/29/1
f 37/62/1 29/35/1 21/37/1
f 38/63/1 35/55/1 29/56/1
f 38/64/1 29/35/1 37/62/1
f 38/63/1 36/65/1 35/55/1
f 39/66/1 37/61/1 23/29/1
f 39/67/1 38/63/1 37/68/1
f 40/69/1 36/65/1 38/63/1
f 40/69/1 38/63/1 39/67/1
f 41/70/1 40/71/1 39/72/1
f 41/73/1 36/65/1 40/69/1
f 42/74/1 36/65/1 41/73/1
f 43/75/1 36/65/1 42/74/1
f 44/76/1 36/65/1 43/75/1
f 45/77/1 36/65/1 44/76/1
f 46/78/1 22/28/1 36/59/1
f 46/79/1 36/65/1 45/77/1
f 47/80/1 39/66/1 23/29/1
f 48/81/1 41/70/1 39/72/1
f 48/82/1 39/66/1 47/80/1
f 48/81/1 42/83/1 41/70/1
f 49/84/1 43/75/1 42/74/1
f 49/85/1 42/83/1 48/81/1
f 50/86/1 44/87/1 43/88/1
f 50/89/1 43/75/1 49/84/1
f 51/90/1 45/77/1 44/76/1
f 51/91/1 44/87/1 50/86/1
f 52/92/1 46/93/1 45/94/1
f 52/95/1 45/77/1 51/90/1
f 53/96/1 22/28/1 46/78/1
f 53/97/1 46/93/1 52/92/1
f 54/98/1 50/99/1 49/100/1
f 54/98/1 52/101/1 51/102/1
f 54/98/1 53/96/1 52/101/1
f 54/98/1 49/100/1 48/82/1
f 54/98/1 51/102/1 50/99/1
f 55/103/1 22/28/1 53/96/1
f 55/103/1 53/96/1 54/98/1
f 56/104/2 57/105/2 58/106/2
f 58/106/2 57/105/2 59/107/2
f 58/108/2 59/109/2 60/110/2
f 60/110/2 59/109/2 61/111/2
f 62/112/2 63/113/2 64/114/2
f 64/114/2 63/113/2 65/115/2
f 64/116/2 65/117/2 66/118/2
f 66/118/2 65/117/2 67/119/2
f 64/116/2 66/118/2 68/120/2
f 67/119/2 65/117/2 69/121/2
f 62/112/2 64/114/2 70/122/2
f 68/120/2 69/121/2 70/123/2
f 64/116/2 68/120/2 70/123/2
f 69/121/2 65/117/2 71/124/2
f 70/123/2 69/121/2 71/124/2
f 65/115/2 63/113/2 71/125/2
f 62/112/2 70/122/2 72/126/2
f 70/122/2 71/125/2 72/126/2
f 71/125/2 63/113/2 73/127/2
f 72/126/2 71/125/2 73/127/2
f 74/128/2 75/129/2 76/130/2
f 76/130/2 75/129/2 77/131/2
f 77/131/2 75/129/2 78/132/2
f 78/132/2 75/129/2 79/133/2
f 79/133/2 75/129/2 80/134/2
f 80/134/2 75/129/2 81/135/2
f 76/136/2 77/137/2 82/138/2
f 77/139/2 78/140/2 83/141/2
f 82/138/2 77/137/2 83/142/2
f 78/143/2 79/144/2 84/145/2
f 83/141/2 78/140/2 84/146/2
f 79/147/2 80/148/2 85/149/2
f 84/145/2 79/144/2 85/150/2
f 80/151/2 81/152/2 86/153/2
f 85/149/2 80/148/2 86/154/2
f 86/153/2 81/152/2 87/155/2
f 82/156/2 83/141/2 88/157/2
f 87/155/2 81/152/2 88/158/2
f 86/154/2 87/159/2 88/157/2
f 85/149/2 86/154/2 88/157/2
f 84/146/2 85/149/2 88/157/2
f 83/141/2 84/146/2 88/157/2
f 81/135/2 75/129/2 89/160/2
f 88/158/2 81/152/2 89/161/2
f 74/128/2 76/130/2 90/162/2
f 76/136/2 82/138/2 90/163/2
f 82/156/2 88/157/2 91/164/2
f 90/163/2 82/138/2 91/165/2
f 88/157/2 89/166/2 91/164/2
f 90/167/2 91/164/2 92/168/2
f 91/164/2 89/166/2 92/168/2
f 92/168/2 89/166/2 93/169/2
f 93/169/2 89/166/2 94/170/2
f 94/170/2 89/166/2 95/171/2
f 93/169/2 94/170/2 96/172/2
f 96/172/2 94/170/2 97/173/2
f 90/167/2 92/168/2 98/174/2
f 95/171/2 89/166/2 99/175/2
f 74/128/2 90/162/2 100/176/2
f 101/177/2 99/175/2 100/178/2
f 102/179/2 101/177/2 100/178/2
f 98/174/2 102/179/2 100/178/2
f 90/167/2 98/174/2 100/178/2
f 100/178/2 99/175/2 103/180/2
f 100/181/2 103/182/2 104/183/2
f 103/180/2 99/175/2 104/184/2
f 104/184/2 99/175/2 105/185/2
f 105/185/2 99/175/2 106/186/2
f 106/186/2 99/175/2 107/187/2
f 99/175/2 89/166/2 108/188/2
f 107/187/2 99/175/2 108/188/2
f 89/160/2 75/129/2 109/189/2
f 108/188/2 89/166/2 109/190/2
f 74/128/2 100/176/2 110/191/2
f 100/181/2 104/183/2 110/192/2
f 104/183/2 105/193/2 110/192/2
f 105/185/2 106/186/2 111/194/2
f 110/192/2 105/193/2 111/195/2
f 106/196/2 107/197/2 112/198/2
f 111/194/2 106/186/2 112/199/2
f 107/187/2 108/188/2 113/200/2
f 112/198/2 107/197/2 113/201/2
f 108/202/2 109/203/2 114/204/2
f 113/200/2 108/188/2 114/205/2
f 109/189/2 75/129/2 115/206/2
f 114/204/2 109/203/2 115/207/2
f 111/208/2 112/209/2 116/210/2
f 110/191/2 111/208/2 116/210/2
f 114/211/2 115/206/2 116/210/2
f 74/128/2 110/191/2 116/210/2
f 112/209/2 113/212/2 116/210/2
f 113/212/2 114/211/2 116/210/2
f 115/206/2 75/129/2 117/213/2
f 116/210/2 115/206/2 117/213/2
f 118/214/2 119/215/2 120/216/2
f 121/217/2 122/218/2 123/219/2
f 118/214/2 120/216/2 124/220/2
f 120/221/2 123/222/2 125/223/2
f 124/220/2 120/216/2 125/224/2
f 123/219/2 122/218/2 126/225/2
f 125/223/2 123/222/2 126/226/2
f 126/225/2 122/218/2 127/227/2
f 128/228/3 129/229/3 130/230/3
f 131/231/3 129/229/3 128/228/3
f 132/232/3 128/228/3 130/230/3
f 132/233/3 131/234/3 128/235/3
f 133/236/3 129/229/3 131/231/3
f 133/237/3 131/234/3 132/233/3
f 134/238/3 132/232/3 130/230/3
f 134/238/3 133/236/3 132/232/3
f 135/239/3 129/229/3 133/236/3
f 135/239/3 133/236/3 134/238/3
f 136/240/3 137/241/3 138/242/3
f 139/243/3 137/241/3 136/240/3
f 140/244/3 141/245/3 142/246/3
f 143/247/3 141/245/3 140/244/3
f 144/248/3 145/249/3 146/250/3
f 147/251/3 145/249/3 144/248/3
f 148/252/3 149/253/3 150/254/3
f 151/255/3 149/253/3 148/252/3
f 152/256/3 153/257/3 154/258/3
f 155/259/3 156/260/3 153/261/3
f 155/262/3 153/257/3 152/256/3
f 157/263/3 156/260/3 155/259/3
f 158/264/4 159/265/4 160/266/4
f 159/267/4 161/268/4 162/269/4
f 160/266/4 159/265/4 162/270/4
f 162/269/4 161/268/4 163/271/4
f 164/272/4 165/273/4 166/274/4
f 166/274/4 165/273/4 167/275/4
f 168/276/4 169/277/4 170/278/4
f 170/278/4 169/277/4 171/279/4
f 172/280/4 173/281/4 174/282/4
f 174/282/4 173/281/4 175/283/4
f 176/284/4 177/285/4 178/286/4
f 178/286/4 177/285/4 179/287/4
f 180/288/4 181/289/4 182/290/4
f 182/290/4 181/289/4 183/291/4
f 184/292/4 185/293/4 186/294/4
f 186/294/4 185/293/4 187/295/4
f 184/292/4 186/294/4 188/296/4
f 186/297/4 187/298/4 188/299/4
f 187/295/4 185/293/4 189/300/4
f 188/299/4 187/298/4 189/301/4
f 184/292/4 188/296/4 190/302/4
f 188/296/4 189/300/4 190/302/4
f 189/300/4 185/293/4 191/303/4
f 190/302/4 189/300/4 191/303/4
f 192/304/5 193/305/5 194/306/5
f 195/307/5 193/305/5 192/304/5
f 196/308/5 192/304/5 194/306/5
f 197/309/5 193/305/5 195/307/5
f 198/310/5 196/308/5 194/306/5
f 198/310/5 197/309/5 196/308/5
f 199/311/5 193/305/5 197/309/5
f 199/311/5 197/309/5 198/310/5
f 200/312/5 201/313/5 202/314/5
f 203/315/5 201/313/5 200/312/5
f 204/316/5 205/317/5 206/318/5
f 207/319/5 205/317/5 204/316/5
f 208/320/5 209/321/5 210/322/5
f 211/323/5 209/321/5 208/320/5
f 212/324/5 213/325/5 214/326/5
f 215/327/5 213/325/5 212/324/5
f 216/328/5 217/329/5 218/330/5
f 219/331/5 217/329/5 216/328/5
f 220/332/5 221/333/5 222/334/5
f 223/335/5 221/333/5 220/332/5
f 224/336/5 225/337/5 226/338/5
f 227/339/5 225/337/5 224/336/5
f 228/340/6 229/341/6 230/342/6
f 230/342/6 229/341/6 231/343/6
f 232/344/6 233/345/6 234/346/6
f 234/346/6 233/345/6 235/347/6
f 234/348/6 235/349/6 236/350/6
f 236/350/6 235/349/6 237/351/6
f 236/352/6 237/353/6 238/354/6
f 238/354/6 237/353/6 239/355/6
f 240/356/6 241/357/6 242/358/6
f 242/358/6 241/357/6 243/359/6
f 244/360/6 245/361/6 246/362/6
f 246/362/6 245/361/6 247/363/6
f 244/360/6 246/362/6 248/364/6
f 246/365/6 247/366/6 248/367/6
f 247/363/6 245/361/6 249/368/6
f 248/367/6 247/366/6 249/369/6
f 244/360/6 248/364/6 250/370/6
f 248/364/6 249/368/6 250/370/6
f 249/368/6 245/361/6 251/371/6
f 250/370/6 249/368/6 251/371/6
