# MagicaVoxel @ Ephtracy

# group
o 

# material
mtllib ToiletRoll.mtl
usemtl palette

# normals
vn -1 0 0
vn 1 0 0
vn 0 0 1
vn 0 0 -1
vn 0 -1 0
vn 0 1 0

# texcoords
vt 0.537109 0.5
vt 0.962891 0.5
vt 0.970703 0.5

# verts
v -0.2 0.1 0
v -0.2 0.1 -0.1
v -0.2 0.2 0.2
v -0.2 0.2 0
v -0.2 0.3 0.2
v -0.2 0.3 -0.1
v -0.1 0 0.1
v -0.1 0 -0.1
v -0.1 0 -0.2
v -0.1 0.1 0
v -0.1 0.1 -0.1
v -0.1 0.2 0.1
v -0.1 0.2 0
v -0.1 0.3 -0.1
v -0.1 0.3 -0.2
v 0.2 0.2 0.2
v 0.2 0.2 0.1
v 0.2 0.3 0.2
v 0.2 0.3 0.1
v -0.1 0.2 0.2
v -0.1 0.2 0.1
v -0.1 0.3 0.2
v -0.1 0.3 0.1
v 0.2 0 0.1
v 0.2 0 -0.1
v 0.2 0 -0.2
v 0.2 0.1 0
v 0.2 0.1 -0.1
v 0.2 0.2 0.1
v 0.2 0.2 0
v 0.2 0.3 -0.1
v 0.2 0.3 -0.2
v 0.3 0.1 0
v 0.3 0.1 -0.1
v 0.3 0.2 0.2
v 0.3 0.2 0
v 0.3 0.3 0.2
v 0.3 0.3 -0.1
v -0.2 0.2 0.2
v -0.2 0.3 0.2
v -0.1 0.2 0.2
v -0.1 0.3 0.2
v 0.2 0.2 0.2
v 0.2 0.3 0.2
v 0.3 0.2 0.2
v 0.3 0.3 0.2
v -0.1 0 0.1
v -0.1 0.2 0.1
v -0.1 0.3 0.1
v 0.2 0 0.1
v 0.2 0.2 0.1
v 0.2 0.3 0.1
v -0.2 0.1 0
v -0.2 0.2 0
v -0.1 0.1 0
v -0.1 0.2 0
v 0.2 0.1 0
v 0.2 0.2 0
v 0.3 0.1 0
v 0.3 0.2 0
v -0.2 0.1 -0.1
v -0.2 0.3 -0.1
v -0.1 0.1 -0.1
v -0.1 0.3 -0.1
v 0.2 0.1 -0.1
v 0.2 0.3 -0.1
v 0.3 0.1 -0.1
v 0.3 0.3 -0.1
v -0.1 0 -0.2
v -0.1 0.3 -0.2
v 0.2 0 -0.2
v 0.2 0.3 -0.2
v -0.1 0 0.1
v 0.2 0 0.1
v -0.1 0 -0.1
v 0.2 0 -0.1
v -0.1 0 -0.2
v 0.2 0 -0.2
v -0.2 0.1 0
v -0.1 0.1 0
v 0.2 0.1 0
v 0.3 0.1 0
v -0.2 0.1 -0.1
v -0.1 0.1 -0.1
v 0.2 0.1 -0.1
v 0.3 0.1 -0.1
v -0.2 0.2 0.2
v -0.1 0.2 0.2
v 0.2 0.2 0.2
v 0.3 0.2 0.2
v -0.1 0.2 0.1
v 0.2 0.2 0.1
v -0.2 0.2 0
v -0.1 0.2 0
v 0.2 0.2 0
v 0.3 0.2 0
v -0.2 0.3 0.2
v -0.1 0.3 0.2
v 0.2 0.3 0.2
v 0.3 0.3 0.2
v -0.1 0.3 0.1
v 0.2 0.3 0.1
v -0.2 0.3 -0.1
v -0.1 0.3 -0.1
v 0.2 0.3 -0.1
v 0.3 0.3 -0.1
v -0.1 0.3 -0.2
v 0.2 0.3 -0.2

# faces
f 4/1/1 2/1/1 1/1/1
f 5/1/1 4/1/1 3/1/1
f 6/1/1 2/1/1 4/1/1
f 6/1/1 4/1/1 5/1/1
f 10/2/1 8/2/1 7/2/1
f 11/3/1 9/3/1 8/3/1
f 11/2/1 8/2/1 10/2/1
f 12/2/1 10/2/1 7/2/1
f 13/2/1 10/2/1 12/2/1
f 14/3/1 9/3/1 11/3/1
f 15/3/1 9/3/1 14/3/1
f 18/1/1 17/1/1 16/1/1
f 19/1/1 17/1/1 18/1/1
f 20/1/2 21/1/2 22/1/2
f 22/1/2 21/1/2 23/1/2
f 24/2/2 25/2/2 27/2/2
f 25/3/2 26/3/2 28/3/2
f 27/2/2 25/2/2 28/2/2
f 24/2/2 27/2/2 29/2/2
f 29/2/2 27/2/2 30/2/2
f 28/3/2 26/3/2 31/3/2
f 31/3/2 26/3/2 32/3/2
f 33/1/2 34/1/2 36/1/2
f 35/1/2 36/1/2 37/1/2
f 36/1/2 34/1/2 38/1/2
f 37/1/2 36/1/2 38/1/2
f 41/1/3 40/1/3 39/1/3
f 42/1/3 40/1/3 41/1/3
f 45/1/3 44/1/3 43/1/3
f 46/1/3 44/1/3 45/1/3
f 50/2/3 48/2/3 47/2/3
f 51/3/3 49/3/3 48/3/3
f 51/2/3 48/2/3 50/2/3
f 52/3/3 49/3/3 51/3/3
f 55/1/3 54/1/3 53/1/3
f 56/1/3 54/1/3 55/1/3
f 59/1/3 58/1/3 57/1/3
f 60/1/3 58/1/3 59/1/3
f 61/1/4 62/1/4 63/1/4
f 63/1/4 62/1/4 64/1/4
f 65/1/4 66/1/4 67/1/4
f 67/1/4 66/1/4 68/1/4
f 69/3/4 70/3/4 71/3/4
f 71/3/4 70/3/4 72/3/4
f 75/2/5 74/2/5 73/2/5
f 76/2/5 74/2/5 75/2/5
f 77/3/5 76/3/5 75/3/5
f 78/3/5 76/3/5 77/3/5
f 83/1/5 80/1/5 79/1/5
f 84/1/5 80/1/5 83/1/5
f 85/1/5 82/1/5 81/1/5
f 86/1/5 82/1/5 85/1/5
f 91/1/5 88/1/5 87/1/5
f 92/1/5 90/1/5 89/1/5
f 93/1/5 91/1/5 87/1/5
f 94/1/5 91/1/5 93/1/5
f 95/1/5 90/1/5 92/1/5
f 96/1/5 90/1/5 95/1/5
f 97/1/6 98/1/6 101/1/6
f 99/1/6 100/1/6 102/1/6
f 97/1/6 101/1/6 103/1/6
f 101/3/6 102/3/6 104/3/6
f 103/1/6 101/1/6 104/1/6
f 102/1/6 100/1/6 105/1/6
f 104/3/6 102/3/6 105/3/6
f 105/1/6 100/1/6 106/1/6
f 104/3/6 105/3/6 107/3/6
f 107/3/6 105/3/6 108/3/6
