# MagicaVoxel @ Ephtracy

# group
o 

# material
mtllib DoubleDoorFrame.mtl
usemtl palette

# normals
vn -1 0 0
vn 1 0 0
vn 0 0 1
vn 0 0 -1
vn 0 -1 0
vn 0 1 0

# texcoords
vt 0.970703 0.5
vt 0.974609 0.5
vt 0.994141 0.5

# verts
v -0.3 0 3.3
v -0.3 0 3.2
v -0.3 0 -3.2
v -0.3 0 -3.3
v -0.3 5 3.2
v -0.3 5 -3.2
v -0.3 5.1 3.2
v -0.3 5.1 -3.2
v -0.3 6 3.2
v -0.3 6 -3.2
v -0.3 6.1 3.3
v -0.3 6.1 -3.3
v -0.1 5.1 3.2
v -0.1 5.1 -3.2
v -0.1 5.2 3.2
v -0.1 6 3.2
v -0.1 6 -3.2
v 0.3 5.1 3.2
v 0.3 5.1 1.3
v 0.3 5.1 -1.5
v 0.3 5.1 -3.2
v 0.3 5.2 2.7
v 0.3 5.2 1.3
v 0.3 5.2 -1.5
v 0.3 5.2 -2.7
v 0.3 5.3 2.9
v 0.3 5.3 2.7
v 0.3 5.3 -2.7
v 0.3 5.3 -3
v 0.3 5.4 3
v 0.3 5.4 2.9
v 0.3 5.4 -3
v 0.3 5.4 -3.1
v 0.3 5.7 3
v 0.3 5.7 2.8
v 0.3 5.7 -2.9
v 0.3 5.7 -3.1
v 0.3 5.8 2.8
v 0.3 5.8 2.5
v 0.3 5.8 -2.5
v 0.3 5.8 -2.9
v 0.3 5.9 2.5
v 0.3 5.9 -2.5
v 0.3 6 3.2
v 0.3 6 -3.2
v 0.4 0 3.3
v 0.4 0 3.2
v 0.4 0 -3.2
v 0.4 0 -3.3
v 0.4 5 3.2
v 0.4 5 -3.2
v 0.4 5.1 3.2
v 0.4 5.1 -3.2
v 0.4 6 3.2
v 0.4 6 -3.2
v 0.4 6.1 3.3
v 0.4 6.1 -3.3
v -0.3 0 3.3
v -0.3 6.1 3.3
v -0.2 0 3.3
v -0.2 5.1 3.3
v -0.2 5.2 3.3
v -0.2 6 3.3
v 0 0 3.3
v 0 5.1 3.3
v 0.1 0 3.3
v 0.1 5.1 3.3
v 0.3 0 3.3
v 0.3 5.1 3.3
v 0.3 5.2 3.3
v 0.3 6 3.3
v 0.4 0 3.3
v 0.4 6.1 3.3
v -0.3 0 -3.2
v -0.3 5 -3.2
v -0.3 5.1 -3.2
v -0.3 6 -3.2
v -0.2 0 -3.2
v -0.2 5 -3.2
v -0.2 5.1 -3.2
v -0.2 6 -3.2
v -0.1 5.1 -3.2
v -0.1 6 -3.2
v 0 0 -3.2
v 0 5 -3.2
v 0.1 0 -3.2
v 0.1 5 -3.2
v 0.3 0 -3.2
v 0.3 5 -3.2
v 0.3 5.1 -3.2
v 0.3 6 -3.2
v 0.4 0 -3.2
v 0.4 5 -3.2
v 0.4 5.1 -3.2
v 0.4 6 -3.2
v -0.3 0 3.2
v -0.3 5 3.2
v -0.3 5.1 3.2
v -0.3 6 3.2
v -0.2 0 3.2
v -0.2 5 3.2
v -0.2 5.1 3.2
v -0.2 5.2 3.2
v -0.2 6 3.2
v -0.1 5.1 3.2
v -0.1 5.2 3.2
v -0.1 6 3.2
v 0 0 3.2
v 0 5 3.2
v 0.1 0 3.2
v 0.1 5 3.2
v 0.3 0 3.2
v 0.3 5 3.2
v 0.3 5.1 3.2
v 0.3 6 3.2
v 0.4 0 3.2
v 0.4 5 3.2
v 0.4 5.1 3.2
v 0.4 6 3.2
v -0.3 0 -3.3
v -0.3 6.1 -3.3
v -0.2 0 -3.3
v -0.2 6 -3.3
v 0 0 -3.3
v 0 5.1 -3.3
v 0.1 0 -3.3
v 0.1 5.1 -3.3
v 0.3 0 -3.3
v 0.3 6 -3.3
v 0.4 0 -3.3
v 0.4 6.1 -3.3
v -0.3 0 3.3
v -0.2 0 3.3
v 0 0 3.3
v 0.1 0 3.3
v 0.3 0 3.3
v 0.4 0 3.3
v -0.3 0 3.2
v -0.2 0 3.2
v 0 0 3.2
v 0.1 0 3.2
v 0.3 0 3.2
v 0.4 0 3.2
v -0.3 0 -3.2
v -0.2 0 -3.2
v 0 0 -3.2
v 0.1 0 -3.2
v 0.3 0 -3.2
v 0.4 0 -3.2
v -0.3 0 -3.3
v -0.2 0 -3.3
v 0 0 -3.3
v 0.1 0 -3.3
v 0.3 0 -3.3
v 0.4 0 -3.3
v -0.3 5 3.2
v -0.2 5 3.2
v 0 5 3.2
v 0.1 5 3.2
v 0.3 5 3.2
v 0.4 5 3.2
v -0.3 5 -3.2
v -0.2 5 -3.2
v 0 5 -3.2
v 0.1 5 -3.2
v 0.3 5 -3.2
v 0.4 5 -3.2
v -0.3 6 3.2
v -0.2 6 3.2
v -0.1 6 3.2
v 0.3 6 3.2
v 0.4 6 3.2
v -0.3 6 -3.2
v -0.2 6 -3.2
v -0.1 6 -3.2
v 0.3 6 -3.2
v 0.4 6 -3.2
v -0.3 5.1 3.2
v -0.2 5.1 3.2
v -0.1 5.1 3.2
v 0.3 5.1 3.2
v 0.4 5.1 3.2
v 0.3 5.1 1.3
v 0.3 5.1 -1.5
v -0.3 5.1 -3.2
v -0.2 5.1 -3.2
v -0.1 5.1 -3.2
v 0.3 5.1 -3.2
v 0.4 5.1 -3.2
v -0.3 6.1 3.3
v 0.4 6.1 3.3
v -0.2 6.1 3.2
v 0.3 6.1 3.2
v -0.2 6.1 -3.2
v 0.3 6.1 -3.2
v -0.3 6.1 -3.3
v 0.4 6.1 -3.3

# faces
f 5/3/1 2/3/1 1/3/1
f 6/3/1 4/3/1 3/3/1
f 7/3/1 5/3/1 1/3/1
f 7/3/1 6/3/1 5/3/1
f 8/3/1 4/3/1 6/3/1
f 8/3/1 6/3/1 7/3/1
f 9/3/1 7/3/1 1/3/1
f 10/3/1 4/3/1 8/3/1
f 11/3/1 9/3/1 1/3/1
f 11/3/1 10/3/1 9/3/1
f 12/3/1 4/3/1 10/3/1
f 12/3/1 10/3/1 11/3/1
f 15/2/1 14/2/1 13/2/1
f 16/2/1 14/2/1 15/2/1
f 17/2/1 14/2/1 16/2/1
f 18/1/2 19/1/2 22/1/2
f 19/2/2 20/2/2 23/2/2
f 22/1/2 19/1/2 23/1/2
f 20/1/2 21/1/2 24/1/2
f 23/2/2 20/2/2 24/2/2
f 24/1/2 21/1/2 25/1/2
f 18/1/2 22/1/2 26/1/2
f 22/2/2 23/2/2 27/2/2
f 26/1/2 22/1/2 27/1/2
f 23/2/2 24/2/2 27/2/2
f 24/2/2 25/2/2 27/2/2
f 25/1/2 21/1/2 28/1/2
f 27/2/2 25/2/2 28/2/2
f 28/1/2 21/1/2 29/1/2
f 18/1/2 26/1/2 30/1/2
f 26/2/2 27/2/2 31/2/2
f 30/1/2 26/1/2 31/1/2
f 27/2/2 28/2/2 31/2/2
f 28/2/2 29/2/2 31/2/2
f 29/1/2 21/1/2 32/1/2
f 31/2/2 29/2/2 32/2/2
f 32/1/2 21/1/2 33/1/2
f 30/2/2 31/2/2 34/2/2
f 18/1/2 30/1/2 34/1/2
f 32/2/2 33/2/2 34/2/2
f 31/2/2 32/2/2 34/2/2
f 34/2/2 33/2/2 35/2/2
f 35/2/2 33/2/2 36/2/2
f 33/1/2 21/1/2 37/1/2
f 36/2/2 33/2/2 37/2/2
f 35/2/2 36/2/2 38/2/2
f 34/1/2 35/1/2 38/1/2
f 38/2/2 36/2/2 39/2/2
f 39/2/2 36/2/2 40/2/2
f 36/1/2 37/1/2 41/1/2
f 40/2/2 36/2/2 41/2/2
f 39/2/2 40/2/2 42/2/2
f 38/1/2 39/1/2 42/1/2
f 40/1/2 41/1/2 43/1/2
f 42/2/2 40/2/2 43/2/2
f 18/1/2 34/1/2 44/1/2
f 34/1/2 38/1/2 44/1/2
f 42/1/2 43/1/2 44/1/2
f 38/1/2 42/1/2 44/1/2
f 37/1/2 21/1/2 45/1/2
f 44/1/2 43/1/2 45/1/2
f 43/1/2 41/1/2 45/1/2
f 41/1/2 37/1/2 45/1/2
f 46/3/2 47/3/2 50/3/2
f 48/3/2 49/3/2 51/3/2
f 46/3/2 50/3/2 52/3/2
f 50/3/2 51/3/2 52/3/2
f 51/3/2 49/3/2 53/3/2
f 52/3/2 51/3/2 53/3/2
f 46/3/2 52/3/2 54/3/2
f 53/3/2 49/3/2 55/3/2
f 46/3/2 54/3/2 56/3/2
f 54/3/2 55/3/2 56/3/2
f 55/3/2 49/3/2 57/3/2
f 56/3/2 55/3/2 57/3/2
f 60/3/3 59/3/3 58/3/3
f 61/3/3 59/3/3 60/3/3
f 62/3/3 59/3/3 61/3/3
f 63/3/3 59/3/3 62/3/3
f 64/2/3 61/2/3 60/2/3
f 65/3/3 62/3/3 61/3/3
f 65/2/3 61/2/3 64/2/3
f 66/3/3 65/3/3 64/3/3
f 67/3/3 62/3/3 65/3/3
f 67/3/3 65/3/3 66/3/3
f 68/2/3 67/2/3 66/2/3
f 69/3/3 62/3/3 67/3/3
f 69/2/3 67/2/3 68/2/3
f 70/2/3 63/2/3 62/2/3
f 70/3/3 62/3/3 69/3/3
f 71/3/3 59/3/3 63/3/3
f 71/2/3 63/2/3 70/2/3
f 72/3/3 70/3/3 69/3/3
f 72/3/3 69/3/3 68/3/3
f 72/3/3 71/3/3 70/3/3
f 73/3/3 59/3/3 71/3/3
f 73/3/3 71/3/3 72/3/3
f 78/3/3 75/3/3 74/3/3
f 79/3/3 75/3/3 78/3/3
f 80/3/3 77/3/3 76/3/3
f 81/3/3 77/3/3 80/3/3
f 82/2/3 81/2/3 80/2/3
f 83/2/3 81/2/3 82/2/3
f 84/2/3 79/2/3 78/2/3
f 85/2/3 79/2/3 84/2/3
f 86/3/3 85/3/3 84/3/3
f 87/3/3 85/3/3 86/3/3
f 88/2/3 87/2/3 86/2/3
f 89/2/3 87/2/3 88/2/3
f 92/3/3 89/3/3 88/3/3
f 93/3/3 89/3/3 92/3/3
f 94/3/3 91/3/3 90/3/3
f 95/3/3 91/3/3 94/3/3
f 96/3/4 97/3/4 100/3/4
f 100/3/4 97/3/4 101/3/4
f 98/3/4 99/3/4 102/3/4
f 102/3/4 99/3/4 103/3/4
f 103/3/4 99/3/4 104/3/4
f 102/3/4 103/3/4 105/3/4
f 103/2/4 104/2/4 106/2/4
f 105/3/4 103/3/4 106/3/4
f 106/2/4 104/2/4 107/2/4
f 100/2/4 101/2/4 108/2/4
f 108/2/4 101/2/4 109/2/4
f 108/3/4 109/3/4 110/3/4
f 110/3/4 109/3/4 111/3/4
f 110/2/4 111/2/4 112/2/4
f 112/2/4 111/2/4 113/2/4
f 112/3/4 113/3/4 116/3/4
f 116/3/4 113/3/4 117/3/4
f 114/3/4 115/3/4 118/3/4
f 118/3/4 115/3/4 119/3/4
f 120/3/4 121/3/4 122/3/4
f 122/3/4 121/3/4 123/3/4
f 122/2/4 123/2/4 124/2/4
f 124/2/4 123/2/4 125/2/4
f 124/3/4 125/3/4 126/3/4
f 125/2/4 123/2/4 127/2/4
f 126/3/4 125/3/4 127/3/4
f 126/2/4 127/2/4 128/2/4
f 123/3/4 121/3/4 129/3/4
f 128/2/4 127/2/4 129/2/4
f 127/2/4 123/2/4 129/2/4
f 128/3/4 129/3/4 130/3/4
f 129/3/4 121/3/4 131/3/4
f 130/3/4 129/3/4 131/3/4
f 138/3/5 133/3/5 132/3/5
f 139/2/5 134/2/5 133/2/5
f 139/3/5 133/3/5 138/3/5
f 140/3/5 135/3/5 134/3/5
f 140/2/5 134/2/5 139/2/5
f 141/2/5 136/2/5 135/2/5
f 141/3/5 135/3/5 140/3/5
f 142/3/5 137/3/5 136/3/5
f 142/2/5 136/2/5 141/2/5
f 143/3/5 137/3/5 142/3/5
f 150/3/5 145/3/5 144/3/5
f 151/2/5 146/2/5 145/2/5
f 151/3/5 145/3/5 150/3/5
f 152/3/5 147/3/5 146/3/5
f 152/2/5 146/2/5 151/2/5
f 153/2/5 148/2/5 147/2/5
f 153/3/5 147/3/5 152/3/5
f 154/3/5 149/3/5 148/3/5
f 154/2/5 148/2/5 153/2/5
f 155/3/5 149/3/5 154/3/5
f 162/3/5 157/3/5 156/3/5
f 163/2/5 158/2/5 157/2/5
f 163/3/5 157/3/5 162/3/5
f 164/3/5 159/3/5 158/3/5
f 164/2/5 158/2/5 163/2/5
f 165/2/5 160/2/5 159/2/5
f 165/3/5 159/3/5 164/3/5
f 166/3/5 161/3/5 160/3/5
f 166/2/5 160/2/5 165/2/5
f 167/3/5 161/3/5 166/3/5
f 173/3/5 169/3/5 168/3/5
f 174/2/5 170/2/5 169/2/5
f 174/3/5 169/3/5 173/3/5
f 175/2/5 170/2/5 174/2/5
f 176/3/5 172/3/5 171/3/5
f 177/3/5 172/3/5 176/3/5
f 181/3/6 182/3/6 183/3/6
f 183/3/6 182/3/6 184/3/6
f 178/3/6 179/3/6 185/3/6
f 179/2/6 180/2/6 186/2/6
f 185/3/6 179/3/6 186/3/6
f 186/2/6 180/2/6 187/2/6
f 184/3/6 182/3/6 188/3/6
f 188/3/6 182/3/6 189/3/6
f 190/3/6 191/3/6 192/3/6
f 192/3/6 191/3/6 193/3/6
f 190/3/6 192/3/6 194/3/6
f 192/2/6 193/2/6 194/2/6
f 193/3/6 191/3/6 195/3/6
f 194/2/6 193/2/6 195/2/6
f 190/3/6 194/3/6 196/3/6
f 194/3/6 195/3/6 196/3/6
f 195/3/6 191/3/6 197/3/6
f 196/3/6 195/3/6 197/3/6
