# MagicaVoxel @ Ephtracy

# group
o 

# material
mtllib LargeTV.mtl
usemtl palette

# normals
vn -1 0 0
vn 1 0 0
vn 0 0 1
vn 0 0 -1
vn 0 -1 0
vn 0 1 0

# texcoords
vt 0.935547 0.5
vt 0.943359 0.5
vt 0.947266 0.5
vt 0.955078 0.5
vt 0.958984 0.5
vt 0.962891 0.5
vt 0.966797 0.5
vt 0.982422 0.5
vt 0.986328 0.5
vt 0.990234 0.5
vt 0.994141 0.5

# verts
v -2.5 0.2 0.7
v -2.5 0.2 -0.8
v -2.5 0.3 0.7
v -2.5 0.3 0.6
v -2.5 0.3 -0.8
v -2.5 0.4 0.7
v -2.5 0.4 0.6
v -2.5 0.4 -0.8
v -2.5 1.3 0.7
v -2.5 1.3 -0.8
v -2.5 1.4 0.7
v -2.5 1.4 0.6
v -2.5 1.4 -0.8
v -2.5 1.5 0.7
v -2.5 1.5 0.6
v -2.5 1.5 -0.8
v -2.5 3.3 0.7
v -2.5 3.3 0.6
v -2.5 3.3 -0.8
v -2.5 3.4 0.7
v -2.5 3.4 0.6
v -2.5 3.4 -0.8
v -2.5 3.5 0.7
v -2.5 3.5 -0.8
v -2.4 0.1 0.6
v -2.4 0.1 -0.7
v -2.4 0.2 0.6
v -2.4 0.2 -0.7
v 0.8 1.5 0.7
v 0.8 1.5 0.6
v 0.8 3.3 0.7
v 0.8 3.3 0.6
v 1 0.4 0.7
v 1 0.4 0.6
v 1 1.3 0.7
v 1 1.3 0.6
v 1 1.4 0.7
v 1 1.4 0.6
v 1 1.5 0.7
v 1 1.5 0.6
v 1 2 0.7
v 1 2 0.6
v 1 2.1 0.7
v 1 2.1 0.6
v 1.1 2.1 0.5
v 1.1 2.1 -0.7
v 1.1 2.2 0.6
v 1.1 2.2 0.5
v 1.1 2.2 -0.7
v 1.1 2.3 0.5
v 1.1 2.3 -0.7
v 1.1 2.5 0.6
v 1.1 2.5 0.5
v 1.1 2.5 0.2
v 1.1 2.5 0.1
v 1.1 2.5 -0.4
v 1.1 2.6 0.2
v 1.1 2.6 0.1
v 1.1 2.6 -0.4
v 1.1 2.6 -0.7
v -2.4 1.5 0.7
v -2.4 1.5 0.6
v -2.4 3.3 0.7
v -2.4 3.3 0.6
v 0.9 0.4 0.7
v 0.9 0.4 0.6
v 0.9 1.3 0.7
v 0.9 1.3 0.6
v 0.9 1.4 0.7
v 0.9 1.4 0.6
v 0.9 1.5 0.7
v 0.9 1.5 0.6
v 0.9 2.1 0.6
v 0.9 2.1 -0.8
v 0.9 3.3 0.7
v 0.9 3.3 0.6
v 0.9 3.3 -0.8
v 0.9 3.4 0.7
v 0.9 3.4 0.6
v 0.9 3.4 -0.8
v 0.9 3.5 0.7
v 0.9 3.5 -0.8
v 2.4 0.1 0.6
v 2.4 0.1 -0.7
v 2.4 0.2 0.6
v 2.4 0.2 -0.7
v 2.4 2.1 0.5
v 2.4 2.1 -0.7
v 2.4 2.2 0.6
v 2.4 2.2 0.5
v 2.4 2.2 -0.7
v 2.4 2.3 0.5
v 2.4 2.3 -0.7
v 2.4 2.5 0.6
v 2.4 2.5 0.5
v 2.4 2.5 0.2
v 2.4 2.5 0.1
v 2.4 2.5 -0.4
v 2.4 2.6 0.2
v 2.4 2.6 0.1
v 2.4 2.6 -0.4
v 2.4 2.6 -0.7
v 2.5 0.2 0.7
v 2.5 0.2 -0.8
v 2.5 0.3 0.7
v 2.5 0.3 0.6
v 2.5 0.3 -0.8
v 2.5 0.4 0.7
v 2.5 0.4 0.6
v 2.5 0.4 -0.8
v 2.5 1.3 0.7
v 2.5 1.3 -0.8
v 2.5 1.4 0.7
v 2.5 1.4 0.6
v 2.5 1.4 -0.8
v 2.5 1.5 0.7
v 2.5 1.5 0.6
v 2.5 1.5 -0.8
v 2.5 2 0.7
v 2.5 2 -0.8
v 2.5 2.1 0.7
v 2.5 2.1 -0.8
v -2.5 0.2 0.7
v -2.5 0.3 0.7
v -2.5 0.4 0.7
v -2.5 1.3 0.7
v -2.5 1.4 0.7
v -2.5 1.5 0.7
v -2.5 3.3 0.7
v -2.5 3.4 0.7
v -2.5 3.5 0.7
v -2.4 1.5 0.7
v -2.4 3.3 0.7
v -2.3 0.6 0.7
v -2.3 1.2 0.7
v -2.2 0.6 0.7
v -2.2 1.2 0.7
v -2.1 0.6 0.7
v -2.1 1.2 0.7
v -2 0.6 0.7
v -2 1.2 0.7
v -1.9 0.6 0.7
v -1.9 1.2 0.7
v -1.8 0.6 0.7
v -1.8 1.2 0.7
v -1.7 0.6 0.7
v -1.7 1.2 0.7
v -1.6 0.6 0.7
v -1.6 1.2 0.7
v -1.5 0.6 0.7
v -1.5 1.2 0.7
v -1.4 0.6 0.7
v -1.4 1.2 0.7
v -1.3 0.6 0.7
v -1.3 1.2 0.7
v -1.2 0.6 0.7
v -1.2 1.2 0.7
v -1.1 0.6 0.7
v -1.1 1.2 0.7
v -1 0.6 0.7
v -1 1.2 0.7
v 0.8 1.5 0.7
v 0.8 3.3 0.7
v 0.9 0.4 0.7
v 0.9 1.3 0.7
v 0.9 1.4 0.7
v 0.9 1.5 0.7
v 0.9 3.3 0.7
v 0.9 3.4 0.7
v 0.9 3.5 0.7
v 1 0.4 0.7
v 1 1.3 0.7
v 1 1.4 0.7
v 1 1.5 0.7
v 1 2 0.7
v 1 2.1 0.7
v 1.1 0.6 0.7
v 1.1 1.2 0.7
v 1.2 0.6 0.7
v 1.2 1.2 0.7
v 1.3 0.6 0.7
v 1.3 1.2 0.7
v 1.4 0.6 0.7
v 1.4 1.2 0.7
v 1.5 0.6 0.7
v 1.5 1.2 0.7
v 1.6 0.6 0.7
v 1.6 1.2 0.7
v 1.7 0.6 0.7
v 1.7 1.2 0.7
v 1.8 0.6 0.7
v 1.8 1.2 0.7
v 1.9 0.6 0.7
v 1.9 1.2 0.7
v 2 0.6 0.7
v 2 1.2 0.7
v 2.1 0.6 0.7
v 2.1 1.2 0.7
v 2.2 0.6 0.7
v 2.2 1.2 0.7
v 2.3 0.6 0.7
v 2.3 1.2 0.7
v 2.4 0.6 0.7
v 2.4 1.2 0.7
v 2.5 0.2 0.7
v 2.5 0.3 0.7
v 2.5 0.4 0.7
v 2.5 1.3 0.7
v 2.5 1.4 0.7
v 2.5 1.5 0.7
v 2.5 2 0.7
v 2.5 2.1 0.7
v -2.5 0.3 0.6
v -2.5 0.4 0.6
v -2.5 1.4 0.6
v -2.5 1.5 0.6
v -2.5 3.3 0.6
v -2.5 3.4 0.6
v -2.4 0.1 0.6
v -2.4 0.2 0.6
v -2.4 1.5 0.6
v -2.4 3.3 0.6
v -2.4 3.4 0.6
v -2.3 1.6 0.6
v -2.3 3.3 0.6
v 2.38419e-007 1.6 0.6
v 2.38419e-007 3.3 0.6
v 0.1 1.7 0.6
v 0.1 3.2 0.6
v 0.2 1.8 0.6
v 0.2 1.9 0.6
v 0.2 2.6 0.6
v 0.2 3.1 0.6
v 0.3 2.6 0.6
v 0.3 2.7 0.6
v 0.3 2.8 0.6
v 0.3 2.9 0.6
v 0.3 3 0.6
v 0.3 3.1 0.6
v 0.4 2.7 0.6
v 0.4 2.8 0.6
v 0.4 2.9 0.6
v 0.4 3 0.6
v 0.5 1.8 0.6
v 0.5 1.9 0.6
v 0.5 2.6 0.6
v 0.5 3.1 0.6
v 0.6 1.7 0.6
v 0.6 3.2 0.6
v 0.7 1.6 0.6
v 0.7 3.3 0.6
v 0.8 1.5 0.6
v 0.8 3.3 0.6
v 0.8 3.4 0.6
v 0.9 0.4 0.6
v 0.9 1.3 0.6
v 0.9 1.4 0.6
v 0.9 1.5 0.6
v 0.9 2.1 0.6
v 0.9 3.3 0.6
v 0.9 3.4 0.6
v 1 0.4 0.6
v 1 1.3 0.6
v 1 1.4 0.6
v 1 1.5 0.6
v 1 2 0.6
v 1 2.1 0.6
v 1.1 2.2 0.6
v 1.1 2.5 0.6
v 2 2.3 0.6
v 2 2.4 0.6
v 2 2.5 0.6
v 2.1 2.3 0.6
v 2.1 2.4 0.6
v 2.2 2.3 0.6
v 2.2 2.4 0.6
v 2.3 2.3 0.6
v 2.3 2.4 0.6
v 2.3 2.5 0.6
v 2.4 0.1 0.6
v 2.4 0.2 0.6
v 2.4 2.2 0.6
v 2.4 2.5 0.6
v 2.5 0.3 0.6
v 2.5 0.4 0.6
v 2.5 1.4 0.6
v 2.5 1.5 0.6
v 1.1 2.1 0.5
v 1.1 2.2 0.5
v 2.4 2.1 0.5
v 2.4 2.2 0.5
v 1.1 2.5 0.2
v 1.1 2.6 0.2
v 1.2 2.5 0.2
v 1.3 2.5 0.2
v 1.3 2.6 0.2
v 1.4 2.5 0.2
v 1.5 2.5 0.2
v 1.7 2.5 0.2
v 1.8 2.5 0.2
v 1.9 2.5 0.2
v 1.9 2.6 0.2
v 2.1 2.5 0.2
v 2.2 2.5 0.2
v 2.3 2.5 0.2
v 2.4 2.5 0.2
v 2.4 2.6 0.2
v -2.4 0.1 -0.7
v -2.4 0.2 -0.7
v 1.1 2.1 -0.7
v 1.1 2.2 -0.7
v 1.1 2.3 -0.7
v 1.1 2.6 -0.7
v 2.4 0.1 -0.7
v 2.4 0.2 -0.7
v 2.4 2.1 -0.7
v 2.4 2.2 -0.7
v 2.4 2.3 -0.7
v 2.4 2.6 -0.7
v -2.5 0.2 -0.8
v -2.5 0.3 -0.8
v -2.5 0.4 -0.8
v -2.5 1.3 -0.8
v -2.5 1.4 -0.8
v -2.5 1.5 -0.8
v -2.5 3.3 -0.8
v -2.5 3.4 -0.8
v -2.5 3.5 -0.8
v 0.9 1.5 -0.8
v 0.9 2.1 -0.8
v 0.9 3.3 -0.8
v 0.9 3.4 -0.8
v 0.9 3.5 -0.8
v 1 1.5 -0.8
v 1 2 -0.8
v 1 2.1 -0.8
v 2.5 0.2 -0.8
v 2.5 0.3 -0.8
v 2.5 0.4 -0.8
v 2.5 1.3 -0.8
v 2.5 1.4 -0.8
v 2.5 1.5 -0.8
v 2.5 2 -0.8
v 2.5 2.1 -0.8
v -2.4 0.1 0.6
v 2.4 0.1 0.6
v -2.4 0.1 -0.7
v 2.4 0.1 -0.7
v -2.5 0.2 0.7
v 2.5 0.2 0.7
v -2.4 0.2 0.6
v 2.4 0.2 0.6
v -2.4 0.2 -0.7
v 2.4 0.2 -0.7
v -2.5 0.2 -0.8
v 2.5 0.2 -0.8
v -2.5 0.4 0.7
v 0.9 0.4 0.7
v 1 0.4 0.7
v 2.5 0.4 0.7
v -2.5 0.4 0.6
v 0.9 0.4 0.6
v 1 0.4 0.6
v 2.5 0.4 0.6
v -2.5 1.5 0.7
v -2.4 1.5 0.7
v 0.8 1.5 0.7
v 0.9 1.5 0.7
v 1 1.5 0.7
v 2.5 1.5 0.7
v -2.5 1.5 0.6
v -2.4 1.5 0.6
v 0.8 1.5 0.6
v 0.9 1.5 0.6
v 1 1.5 0.6
v 2.5 1.5 0.6
v 1.1 2.2 0.6
v 2.4 2.2 0.6
v 1.1 2.2 0.5
v 2.4 2.2 0.5
v -2.5 3.4 0.7
v 0.9 3.4 0.7
v -2.5 3.4 0.6
v -2.4 3.4 0.6
v 0.8 3.4 0.6
v 0.9 3.4 0.6
v -2.5 0.3 0.7
v 2.5 0.3 0.7
v -2.5 0.3 0.6
v 2.5 0.3 0.6
v -2.5 1.4 0.7
v 0.9 1.4 0.7
v 1 1.4 0.7
v 2.5 1.4 0.7
v -2.5 1.4 0.6
v 0.9 1.4 0.6
v 1 1.4 0.6
v 2.5 1.4 0.6
v 1 2.1 0.7
v 2.5 2.1 0.7
v 0.9 2.1 0.6
v 1 2.1 0.6
v 1.1 2.1 0.5
v 2.4 2.1 0.5
v 1.1 2.1 -0.7
v 2.4 2.1 -0.7
v 0.9 2.1 -0.8
v 1 2.1 -0.8
v 2.5 2.1 -0.8
v 1.1 2.5 0.6
v 2 2.5 0.6
v 2.3 2.5 0.6
v 2.4 2.5 0.6
v 1.1 2.5 0.5
v 2 2.5 0.5
v 2.3 2.5 0.5
v 2.4 2.5 0.5
v 1.3 2.5 0.4
v 1.9 2.5 0.4
v 2 2.5 0.4
v 2.3 2.5 0.4
v 1.2 2.5 0.3
v 1.3 2.5 0.3
v 1.4 2.5 0.3
v 1.5 2.5 0.3
v 1.7 2.5 0.3
v 1.8 2.5 0.3
v 1.9 2.5 0.3
v 2.1 2.5 0.3
v 2.2 2.5 0.3
v 2.3 2.5 0.3
v 1.1 2.5 0.2
v 1.2 2.5 0.2
v 1.3 2.5 0.2
v 1.4 2.5 0.2
v 1.5 2.5 0.2
v 1.7 2.5 0.2
v 1.8 2.5 0.2
v 1.9 2.5 0.2
v 2.1 2.5 0.2
v 2.2 2.5 0.2
v 2.3 2.5 0.2
v 2.4 2.5 0.2
v 1.1 2.6 0.2
v 1.3 2.6 0.2
v 1.9 2.6 0.2
v 2.4 2.6 0.2
v 1.1 2.6 0.1
v 1.3 2.6 0.1
v 1.9 2.6 0.1
v 2.4 2.6 0.1
v 1.1 2.6 -0.4
v 1.2 2.6 -0.4
v 1.3 2.6 -0.4
v 1.9 2.6 -0.4
v 2.3 2.6 -0.4
v 2.4 2.6 -0.4
v 1.2 2.6 -0.6
v 2.3 2.6 -0.6
v 1.1 2.6 -0.7
v 2.4 2.6 -0.7
v -2.5 3.3 0.7
v -2.4 3.3 0.7
v 0.8 3.3 0.7
v 0.9 3.3 0.7
v -2.5 3.3 0.6
v -2.4 3.3 0.6
v 0.8 3.3 0.6
v 0.9 3.3 0.6
v -2.5 3.5 0.7
v 0.9 3.5 0.7
v -2.5 3.5 -0.8
v 0.9 3.5 -0.8

# faces
f 3/3/1 2/3/1 1/3/1
f 4/3/1 2/3/1 3/3/1
f 5/3/1 2/3/1 4/3/1
f 7/11/1 5/11/1 4/11/1
f 8/11/1 5/11/1 7/11/1
f 9/3/1 7/3/1 6/3/1
f 9/3/1 8/3/1 7/3/1
f 10/3/1 8/3/1 9/3/1
f 11/2/1 10/2/1 9/2/1
f 12/2/1 10/2/1 11/2/1
f 13/2/1 10/2/1 12/2/1
f 15/11/1 13/11/1 12/11/1
f 16/11/1 13/11/1 15/11/1
f 17/3/1 15/3/1 14/3/1
f 17/3/1 16/3/1 15/3/1
f 18/3/1 16/3/1 17/3/1
f 19/3/1 16/3/1 18/3/1
f 21/11/1 19/11/1 18/11/1
f 22/11/1 19/11/1 21/11/1
f 23/2/1 21/2/1 20/2/1
f 23/2/1 22/2/1 21/2/1
f 24/2/1 22/2/1 23/2/1
f 27/11/1 26/11/1 25/11/1
f 28/11/1 26/11/1 27/11/1
f 31/3/1 30/3/1 29/3/1
f 32/3/1 30/3/1 31/3/1
f 35/3/1 34/3/1 33/3/1
f 36/3/1 34/3/1 35/3/1
f 37/2/1 36/2/1 35/2/1
f 38/2/1 36/2/1 37/2/1
f 41/5/1 40/5/1 39/5/1
f 42/5/1 40/5/1 41/5/1
f 43/4/1 42/4/1 41/4/1
f 44/4/1 42/4/1 43/4/1
f 48/11/1 46/11/1 45/11/1
f 49/11/1 46/11/1 48/11/1
f 50/3/1 48/3/1 47/3/1
f 50/3/1 49/3/1 48/3/1
f 51/3/1 49/3/1 50/3/1
f 52/3/1 50/3/1 47/3/1
f 53/1/1 51/1/1 50/1/1
f 53/3/1 50/3/1 52/3/1
f 54/1/1 51/1/1 53/1/1
f 55/1/1 51/1/1 54/1/1
f 56/1/1 51/1/1 55/1/1
f 57/1/1 55/1/1 54/1/1
f 58/10/1 56/10/1 55/10/1
f 58/1/1 55/1/1 57/1/1
f 59/1/1 51/1/1 56/1/1
f 59/10/1 56/10/1 58/10/1
f 60/1/1 51/1/1 59/1/1
f 61/3/2 62/3/2 63/3/2
f 63/3/2 62/3/2 64/3/2
f 65/3/2 66/3/2 67/3/2
f 67/3/2 66/3/2 68/3/2
f 67/2/2 68/2/2 69/2/2
f 69/2/2 68/2/2 70/2/2
f 71/3/2 72/3/2 73/3/2
f 71/3/2 73/3/2 75/3/2
f 73/3/2 74/3/2 75/3/2
f 75/3/2 74/3/2 76/3/2
f 76/3/2 74/3/2 77/3/2
f 76/11/2 77/11/2 79/11/2
f 79/11/2 77/11/2 80/11/2
f 78/2/2 79/2/2 81/2/2
f 79/2/2 80/2/2 81/2/2
f 81/2/2 80/2/2 82/2/2
f 83/11/2 84/11/2 85/11/2
f 85/11/2 84/11/2 86/11/2
f 87/11/2 88/11/2 90/11/2
f 90/11/2 88/11/2 91/11/2
f 89/3/2 90/3/2 92/3/2
f 90/3/2 91/3/2 92/3/2
f 92/3/2 91/3/2 93/3/2
f 89/3/2 92/3/2 94/3/2
f 92/1/2 93/1/2 95/1/2
f 94/3/2 92/3/2 95/3/2
f 95/1/2 93/1/2 96/1/2
f 96/1/2 93/1/2 97/1/2
f 97/1/2 93/1/2 98/1/2
f 96/1/2 97/1/2 99/1/2
f 97/10/2 98/10/2 100/10/2
f 99/1/2 97/1/2 100/1/2
f 98/1/2 93/1/2 101/1/2
f 100/10/2 98/10/2 101/10/2
f 101/1/2 93/1/2 102/1/2
f 103/3/2 104/3/2 105/3/2
f 105/3/2 104/3/2 106/3/2
f 106/3/2 104/3/2 107/3/2
f 106/11/2 107/11/2 109/11/2
f 109/11/2 107/11/2 110/11/2
f 108/3/2 109/3/2 111/3/2
f 109/3/2 110/3/2 111/3/2
f 111/3/2 110/3/2 112/3/2
f 111/2/2 112/2/2 113/2/2
f 113/2/2 112/2/2 114/2/2
f 114/2/2 112/2/2 115/2/2
f 114/11/2 115/11/2 117/11/2
f 117/11/2 115/11/2 118/11/2
f 116/5/2 117/5/2 119/5/2
f 117/5/2 118/5/2 119/5/2
f 119/5/2 118/5/2 120/5/2
f 119/4/2 120/4/2 121/4/2
f 121/4/2 120/4/2 122/4/2
f 132/3/3 129/3/3 128/3/3
f 133/3/3 129/3/3 132/3/3
f 134/3/3 126/3/3 125/3/3
f 135/3/3 126/3/3 134/3/3
f 136/3/3 134/3/3 125/3/3
f 136/11/3 135/11/3 134/11/3
f 137/3/3 126/3/3 135/3/3
f 137/11/3 135/11/3 136/11/3
f 138/3/3 136/3/3 125/3/3
f 138/3/3 137/3/3 136/3/3
f 139/3/3 126/3/3 137/3/3
f 139/3/3 137/3/3 138/3/3
f 140/3/3 138/3/3 125/3/3
f 140/11/3 139/11/3 138/11/3
f 141/3/3 126/3/3 139/3/3
f 141/11/3 139/11/3 140/11/3
f 142/3/3 140/3/3 125/3/3
f 142/3/3 141/3/3 140/3/3
f 143/3/3 126/3/3 141/3/3
f 143/3/3 141/3/3 142/3/3
f 144/3/3 142/3/3 125/3/3
f 144/11/3 143/11/3 142/11/3
f 145/3/3 126/3/3 143/3/3
f 145/11/3 143/11/3 144/11/3
f 146/3/3 144/3/3 125/3/3
f 146/3/3 145/3/3 144/3/3
f 147/3/3 126/3/3 145/3/3
f 147/3/3 145/3/3 146/3/3
f 148/3/3 146/3/3 125/3/3
f 148/11/3 147/11/3 146/11/3
f 149/3/3 126/3/3 147/3/3
f 149/11/3 147/11/3 148/11/3
f 150/3/3 148/3/3 125/3/3
f 150/3/3 149/3/3 148/3/3
f 151/3/3 126/3/3 149/3/3
f 151/3/3 149/3/3 150/3/3
f 152/3/3 150/3/3 125/3/3
f 152/11/3 151/11/3 150/11/3
f 153/3/3 126/3/3 151/3/3
f 153/11/3 151/11/3 152/11/3
f 154/3/3 152/3/3 125/3/3
f 154/3/3 153/3/3 152/3/3
f 155/3/3 126/3/3 153/3/3
f 155/3/3 153/3/3 154/3/3
f 156/3/3 154/3/3 125/3/3
f 156/11/3 155/11/3 154/11/3
f 157/3/3 126/3/3 155/3/3
f 157/11/3 155/11/3 156/11/3
f 158/3/3 156/3/3 125/3/3
f 158/3/3 157/3/3 156/3/3
f 159/3/3 126/3/3 157/3/3
f 159/3/3 157/3/3 158/3/3
f 160/3/3 158/3/3 125/3/3
f 160/11/3 159/11/3 158/11/3
f 161/3/3 126/3/3 159/3/3
f 161/11/3 159/11/3 160/11/3
f 164/3/3 160/3/3 125/3/3
f 164/3/3 161/3/3 160/3/3
f 165/2/3 127/2/3 126/2/3
f 165/3/3 161/3/3 164/3/3
f 165/3/3 126/3/3 161/3/3
f 166/2/3 127/2/3 165/2/3
f 167/3/3 163/3/3 162/3/3
f 168/3/3 163/3/3 167/3/3
f 169/2/3 131/2/3 130/2/3
f 170/2/3 131/2/3 169/2/3
f 177/3/3 172/3/3 171/3/3
f 178/3/3 172/3/3 177/3/3
f 179/3/3 177/3/3 171/3/3
f 179/11/3 178/11/3 177/11/3
f 180/3/3 172/3/3 178/3/3
f 180/11/3 178/11/3 179/11/3
f 181/3/3 179/3/3 171/3/3
f 181/3/3 180/3/3 179/3/3
f 182/3/3 172/3/3 180/3/3
f 182/3/3 180/3/3 181/3/3
f 183/3/3 181/3/3 171/3/3
f 183/11/3 182/11/3 181/11/3
f 184/3/3 172/3/3 182/3/3
f 184/11/3 182/11/3 183/11/3
f 185/3/3 183/3/3 171/3/3
f 185/3/3 184/3/3 183/3/3
f 186/3/3 172/3/3 184/3/3
f 186/3/3 184/3/3 185/3/3
f 187/3/3 185/3/3 171/3/3
f 187/11/3 186/11/3 185/11/3
f 188/3/3 172/3/3 186/3/3
f 188/11/3 186/11/3 187/11/3
f 189/3/3 187/3/3 171/3/3
f 189/3/3 188/3/3 187/3/3
f 190/3/3 172/3/3 188/3/3
f 190/3/3 188/3/3 189/3/3
f 191/3/3 189/3/3 171/3/3
f 191/11/3 190/11/3 189/11/3
f 192/3/3 172/3/3 190/3/3
f 192/11/3 190/11/3 191/11/3
f 193/3/3 191/3/3 171/3/3
f 193/3/3 192/3/3 191/3/3
f 194/3/3 172/3/3 192/3/3
f 194/3/3 192/3/3 193/3/3
f 195/3/3 193/3/3 171/3/3
f 195/11/3 194/11/3 193/11/3
f 196/3/3 172/3/3 194/3/3
f 196/11/3 194/11/3 195/11/3
f 197/3/3 195/3/3 171/3/3
f 197/3/3 196/3/3 195/3/3
f 198/3/3 172/3/3 196/3/3
f 198/3/3 196/3/3 197/3/3
f 199/3/3 197/3/3 171/3/3
f 199/11/3 198/11/3 197/11/3
f 200/3/3 172/3/3 198/3/3
f 200/11/3 198/11/3 199/11/3
f 201/3/3 199/3/3 171/3/3
f 201/3/3 200/3/3 199/3/3
f 202/3/3 172/3/3 200/3/3
f 202/3/3 200/3/3 201/3/3
f 203/3/3 201/3/3 171/3/3
f 203/11/3 202/11/3 201/11/3
f 204/3/3 172/3/3 202/3/3
f 204/11/3 202/11/3 203/11/3
f 205/3/3 124/3/3 123/3/3
f 206/3/3 124/3/3 205/3/3
f 207/3/3 203/3/3 171/3/3
f 207/3/3 204/3/3 203/3/3
f 208/3/3 172/3/3 204/3/3
f 208/3/3 204/3/3 207/3/3
f 208/2/3 173/2/3 172/2/3
f 209/2/3 173/2/3 208/2/3
f 210/5/3 175/5/3 174/5/3
f 211/4/3 176/4/3 175/4/3
f 211/5/3 175/5/3 210/5/3
f 212/4/3 176/4/3 211/4/3
f 221/11/3 216/11/3 215/11/3
f 222/11/3 218/11/3 217/11/3
f 223/11/3 218/11/3 222/11/3
f 224/1/3 222/1/3 221/1/3
f 224/1/3 223/1/3 222/1/3
f 225/1/3 223/1/3 224/1/3
f 226/1/3 224/1/3 221/1/3
f 226/10/3 225/10/3 224/10/3
f 227/1/3 223/1/3 225/1/3
f 227/10/3 225/10/3 226/10/3
f 228/11/3 227/11/3 226/11/3
f 229/11/3 227/11/3 228/11/3
f 230/5/3 229/5/3 228/5/3
f 231/5/3 229/5/3 230/5/3
f 232/5/3 229/5/3 231/5/3
f 233/5/3 229/5/3 232/5/3
f 234/5/3 232/5/3 231/5/3
f 234/7/3 233/7/3 232/7/3
f 235/7/3 233/7/3 234/7/3
f 236/7/3 233/7/3 235/7/3
f 237/7/3 233/7/3 236/7/3
f 238/7/3 233/7/3 237/7/3
f 239/5/3 229/5/3 233/5/3
f 239/7/3 233/7/3 238/7/3
f 240/11/3 235/11/3 234/11/3
f 240/9/3 236/9/3 235/9/3
f 241/11/3 237/11/3 236/11/3
f 241/9/3 236/9/3 240/9/3
f 242/1/3 238/1/3 237/1/3
f 242/11/3 237/11/3 241/11/3
f 243/11/3 239/11/3 238/11/3
f 243/1/3 238/1/3 242/1/3
f 244/5/3 230/5/3 228/5/3
f 244/11/3 231/11/3 230/11/3
f 245/5/3 234/5/3 231/5/3
f 245/11/3 231/11/3 244/11/3
f 246/11/3 243/11/3 242/11/3
f 246/5/3 234/5/3 245/5/3
f 246/11/3 241/11/3 240/11/3
f 246/11/3 240/11/3 234/11/3
f 246/11/3 242/11/3 241/11/3
f 247/11/3 239/11/3 243/11/3
f 247/11/3 243/11/3 246/11/3
f 247/5/3 229/5/3 239/5/3
f 248/11/3 228/11/3 226/11/3
f 248/5/3 246/5/3 245/5/3
f 248/5/3 247/5/3 246/5/3
f 248/5/3 244/5/3 228/5/3
f 248/5/3 245/5/3 244/5/3
f 249/5/3 229/5/3 247/5/3
f 249/5/3 247/5/3 248/5/3
f 249/11/3 227/11/3 229/11/3
f 250/1/3 226/1/3 221/1/3
f 250/11/3 248/11/3 226/11/3
f 250/11/3 249/11/3 248/11/3
f 251/11/3 227/11/3 249/11/3
f 251/11/3 249/11/3 250/11/3
f 251/1/3 223/1/3 227/1/3
f 252/11/3 221/11/3 215/11/3
f 252/1/3 250/1/3 221/1/3
f 252/1/3 251/1/3 250/1/3
f 253/1/3 223/1/3 251/1/3
f 253/1/3 251/1/3 252/1/3
f 254/1/3 223/1/3 253/1/3
f 255/11/3 214/11/3 213/11/3
f 257/11/3 252/11/3 215/11/3
f 258/11/3 252/11/3 257/11/3
f 260/11/3 254/11/3 253/11/3
f 261/11/3 254/11/3 260/11/3
f 262/11/3 256/11/3 255/11/3
f 262/11/3 259/11/3 258/11/3
f 262/11/3 255/11/3 213/11/3
f 262/11/3 258/11/3 257/11/3
f 262/11/3 257/11/3 256/11/3
f 263/11/3 259/11/3 262/11/3
f 264/11/3 259/11/3 263/11/3
f 265/11/3 259/11/3 264/11/3
f 266/11/3 259/11/3 265/11/3
f 267/11/3 259/11/3 266/11/3
f 270/3/3 269/3/3 268/3/3
f 271/3/3 269/3/3 270/3/3
f 272/3/3 269/3/3 271/3/3
f 273/3/3 270/3/3 268/3/3
f 273/8/3 271/8/3 270/8/3
f 274/10/3 272/10/3 271/10/3
f 274/8/3 271/8/3 273/8/3
f 275/3/3 273/3/3 268/3/3
f 275/10/3 274/10/3 273/10/3
f 276/10/3 272/10/3 274/10/3
f 276/10/3 274/10/3 275/10/3
f 277/3/3 275/3/3 268/3/3
f 277/8/3 276/8/3 275/8/3
f 278/10/3 272/10/3 276/10/3
f 278/8/3 276/8/3 277/8/3
f 279/10/3 272/10/3 278/10/3
f 280/11/3 220/11/3 219/11/3
f 281/11/3 220/11/3 280/11/3
f 282/3/3 277/3/3 268/3/3
f 282/3/3 278/3/3 277/3/3
f 282/3/3 279/3/3 278/3/3
f 283/3/3 279/3/3 282/3/3
f 284/11/3 262/11/3 213/11/3
f 285/11/3 262/11/3 284/11/3
f 286/11/3 265/11/3 264/11/3
f 287/11/3 265/11/3 286/11/3
f 290/11/3 289/11/3 288/11/3
f 291/11/3 289/11/3 290/11/3
f 294/1/3 293/1/3 292/1/3
f 295/1/3 293/1/3 294/1/3
f 296/1/3 293/1/3 295/1/3
f 297/11/3 296/11/3 295/11/3
f 298/11/3 296/11/3 297/11/3
f 299/11/3 296/11/3 298/11/3
f 300/11/3 296/11/3 299/11/3
f 301/11/3 296/11/3 300/11/3
f 302/11/3 296/11/3 301/11/3
f 303/1/3 302/1/3 301/1/3
f 304/1/3 302/1/3 303/1/3
f 305/1/3 302/1/3 304/1/3
f 306/1/3 302/1/3 305/1/3
f 307/1/3 302/1/3 306/1/3
f 308/11/4 309/11/4 314/11/4
f 314/11/4 309/11/4 315/11/4
f 310/11/4 311/11/4 316/11/4
f 311/3/4 312/3/4 317/3/4
f 316/11/4 311/11/4 317/11/4
f 312/1/4 313/1/4 318/1/4
f 317/3/4 312/3/4 318/3/4
f 318/1/4 313/1/4 319/1/4
f 324/11/4 325/11/4 329/11/4
f 325/3/4 326/3/4 329/3/4
f 329/3/4 326/3/4 330/3/4
f 326/11/4 327/11/4 331/11/4
f 330/3/4 326/3/4 331/3/4
f 327/2/4 328/2/4 332/2/4
f 331/11/4 327/11/4 332/11/4
f 332/2/4 328/2/4 333/2/4
f 329/11/4 330/11/4 334/11/4
f 324/11/4 329/11/4 334/11/4
f 334/11/4 330/11/4 335/11/4
f 335/11/4 330/11/4 336/11/4
f 320/3/4 321/3/4 337/3/4
f 321/11/4 322/11/4 338/11/4
f 337/3/4 321/3/4 338/3/4
f 322/3/4 323/3/4 339/3/4
f 338/11/4 322/11/4 339/11/4
f 323/2/4 324/2/4 340/2/4
f 339/3/4 323/3/4 340/3/4
f 324/11/4 334/11/4 341/11/4
f 340/2/4 324/2/4 341/2/4
f 334/5/4 335/5/4 342/5/4
f 341/11/4 334/11/4 342/11/4
f 335/4/4 336/4/4 343/4/4
f 342/5/4 335/5/4 343/5/4
f 343/4/4 336/4/4 344/4/4
f 347/11/5 346/11/5 345/11/5
f 348/11/5 346/11/5 347/11/5
f 351/3/5 350/3/5 349/3/5
f 352/3/5 350/3/5 351/3/5
f 353/3/5 351/3/5 349/3/5
f 354/3/5 350/3/5 352/3/5
f 355/3/5 353/3/5 349/3/5
f 355/3/5 354/3/5 353/3/5
f 356/3/5 350/3/5 354/3/5
f 356/3/5 354/3/5 355/3/5
f 361/3/5 358/3/5 357/3/5
f 362/3/5 358/3/5 361/3/5
f 363/3/5 360/3/5 359/3/5
f 364/3/5 360/3/5 363/3/5
f 371/3/5 366/3/5 365/3/5
f 372/3/5 366/3/5 371/3/5
f 373/3/5 368/3/5 367/3/5
f 374/3/5 368/3/5 373/3/5
f 375/5/5 370/5/5 369/5/5
f 376/5/5 370/5/5 375/5/5
f 379/3/5 378/3/5 377/3/5
f 380/3/5 378/3/5 379/3/5
f 383/2/5 382/2/5 381/2/5
f 384/2/5 382/2/5 383/2/5
f 385/2/5 382/2/5 384/2/5
f 386/2/5 382/2/5 385/2/5
f 387/3/6 388/3/6 389/3/6
f 389/3/6 388/3/6 390/3/6
f 391/2/6 392/2/6 395/2/6
f 395/2/6 392/2/6 396/2/6
f 393/2/6 394/2/6 397/2/6
f 397/2/6 394/2/6 398/2/6
f 399/4/6 400/4/6 402/4/6
f 402/4/6 400/4/6 403/4/6
f 403/4/6 400/4/6 404/4/6
f 402/4/6 403/4/6 405/4/6
f 404/4/6 400/4/6 406/4/6
f 401/11/6 402/11/6 407/11/6
f 405/4/6 406/4/6 408/4/6
f 407/11/6 402/11/6 408/11/6
f 402/4/6 405/4/6 408/4/6
f 406/4/6 400/4/6 409/4/6
f 408/4/6 406/4/6 409/4/6
f 410/3/6 411/3/6 414/3/6
f 411/10/6 412/10/6 415/10/6
f 414/3/6 411/3/6 415/3/6
f 412/3/6 413/3/6 416/3/6
f 415/10/6 412/10/6 416/10/6
f 416/3/6 413/3/6 417/3/6
f 414/1/6 415/1/6 418/1/6
f 418/1/6 415/1/6 419/1/6
f 415/10/6 416/10/6 420/10/6
f 419/1/6 415/1/6 420/1/6
f 416/1/6 417/1/6 421/1/6
f 420/10/6 416/10/6 421/10/6
f 414/1/6 418/1/6 422/1/6
f 418/11/6 419/11/6 423/11/6
f 422/1/6 418/1/6 423/1/6
f 423/11/6 419/11/6 424/11/6
f 424/11/6 419/11/6 425/11/6
f 425/11/6 419/11/6 426/11/6
f 426/11/6 419/11/6 427/11/6
f 419/1/6 420/1/6 428/1/6
f 427/11/6 419/11/6 428/11/6
f 420/1/6 421/1/6 428/1/6
f 428/1/6 421/1/6 429/1/6
f 429/1/6 421/1/6 430/1/6
f 421/1/6 417/1/6 431/1/6
f 430/1/6 421/1/6 431/1/6
f 414/1/6 422/1/6 432/1/6
f 422/10/6 423/10/6 433/10/6
f 432/1/6 422/1/6 433/1/6
f 423/11/6 424/11/6 434/11/6
f 433/10/6 423/10/6 434/10/6
f 424/6/6 425/6/6 435/6/6
f 434/11/6 424/11/6 435/11/6
f 425/7/6 426/7/6 436/7/6
f 435/6/6 425/6/6 436/6/6
f 426/6/6 427/6/6 437/6/6
f 436/7/6 426/7/6 437/7/6
f 427/11/6 428/11/6 438/11/6
f 437/6/6 427/6/6 438/6/6
f 428/10/6 429/10/6 439/10/6
f 438/11/6 428/11/6 439/11/6
f 429/1/6 430/1/6 440/1/6
f 439/10/6 429/10/6 440/10/6
f 430/10/6 431/10/6 441/10/6
f 440/1/6 430/1/6 441/1/6
f 431/1/6 417/1/6 442/1/6
f 441/10/6 431/10/6 442/10/6
f 442/1/6 417/1/6 443/1/6
f 444/1/6 445/1/6 448/1/6
f 445/11/6 446/11/6 449/11/6
f 448/1/6 445/1/6 449/1/6
f 446/1/6 447/1/6 450/1/6
f 449/11/6 446/11/6 450/11/6
f 450/1/6 447/1/6 451/1/6
f 448/10/6 449/10/6 452/10/6
f 452/10/6 449/10/6 453/10/6
f 449/11/6 450/11/6 454/11/6
f 453/10/6 449/10/6 454/10/6
f 450/10/6 451/10/6 455/10/6
f 454/11/6 450/11/6 455/11/6
f 455/10/6 451/10/6 456/10/6
f 456/10/6 451/10/6 457/10/6
f 452/1/6 453/1/6 458/1/6
f 453/3/6 454/3/6 458/3/6
f 454/3/6 455/3/6 458/3/6
f 455/3/6 456/3/6 458/3/6
f 456/1/6 457/1/6 459/1/6
f 458/3/6 456/3/6 459/3/6
f 452/1/6 458/1/6 460/1/6
f 458/1/6 459/1/6 460/1/6
f 459/1/6 457/1/6 461/1/6
f 460/1/6 459/1/6 461/1/6
f 462/3/6 463/3/6 466/3/6
f 466/3/6 463/3/6 467/3/6
f 464/3/6 465/3/6 468/3/6
f 468/3/6 465/3/6 469/3/6
f 470/2/6 471/2/6 472/2/6
f 472/2/6 471/2/6 473/2/6
