# MagicaVoxel @ Ephtracy

# group
o 

# material
mtllib StandingLight.mtl
usemtl palette

# normals
vn -1 0 0
vn 1 0 0
vn 0 0 1
vn 0 0 -1
vn 0 -1 0
vn 0 1 0

# texcoords
vt 0.0175781 0.5
vt 0.0214844 0.5
vt 0.982422 0.5
vt 0.986328 0.5

# verts
v -0.5 4.8 0.2
v -0.5 4.8 -0.3
v -0.5 4.9 0.2
v -0.5 4.9 -0.3
v -0.4 4.8 0.3
v -0.4 4.8 0.2
v -0.4 4.8 -0.3
v -0.4 4.8 -0.4
v -0.4 4.9 0.3
v -0.4 4.9 0.2
v -0.4 4.9 -0.3
v -0.4 4.9 -0.4
v -0.4 5 0.2
v -0.4 5 -0.3
v -0.3 4.8 0.4
v -0.3 4.8 0.3
v -0.3 4.8 -0.4
v -0.3 4.8 -0.5
v -0.3 4.9 0.4
v -0.3 4.9 0.3
v -0.3 4.9 0.2
v -0.3 4.9 -0.3
v -0.3 4.9 -0.4
v -0.3 4.9 -0.5
v -0.3 5 0.3
v -0.3 5 0.2
v -0.3 5 -0.3
v -0.3 5 -0.4
v -0.2 0 0.2
v -0.2 0 -0.3
v -0.2 1.9 0.2
v -0.2 1.9 0.1
v -0.2 1.9 -0.2
v -0.2 1.9 -0.3
v -0.2 2.1 0.1
v -0.2 2.1 -0.2
v -0.2 4.3 0.1
v -0.2 4.3 -0.2
v -0.2 4.4 0.2
v -0.2 4.4 0.1
v -0.2 4.4 -0.2
v -0.2 4.4 -0.3
v -0.2 4.6 0.1
v -0.2 4.6 -0.2
v -0.2 4.7 0.1
v -0.2 4.7 -0.2
v -0.2 4.8 0.5
v -0.2 4.8 0.4
v -0.2 4.8 0.2
v -0.2 4.8 0.1
v -0.2 4.8 -0.2
v -0.2 4.8 -0.3
v -0.2 4.8 -0.5
v -0.2 4.8 -0.6
v -0.2 4.9 0.5
v -0.2 4.9 0.4
v -0.2 4.9 0.3
v -0.2 4.9 -0.4
v -0.2 4.9 -0.5
v -0.2 4.9 -0.6
v -0.2 5 0.4
v -0.2 5 0.3
v -0.2 5 -0.4
v -0.2 5 -0.5
v -0.1 1.9 0.2
v -0.1 1.9 0.1
v -0.1 1.9 -0.2
v -0.1 1.9 -0.3
v -0.1 2.1 0.2
v -0.1 2.1 0.1
v -0.1 2.1 -0.2
v -0.1 2.1 -0.3
v -0.1 4.3 0.2
v -0.1 4.3 0.1
v -0.1 4.3 -0.2
v -0.1 4.3 -0.3
v -0.1 4.4 0.2
v -0.1 4.4 0.1
v -0.1 4.4 -0.2
v -0.1 4.4 -0.3
v 0 4.4 0
v 0 4.4 -0.1
v 0 4.8 0
v 0 4.8 -0.1
v 0.2 4.4 0
v 0.2 4.4 -0.1
v 0.2 4.6 0.1
v 0.2 4.6 0
v 0.2 4.6 -0.1
v 0.2 4.6 -0.2
v 0.2 4.7 0.1
v 0.2 4.7 0
v 0.2 4.7 -0.1
v 0.2 4.7 -0.2
v 0.2 4.8 0
v 0.2 4.8 -0.1
v -0.1 4.4 0.2
v -0.1 4.4 0.1
v -0.1 4.4 -0.2
v -0.1 4.4 -0.3
v -0.1 4.6 0.2
v -0.1 4.6 0.1
v -0.1 4.6 -0.2
v -0.1 4.6 -0.3
v -0.1 4.7 0.2
v -0.1 4.7 0.1
v -0.1 4.7 -0.2
v -0.1 4.7 -0.3
v -0.1 4.8 0.2
v -0.1 4.8 0.1
v -0.1 4.8 -0.2
v -0.1 4.8 -0.3
v 0.1 4.4 0
v 0.1 4.4 -0.1
v 0.1 4.8 0
v 0.1 4.8 -0.1
v 0.2 1.9 0.2
v 0.2 1.9 0.1
v 0.2 1.9 -0.2
v 0.2 1.9 -0.3
v 0.2 2.1 0.2
v 0.2 2.1 0.1
v 0.2 2.1 -0.2
v 0.2 2.1 -0.3
v 0.2 4.3 0.2
v 0.2 4.3 0.1
v 0.2 4.3 -0.2
v 0.2 4.3 -0.3
v 0.2 4.4 0.2
v 0.2 4.4 0.1
v 0.2 4.4 -0.2
v 0.2 4.4 -0.3
v 0.2 4.6 0.2
v 0.2 4.6 0.1
v 0.2 4.6 -0.2
v 0.2 4.6 -0.3
v 0.2 4.7 0.2
v 0.2 4.7 0.1
v 0.2 4.7 -0.2
v 0.2 4.7 -0.3
v 0.3 0 0.2
v 0.3 0 -0.3
v 0.3 1.9 0.2
v 0.3 1.9 0.1
v 0.3 1.9 -0.2
v 0.3 1.9 -0.3
v 0.3 2.1 0.1
v 0.3 2.1 -0.2
v 0.3 4.3 0.1
v 0.3 4.3 -0.2
v 0.3 4.4 0.1
v 0.3 4.4 0
v 0.3 4.4 -0.1
v 0.3 4.4 -0.2
v 0.3 4.6 0.1
v 0.3 4.6 0
v 0.3 4.6 -0.1
v 0.3 4.6 -0.2
v 0.3 4.7 0.1
v 0.3 4.7 0
v 0.3 4.7 -0.1
v 0.3 4.7 -0.2
v 0.3 4.8 0.5
v 0.3 4.8 0.4
v 0.3 4.8 0
v 0.3 4.8 -0.1
v 0.3 4.8 -0.5
v 0.3 4.8 -0.6
v 0.3 4.9 0.5
v 0.3 4.9 0.4
v 0.3 4.9 0.3
v 0.3 4.9 -0.4
v 0.3 4.9 -0.5
v 0.3 4.9 -0.6
v 0.3 5 0.4
v 0.3 5 0.3
v 0.3 5 -0.4
v 0.3 5 -0.5
v 0.4 4.8 0.4
v 0.4 4.8 0.3
v 0.4 4.8 -0.4
v 0.4 4.8 -0.5
v 0.4 4.9 0.4
v 0.4 4.9 0.3
v 0.4 4.9 0.2
v 0.4 4.9 -0.3
v 0.4 4.9 -0.4
v 0.4 4.9 -0.5
v 0.4 5 0.3
v 0.4 5 0.2
v 0.4 5 -0.3
v 0.4 5 -0.4
v 0.5 4.8 0.3
v 0.5 4.8 0.2
v 0.5 4.8 -0.3
v 0.5 4.8 -0.4
v 0.5 4.9 0.3
v 0.5 4.9 0.2
v 0.5 4.9 -0.3
v 0.5 4.9 -0.4
v 0.5 5 0.2
v 0.5 5 -0.3
v 0.6 4.8 0.2
v 0.6 4.8 -0.3
v 0.6 4.9 0.2
v 0.6 4.9 -0.3
v -0.2 4.8 0.5
v -0.2 4.9 0.5
v 0.3 4.8 0.5
v 0.3 4.9 0.5
v -0.3 4.8 0.4
v -0.3 4.9 0.4
v -0.2 4.8 0.4
v -0.2 4.9 0.4
v -0.2 5 0.4
v 0.3 4.8 0.4
v 0.3 4.9 0.4
v 0.3 5 0.4
v 0.4 4.8 0.4
v 0.4 4.9 0.4
v -0.4 4.8 0.3
v -0.4 4.9 0.3
v -0.3 4.8 0.3
v -0.3 4.9 0.3
v -0.3 5 0.3
v -0.2 4.9 0.3
v -0.2 5 0.3
v 0.3 4.9 0.3
v 0.3 5 0.3
v 0.4 4.8 0.3
v 0.4 4.9 0.3
v 0.4 5 0.3
v 0.5 4.8 0.3
v 0.5 4.9 0.3
v -0.5 4.8 0.2
v -0.5 4.9 0.2
v -0.4 4.8 0.2
v -0.4 4.9 0.2
v -0.4 5 0.2
v -0.3 4.9 0.2
v -0.3 5 0.2
v -0.2 0 0.2
v -0.2 1.9 0.2
v -0.2 4.4 0.2
v -0.2 4.8 0.2
v -0.1 1.9 0.2
v -0.1 2.1 0.2
v -0.1 4.3 0.2
v -0.1 4.4 0.2
v -0.1 4.6 0.2
v -0.1 4.7 0.2
v -0.1 4.8 0.2
v 0.2 1.9 0.2
v 0.2 2.1 0.2
v 0.2 4.3 0.2
v 0.2 4.4 0.2
v 0.2 4.6 0.2
v 0.2 4.7 0.2
v 0.3 0 0.2
v 0.3 1.9 0.2
v 0.4 4.9 0.2
v 0.4 5 0.2
v 0.5 4.8 0.2
v 0.5 4.9 0.2
v 0.5 5 0.2
v 0.6 4.8 0.2
v 0.6 4.9 0.2
v -0.2 1.9 0.1
v -0.2 2.1 0.1
v -0.2 4.3 0.1
v -0.2 4.4 0.1
v -0.1 1.9 0.1
v -0.1 2.1 0.1
v -0.1 4.3 0.1
v -0.1 4.4 0.1
v 0.2 1.9 0.1
v 0.2 2.1 0.1
v 0.2 4.3 0.1
v 0.2 4.4 0.1
v 0.2 4.6 0.1
v 0.2 4.7 0.1
v 0.3 1.9 0.1
v 0.3 2.1 0.1
v 0.3 4.3 0.1
v 0.3 4.4 0.1
v 0.3 4.6 0.1
v 0.3 4.7 0.1
v 0 4.4 0
v 0 4.8 0
v 0.1 4.4 0
v 0.1 4.8 0
v 0.2 4.4 0
v 0.2 4.6 0
v 0.2 4.7 0
v 0.2 4.8 0
v 0.3 4.4 0
v 0.3 4.6 0
v 0.3 4.7 0
v 0.3 4.8 0
v -0.2 4.4 -0.2
v -0.2 4.6 -0.2
v -0.2 4.7 -0.2
v -0.2 4.8 -0.2
v -0.1 4.4 -0.2
v -0.1 4.6 -0.2
v -0.1 4.7 -0.2
v -0.1 4.8 -0.2
v 0.2 4.6 -0.2
v 0.2 4.7 -0.2
v -0.2 4.4 0.1
v -0.2 4.6 0.1
v -0.2 4.7 0.1
v -0.2 4.8 0.1
v -0.1 4.4 0.1
v -0.1 4.6 0.1
v -0.1 4.7 0.1
v -0.1 4.8 0.1
v 0.2 4.6 0.1
v 0.2 4.7 0.1
v 0 4.4 -0.1
v 0 4.8 -0.1
v 0.1 4.4 -0.1
v 0.1 4.8 -0.1
v 0.2 4.4 -0.1
v 0.2 4.6 -0.1
v 0.2 4.7 -0.1
v 0.2 4.8 -0.1
v 0.3 4.4 -0.1
v 0.3 4.6 -0.1
v 0.3 4.7 -0.1
v 0.3 4.8 -0.1
v -0.2 1.9 -0.2
v -0.2 2.1 -0.2
v -0.2 4.3 -0.2
v -0.2 4.4 -0.2
v -0.1 1.9 -0.2
v -0.1 2.1 -0.2
v -0.1 4.3 -0.2
v -0.1 4.4 -0.2
v 0.2 1.9 -0.2
v 0.2 2.1 -0.2
v 0.2 4.3 -0.2
v 0.2 4.4 -0.2
v 0.2 4.6 -0.2
v 0.2 4.7 -0.2
v 0.3 1.9 -0.2
v 0.3 2.1 -0.2
v 0.3 4.3 -0.2
v 0.3 4.4 -0.2
v 0.3 4.6 -0.2
v 0.3 4.7 -0.2
v -0.5 4.8 -0.3
v -0.5 4.9 -0.3
v -0.4 4.8 -0.3
v -0.4 4.9 -0.3
v -0.4 5 -0.3
v -0.3 4.9 -0.3
v -0.3 5 -0.3
v -0.2 0 -0.3
v -0.2 1.9 -0.3
v -0.2 4.4 -0.3
v -0.2 4.8 -0.3
v -0.1 1.9 -0.3
v -0.1 2.1 -0.3
v -0.1 4.3 -0.3
v -0.1 4.4 -0.3
v -0.1 4.6 -0.3
v -0.1 4.7 -0.3
v -0.1 4.8 -0.3
v 0.2 1.9 -0.3
v 0.2 2.1 -0.3
v 0.2 4.3 -0.3
v 0.2 4.4 -0.3
v 0.2 4.6 -0.3
v 0.2 4.7 -0.3
v 0.3 0 -0.3
v 0.3 1.9 -0.3
v 0.4 4.9 -0.3
v 0.4 5 -0.3
v 0.5 4.8 -0.3
v 0.5 4.9 -0.3
v 0.5 5 -0.3
v 0.6 4.8 -0.3
v 0.6 4.9 -0.3
v -0.4 4.8 -0.4
v -0.4 4.9 -0.4
v -0.3 4.8 -0.4
v -0.3 4.9 -0.4
v -0.3 5 -0.4
v -0.2 4.9 -0.4
v -0.2 5 -0.4
v 0.3 4.9 -0.4
v 0.3 5 -0.4
v 0.4 4.8 -0.4
v 0.4 4.9 -0.4
v 0.4 5 -0.4
v 0.5 4.8 -0.4
v 0.5 4.9 -0.4
v -0.3 4.8 -0.5
v -0.3 4.9 -0.5
v -0.2 4.8 -0.5
v -0.2 4.9 -0.5
v -0.2 5 -0.5
v 0.3 4.8 -0.5
v 0.3 4.9 -0.5
v 0.3 5 -0.5
v 0.4 4.8 -0.5
v 0.4 4.9 -0.5
v -0.2 4.8 -0.6
v -0.2 4.9 -0.6
v 0.3 4.8 -0.6
v 0.3 4.9 -0.6
v -0.2 0 0.2
v 0.3 0 0.2
v -0.1 0 0.1
v 0.2 0 0.1
v -0.1 0 -0.2
v 0.2 0 -0.2
v -0.2 0 -0.3
v 0.3 0 -0.3
v -0.1 4.3 0.2
v 0.2 4.3 0.2
v -0.2 4.3 0.1
v -0.1 4.3 0.1
v 0.2 4.3 0.1
v 0.3 4.3 0.1
v -0.2 4.3 -0.2
v -0.1 4.3 -0.2
v 0.2 4.3 -0.2
v 0.3 4.3 -0.2
v -0.1 4.3 -0.3
v 0.2 4.3 -0.3
v -0.2 4.4 0.2
v -0.1 4.4 0.2
v -0.2 4.4 0.1
v -0.1 4.4 0.1
v -0.2 4.4 -0.2
v -0.1 4.4 -0.2
v -0.2 4.4 -0.3
v -0.1 4.4 -0.3
v -0.1 4.6 0.2
v 0.2 4.6 0.2
v -0.2 4.6 0.1
v -0.1 4.6 0.1
v 0.2 4.6 0.1
v 0.3 4.6 0.1
v 0.2 4.6 0
v 0.3 4.6 0
v 0.2 4.6 -0.1
v 0.3 4.6 -0.1
v -0.2 4.6 -0.2
v -0.1 4.6 -0.2
v 0.2 4.6 -0.2
v 0.3 4.6 -0.2
v -0.1 4.6 -0.3
v 0.2 4.6 -0.3
v -0.2 4.8 0.5
v 0.3 4.8 0.5
v -0.3 4.8 0.4
v -0.2 4.8 0.4
v 0.3 4.8 0.4
v 0.4 4.8 0.4
v -0.4 4.8 0.3
v -0.3 4.8 0.3
v -0.2 4.8 0.3
v 0.3 4.8 0.3
v 0.4 4.8 0.3
v 0.5 4.8 0.3
v -0.5 4.8 0.2
v -0.4 4.8 0.2
v -0.3 4.8 0.2
v -0.2 4.8 0.2
v -0.1 4.8 0.2
v 0.4 4.8 0.2
v 0.5 4.8 0.2
v 0.6 4.8 0.2
v -0.2 4.8 0.1
v -0.1 4.8 0.1
v 0 4.8 0
v 0.1 4.8 0
v 0.2 4.8 0
v 0.3 4.8 0
v 0.5 4.8 0
v 0 4.8 -0.1
v 0.1 4.8 -0.1
v 0.2 4.8 -0.1
v 0.3 4.8 -0.1
v 0.5 4.8 -0.1
v -0.2 4.8 -0.2
v -0.1 4.8 -0.2
v -0.5 4.8 -0.3
v -0.4 4.8 -0.3
v -0.3 4.8 -0.3
v -0.2 4.8 -0.3
v -0.1 4.8 -0.3
v 0.4 4.8 -0.3
v 0.5 4.8 -0.3
v 0.6 4.8 -0.3
v -0.4 4.8 -0.4
v -0.3 4.8 -0.4
v -0.2 4.8 -0.4
v 0.3 4.8 -0.4
v 0.4 4.8 -0.4
v 0.5 4.8 -0.4
v -0.3 4.8 -0.5
v -0.2 4.8 -0.5
v 0.3 4.8 -0.5
v 0.4 4.8 -0.5
v -0.2 4.8 -0.6
v 0.3 4.8 -0.6
v -0.2 1.9 0.2
v -0.1 1.9 0.2
v 0.2 1.9 0.2
v 0.3 1.9 0.2
v -0.2 1.9 0.1
v -0.1 1.9 0.1
v 0.2 1.9 0.1
v 0.3 1.9 0.1
v -0.2 1.9 -0.2
v -0.1 1.9 -0.2
v 0.2 1.9 -0.2
v 0.3 1.9 -0.2
v -0.2 1.9 -0.3
v -0.1 1.9 -0.3
v 0.2 1.9 -0.3
v 0.3 1.9 -0.3
v -0.1 2.1 0.2
v 0.2 2.1 0.2
v -0.2 2.1 0.1
v -0.1 2.1 0.1
v 0.2 2.1 0.1
v 0.3 2.1 0.1
v -0.2 2.1 -0.2
v -0.1 2.1 -0.2
v 0.2 2.1 -0.2
v 0.3 2.1 -0.2
v -0.1 2.1 -0.3
v 0.2 2.1 -0.3
v -0.1 4.4 0.2
v 0.2 4.4 0.2
v -0.2 4.4 0.1
v -0.1 4.4 0.1
v 0.2 4.4 0.1
v 0.3 4.4 0.1
v 0 4.4 0
v 0.1 4.4 0
v 0.2 4.4 0
v 0.3 4.4 0
v 0 4.4 -0.1
v 0.1 4.4 -0.1
v 0.2 4.4 -0.1
v 0.3 4.4 -0.1
v -0.2 4.4 -0.2
v -0.1 4.4 -0.2
v 0.2 4.4 -0.2
v 0.3 4.4 -0.2
v -0.1 4.4 -0.3
v 0.2 4.4 -0.3
v -0.1 4.7 0.2
v 0.2 4.7 0.2
v -0.2 4.7 0.1
v -0.1 4.7 0.1
v 0.2 4.7 0.1
v 0.3 4.7 0.1
v 0.2 4.7 0
v 0.3 4.7 0
v 0.2 4.7 -0.1
v 0.3 4.7 -0.1
v -0.2 4.7 -0.2
v -0.1 4.7 -0.2
v 0.2 4.7 -0.2
v 0.3 4.7 -0.2
v -0.1 4.7 -0.3
v 0.2 4.7 -0.3
v -0.2 4.9 0.5
v 0.3 4.9 0.5
v -0.3 4.9 0.4
v -0.2 4.9 0.4
v 0.3 4.9 0.4
v 0.4 4.9 0.4
v -0.4 4.9 0.3
v -0.3 4.9 0.3
v -0.2 4.9 0.3
v 0.3 4.9 0.3
v 0.4 4.9 0.3
v 0.5 4.9 0.3
v -0.5 4.9 0.2
v -0.4 4.9 0.2
v -0.3 4.9 0.2
v 0.4 4.9 0.2
v 0.5 4.9 0.2
v 0.6 4.9 0.2
v -0.5 4.9 -0.3
v -0.4 4.9 -0.3
v -0.3 4.9 -0.3
v 0.4 4.9 -0.3
v 0.5 4.9 -0.3
v 0.6 4.9 -0.3
v -0.4 4.9 -0.4
v -0.3 4.9 -0.4
v -0.2 4.9 -0.4
v 0.3 4.9 -0.4
v 0.4 4.9 -0.4
v 0.5 4.9 -0.4
v -0.3 4.9 -0.5
v -0.2 4.9 -0.5
v 0.3 4.9 -0.5
v 0.4 4.9 -0.5
v -0.2 4.9 -0.6
v 0.3 4.9 -0.6
v -0.2 5 0.4
v 0.3 5 0.4
v -0.3 5 0.3
v -0.2 5 0.3
v 0.3 5 0.3
v 0.4 5 0.3
v -0.4 5 0.2
v -0.3 5 0.2
v 0.4 5 0.2
v 0.5 5 0.2
v -0.4 5 -0.3
v -0.3 5 -0.3
v 0.4 5 -0.3
v 0.5 5 -0.3
v -0.3 5 -0.4
v -0.2 5 -0.4
v 0.3 5 -0.4
v 0.4 5 -0.4
v -0.2 5 -0.5
v 0.3 5 -0.5

# faces
f 3/3/1 2/3/1 1/3/1
f 4/3/1 2/3/1 3/3/1
f 9/3/1 6/3/1 5/3/1
f 10/3/1 6/3/1 9/3/1
f 11/3/1 8/3/1 7/3/1
f 12/3/1 8/3/1 11/3/1
f 13/4/1 11/4/1 10/4/1
f 14/4/1 11/4/1 13/4/1
f 19/3/1 16/3/1 15/3/1
f 20/3/1 16/3/1 19/3/1
f 23/3/1 18/3/1 17/3/1
f 24/3/1 18/3/1 23/3/1
f 25/4/1 21/4/1 20/4/1
f 26/4/1 21/4/1 25/4/1
f 27/4/1 23/4/1 22/4/1
f 28/4/1 23/4/1 27/4/1
f 31/4/1 30/4/1 29/4/1
f 32/4/1 30/4/1 31/4/1
f 33/4/1 30/4/1 32/4/1
f 34/4/1 30/4/1 33/4/1
f 35/4/1 33/4/1 32/4/1
f 36/4/1 33/4/1 35/4/1
f 40/4/1 38/4/1 37/4/1
f 41/4/1 38/4/1 40/4/1
f 43/3/1 40/3/1 39/3/1
f 44/3/1 42/3/1 41/3/1
f 45/3/1 43/3/1 39/3/1
f 45/3/1 44/3/1 43/3/1
f 46/3/1 42/3/1 44/3/1
f 46/3/1 44/3/1 45/3/1
f 49/3/1 45/3/1 39/3/1
f 50/3/1 45/3/1 49/3/1
f 51/3/1 42/3/1 46/3/1
f 52/3/1 42/3/1 51/3/1
f 55/3/1 48/3/1 47/3/1
f 56/3/1 48/3/1 55/3/1
f 59/3/1 54/3/1 53/3/1
f 60/3/1 54/3/1 59/3/1
f 61/4/1 57/4/1 56/4/1
f 62/4/1 57/4/1 61/4/1
f 63/4/1 59/4/1 58/4/1
f 64/4/1 59/4/1 63/4/1
f 69/4/1 66/4/1 65/4/1
f 70/4/1 66/4/1 69/4/1
f 71/4/1 68/4/1 67/4/1
f 72/4/1 68/4/1 71/4/1
f 74/3/1 71/3/1 70/3/1
f 75/3/1 71/3/1 74/3/1
f 77/4/1 74/4/1 73/4/1
f 78/4/1 74/4/1 77/4/1
f 79/4/1 76/4/1 75/4/1
f 80/4/1 76/4/1 79/4/1
f 83/2/1 82/2/1 81/2/1
f 84/2/1 82/2/1 83/2/1
f 88/3/1 86/3/1 85/3/1
f 89/3/1 86/3/1 88/3/1
f 91/3/1 88/3/1 87/3/1
f 91/3/1 90/3/1 89/3/1
f 91/3/1 89/3/1 88/3/1
f 92/3/1 90/3/1 91/3/1
f 93/3/1 90/3/1 92/3/1
f 94/3/1 90/3/1 93/3/1
f 95/3/1 93/3/1 92/3/1
f 96/3/1 93/3/1 95/3/1
f 97/3/2 98/3/2 101/3/2
f 101/3/2 98/3/2 102/3/2
f 99/3/2 100/3/2 103/3/2
f 103/3/2 100/3/2 104/3/2
f 102/3/2 103/3/2 106/3/2
f 106/3/2 103/3/2 107/3/2
f 105/3/2 106/3/2 109/3/2
f 109/3/2 106/3/2 110/3/2
f 107/3/2 108/3/2 111/3/2
f 111/3/2 108/3/2 112/3/2
f 113/2/2 114/2/2 115/2/2
f 115/2/2 114/2/2 116/2/2
f 117/4/2 118/4/2 121/4/2
f 121/4/2 118/4/2 122/4/2
f 119/4/2 120/4/2 123/4/2
f 123/4/2 120/4/2 124/4/2
f 122/3/2 123/3/2 126/3/2
f 126/3/2 123/3/2 127/3/2
f 125/4/2 126/4/2 129/4/2
f 129/4/2 126/4/2 130/4/2
f 127/4/2 128/4/2 131/4/2
f 131/4/2 128/4/2 132/4/2
f 133/3/2 134/3/2 137/3/2
f 137/3/2 134/3/2 138/3/2
f 135/3/2 136/3/2 139/3/2
f 139/3/2 136/3/2 140/3/2
f 141/4/2 142/4/2 143/4/2
f 143/4/2 142/4/2 144/4/2
f 144/4/2 142/4/2 145/4/2
f 145/4/2 142/4/2 146/4/2
f 144/4/2 145/4/2 147/4/2
f 147/4/2 145/4/2 148/4/2
f 149/4/2 150/4/2 151/4/2
f 151/4/2 150/4/2 152/4/2
f 152/4/2 150/4/2 153/4/2
f 153/4/2 150/4/2 154/4/2
f 152/3/2 153/3/2 156/3/2
f 156/3/2 153/3/2 157/3/2
f 155/3/2 156/3/2 159/3/2
f 157/3/2 158/3/2 159/3/2
f 156/3/2 157/3/2 159/3/2
f 159/3/2 158/3/2 160/3/2
f 160/3/2 158/3/2 161/3/2
f 161/3/2 158/3/2 162/3/2
f 160/3/2 161/3/2 165/3/2
f 165/3/2 161/3/2 166/3/2
f 163/3/2 164/3/2 169/3/2
f 169/3/2 164/3/2 170/3/2
f 167/3/2 168/3/2 173/3/2
f 173/3/2 168/3/2 174/3/2
f 170/4/2 171/4/2 175/4/2
f 175/4/2 171/4/2 176/4/2
f 172/4/2 173/4/2 177/4/2
f 177/4/2 173/4/2 178/4/2
f 179/3/2 180/3/2 183/3/2
f 183/3/2 180/3/2 184/3/2
f 181/3/2 182/3/2 187/3/2
f 187/3/2 182/3/2 188/3/2
f 184/4/2 185/4/2 189/4/2
f 189/4/2 185/4/2 190/4/2
f 186/4/2 187/4/2 191/4/2
f 191/4/2 187/4/2 192/4/2
f 193/3/2 194/3/2 197/3/2
f 197/3/2 194/3/2 198/3/2
f 195/3/2 196/3/2 199/3/2
f 199/3/2 196/3/2 200/3/2
f 198/4/2 199/4/2 201/4/2
f 201/4/2 199/4/2 202/4/2
f 203/3/2 204/3/2 205/3/2
f 205/3/2 204/3/2 206/3/2
f 209/3/3 208/3/3 207/3/3
f 210/3/3 208/3/3 209/3/3
f 213/3/3 212/3/3 211/3/3
f 214/3/3 212/3/3 213/3/3
f 217/4/3 215/4/3 214/4/3
f 218/4/3 215/4/3 217/4/3
f 219/3/3 217/3/3 216/3/3
f 220/3/3 217/3/3 219/3/3
f 223/3/3 222/3/3 221/3/3
f 224/3/3 222/3/3 223/3/3
f 226/4/3 225/4/3 224/4/3
f 227/4/3 225/4/3 226/4/3
f 231/4/3 229/4/3 228/4/3
f 232/4/3 229/4/3 231/4/3
f 233/3/3 231/3/3 230/3/3
f 234/3/3 231/3/3 233/3/3
f 237/3/3 236/3/3 235/3/3
f 238/3/3 236/3/3 237/3/3
f 240/4/3 239/4/3 238/4/3
f 241/4/3 239/4/3 240/4/3
f 246/4/3 243/4/3 242/4/3
f 249/3/3 245/3/3 244/3/3
f 250/3/3 245/3/3 249/3/3
f 251/3/3 245/3/3 250/3/3
f 252/3/3 245/3/3 251/3/3
f 253/4/3 247/4/3 246/4/3
f 253/4/3 246/4/3 242/4/3
f 254/4/3 247/4/3 253/4/3
f 255/4/3 249/4/3 248/4/3
f 256/4/3 249/4/3 255/4/3
f 257/3/3 251/3/3 250/3/3
f 258/3/3 251/3/3 257/3/3
f 259/4/3 253/4/3 242/4/3
f 260/4/3 253/4/3 259/4/3
f 264/4/3 262/4/3 261/4/3
f 265/4/3 262/4/3 264/4/3
f 266/3/3 264/3/3 263/3/3
f 267/3/3 264/3/3 266/3/3
f 272/4/3 269/4/3 268/4/3
f 273/4/3 269/4/3 272/4/3
f 274/4/3 271/4/3 270/4/3
f 275/4/3 271/4/3 274/4/3
f 277/3/3 274/3/3 273/3/3
f 278/3/3 274/3/3 277/3/3
f 282/4/3 277/4/3 276/4/3
f 283/4/3 277/4/3 282/4/3
f 284/4/3 279/4/3 278/4/3
f 285/4/3 279/4/3 284/4/3
f 286/3/3 281/3/3 280/3/3
f 287/3/3 281/3/3 286/3/3
f 290/2/3 289/2/3 288/2/3
f 291/2/3 289/2/3 290/2/3
f 296/3/3 293/3/3 292/3/3
f 297/3/3 293/3/3 296/3/3
f 298/3/3 295/3/3 294/3/3
f 299/3/3 295/3/3 298/3/3
f 304/3/3 301/3/3 300/3/3
f 305/3/3 301/3/3 304/3/3
f 306/3/3 303/3/3 302/3/3
f 307/3/3 303/3/3 306/3/3
f 308/3/3 306/3/3 305/3/3
f 309/3/3 306/3/3 308/3/3
f 310/3/4 311/3/4 314/3/4
f 314/3/4 311/3/4 315/3/4
f 312/3/4 313/3/4 316/3/4
f 316/3/4 313/3/4 317/3/4
f 315/3/4 316/3/4 318/3/4
f 318/3/4 316/3/4 319/3/4
f 320/2/4 321/2/4 322/2/4
f 322/2/4 321/2/4 323/2/4
f 324/3/4 325/3/4 328/3/4
f 328/3/4 325/3/4 329/3/4
f 326/3/4 327/3/4 330/3/4
f 330/3/4 327/3/4 331/3/4
f 332/4/4 333/4/4 336/4/4
f 336/4/4 333/4/4 337/4/4
f 334/4/4 335/4/4 338/4/4
f 338/4/4 335/4/4 339/4/4
f 337/3/4 338/3/4 341/3/4
f 341/3/4 338/3/4 342/3/4
f 340/4/4 341/4/4 346/4/4
f 346/4/4 341/4/4 347/4/4
f 342/4/4 343/4/4 348/4/4
f 348/4/4 343/4/4 349/4/4
f 344/3/4 345/3/4 350/3/4
f 350/3/4 345/3/4 351/3/4
f 352/3/4 353/3/4 354/3/4
f 354/3/4 353/3/4 355/3/4
f 355/4/4 356/4/4 357/4/4
f 357/4/4 356/4/4 358/4/4
f 359/4/4 360/4/4 363/4/4
f 361/3/4 362/3/4 366/3/4
f 366/3/4 362/3/4 367/3/4
f 367/3/4 362/3/4 368/3/4
f 368/3/4 362/3/4 369/3/4
f 363/4/4 364/4/4 370/4/4
f 359/4/4 363/4/4 370/4/4
f 370/4/4 364/4/4 371/4/4
f 365/4/4 366/4/4 372/4/4
f 372/4/4 366/4/4 373/4/4
f 367/3/4 368/3/4 374/3/4
f 374/3/4 368/3/4 375/3/4
f 359/4/4 370/4/4 376/4/4
f 376/4/4 370/4/4 377/4/4
f 378/4/4 379/4/4 381/4/4
f 381/4/4 379/4/4 382/4/4
f 380/3/4 381/3/4 383/3/4
f 383/3/4 381/3/4 384/3/4
f 385/3/4 386/3/4 387/3/4
f 387/3/4 386/3/4 388/3/4
f 388/4/4 389/4/4 390/4/4
f 390/4/4 389/4/4 391/4/4
f 392/4/4 393/4/4 395/4/4
f 395/4/4 393/4/4 396/4/4
f 394/3/4 395/3/4 397/3/4
f 397/3/4 395/3/4 398/3/4
f 399/3/4 400/3/4 401/3/4
f 401/3/4 400/3/4 402/3/4
f 402/4/4 403/4/4 405/4/4
f 405/4/4 403/4/4 406/4/4
f 404/3/4 405/3/4 407/3/4
f 407/3/4 405/3/4 408/3/4
f 409/3/4 410/3/4 411/3/4
f 411/3/4 410/3/4 412/3/4
f 415/4/5 414/4/5 413/4/5
f 416/4/5 414/4/5 415/4/5
f 417/4/5 415/4/5 413/4/5
f 417/3/5 416/3/5 415/3/5
f 418/4/5 414/4/5 416/4/5
f 418/3/5 416/3/5 417/3/5
f 419/4/5 417/4/5 413/4/5
f 419/4/5 418/4/5 417/4/5
f 420/4/5 414/4/5 418/4/5
f 420/4/5 418/4/5 419/4/5
f 424/4/5 422/4/5 421/4/5
f 425/4/5 422/4/5 424/4/5
f 427/4/5 424/4/5 423/4/5
f 428/4/5 424/4/5 427/4/5
f 429/4/5 426/4/5 425/4/5
f 430/4/5 426/4/5 429/4/5
f 431/4/5 429/4/5 428/4/5
f 432/4/5 429/4/5 431/4/5
f 435/3/5 434/3/5 433/3/5
f 436/3/5 434/3/5 435/3/5
f 439/3/5 438/3/5 437/3/5
f 440/3/5 438/3/5 439/3/5
f 444/3/5 442/3/5 441/3/5
f 445/3/5 442/3/5 444/3/5
f 447/3/5 446/3/5 445/3/5
f 448/3/5 446/3/5 447/3/5
f 451/3/5 444/3/5 443/3/5
f 452/3/5 444/3/5 451/3/5
f 453/3/5 450/3/5 449/3/5
f 454/3/5 450/3/5 453/3/5
f 455/3/5 453/3/5 452/3/5
f 456/3/5 453/3/5 455/3/5
f 460/3/5 458/3/5 457/3/5
f 461/3/5 458/3/5 460/3/5
f 464/3/5 460/3/5 459/3/5
f 465/2/5 461/2/5 460/2/5
f 465/3/5 460/3/5 464/3/5
f 466/3/5 462/3/5 461/3/5
f 466/2/5 461/2/5 465/2/5
f 467/3/5 462/3/5 466/3/5
f 470/3/5 464/3/5 463/3/5
f 471/1/5 465/1/5 464/1/5
f 471/3/5 464/3/5 470/3/5
f 472/2/5 466/2/5 465/2/5
f 472/1/5 465/1/5 471/1/5
f 472/2/5 467/2/5 466/2/5
f 473/2/5 467/2/5 472/2/5
f 474/3/5 468/3/5 467/3/5
f 474/2/5 467/2/5 473/2/5
f 475/3/5 468/3/5 474/3/5
f 477/2/5 471/2/5 470/2/5
f 477/2/5 472/2/5 471/2/5
f 478/2/5 475/2/5 474/2/5
f 478/2/5 474/2/5 473/2/5
f 479/2/5 475/2/5 478/2/5
f 479/2/5 478/2/5 477/2/5
f 480/2/5 475/2/5 479/2/5
f 481/2/5 475/2/5 480/2/5
f 482/2/5 475/2/5 481/2/5
f 483/3/5 476/3/5 475/3/5
f 483/2/5 475/2/5 482/2/5
f 484/2/5 479/2/5 477/2/5
f 485/2/5 481/2/5 480/2/5
f 486/2/5 481/2/5 485/2/5
f 487/1/5 483/1/5 482/1/5
f 488/3/5 476/3/5 483/3/5
f 488/1/5 483/1/5 487/1/5
f 489/2/5 487/2/5 486/2/5
f 489/2/5 477/2/5 470/2/5
f 489/2/5 488/2/5 487/2/5
f 489/2/5 486/2/5 485/2/5
f 489/2/5 485/2/5 484/2/5
f 489/2/5 484/2/5 477/2/5
f 490/2/5 488/2/5 489/2/5
f 491/3/5 470/3/5 469/3/5
f 492/2/5 489/2/5 470/2/5
f 492/3/5 470/3/5 491/3/5
f 493/2/5 489/2/5 492/2/5
f 494/2/5 489/2/5 493/2/5
f 495/2/5 488/2/5 490/2/5
f 496/2/5 488/2/5 495/2/5
f 497/3/5 476/3/5 488/3/5
f 497/2/5 488/2/5 496/2/5
f 498/3/5 476/3/5 497/3/5
f 499/3/5 493/3/5 492/3/5
f 500/1/5 494/1/5 493/1/5
f 500/3/5 493/3/5 499/3/5
f 501/2/5 496/2/5 495/2/5
f 501/1/5 494/1/5 500/1/5
f 501/2/5 495/2/5 494/2/5
f 502/2/5 496/2/5 501/2/5
f 503/3/5 497/3/5 496/3/5
f 503/2/5 496/2/5 502/2/5
f 504/3/5 497/3/5 503/3/5
f 505/3/5 501/3/5 500/3/5
f 506/2/5 502/2/5 501/2/5
f 506/3/5 501/3/5 505/3/5
f 507/3/5 503/3/5 502/3/5
f 507/2/5 502/2/5 506/2/5
f 508/3/5 503/3/5 507/3/5
f 509/3/5 507/3/5 506/3/5
f 510/3/5 507/3/5 509/3/5
f 511/4/6 512/4/6 515/4/6
f 515/4/6 512/4/6 516/4/6
f 513/4/6 514/4/6 517/4/6
f 517/4/6 514/4/6 518/4/6
f 519/4/6 520/4/6 523/4/6
f 523/4/6 520/4/6 524/4/6
f 521/4/6 522/4/6 525/4/6
f 525/4/6 522/4/6 526/4/6
f 527/4/6 528/4/6 530/4/6
f 530/4/6 528/4/6 531/4/6
f 529/4/6 530/4/6 533/4/6
f 533/4/6 530/4/6 534/4/6
f 531/4/6 532/4/6 535/4/6
f 535/4/6 532/4/6 536/4/6
f 534/4/6 535/4/6 537/4/6
f 537/4/6 535/4/6 538/4/6
f 539/4/6 540/4/6 542/4/6
f 542/4/6 540/4/6 543/4/6
f 541/4/6 542/4/6 545/4/6
f 543/4/6 544/4/6 545/4/6
f 542/4/6 543/4/6 545/4/6
f 545/4/6 544/4/6 546/4/6
f 546/4/6 544/4/6 547/4/6
f 547/4/6 544/4/6 548/4/6
f 541/4/6 545/4/6 549/4/6
f 546/4/6 547/4/6 550/4/6
f 550/4/6 547/4/6 551/4/6
f 541/4/6 549/4/6 553/4/6
f 551/4/6 552/4/6 553/4/6
f 550/4/6 551/4/6 553/4/6
f 549/4/6 550/4/6 553/4/6
f 553/4/6 552/4/6 554/4/6
f 554/4/6 552/4/6 555/4/6
f 555/4/6 552/4/6 556/4/6
f 554/4/6 555/4/6 557/4/6
f 557/4/6 555/4/6 558/4/6
f 559/3/6 560/3/6 562/3/6
f 562/3/6 560/3/6 563/3/6
f 563/3/6 564/3/6 565/3/6
f 565/3/6 564/3/6 566/3/6
f 561/3/6 562/3/6 569/3/6
f 569/3/6 562/3/6 570/3/6
f 567/3/6 568/3/6 571/3/6
f 571/3/6 568/3/6 572/3/6
f 570/3/6 571/3/6 573/3/6
f 573/3/6 571/3/6 574/3/6
f 575/3/6 576/3/6 578/3/6
f 578/3/6 576/3/6 579/3/6
f 577/3/6 578/3/6 582/3/6
f 582/3/6 578/3/6 583/3/6
f 579/3/6 580/3/6 584/3/6
f 584/3/6 580/3/6 585/3/6
f 581/3/6 582/3/6 588/3/6
f 588/3/6 582/3/6 589/3/6
f 585/3/6 586/3/6 590/3/6
f 590/3/6 586/3/6 591/3/6
f 587/3/6 588/3/6 593/3/6
f 593/3/6 588/3/6 594/3/6
f 591/3/6 592/3/6 597/3/6
f 597/3/6 592/3/6 598/3/6
f 594/3/6 595/3/6 599/3/6
f 599/3/6 595/3/6 600/3/6
f 596/3/6 597/3/6 603/3/6
f 603/3/6 597/3/6 604/3/6
f 600/3/6 601/3/6 605/3/6
f 605/3/6 601/3/6 606/3/6
f 602/3/6 603/3/6 607/3/6
f 607/3/6 603/3/6 608/3/6
f 606/3/6 607/3/6 609/3/6
f 609/3/6 607/3/6 610/3/6
f 611/4/6 612/4/6 614/4/6
f 614/4/6 612/4/6 615/4/6
f 613/4/6 614/4/6 618/4/6
f 615/4/6 616/4/6 618/4/6
f 614/4/6 615/4/6 618/4/6
f 618/4/6 616/4/6 619/4/6
f 617/4/6 618/4/6 621/4/6
f 619/4/6 620/4/6 621/4/6
f 618/4/6 619/4/6 621/4/6
f 621/4/6 620/4/6 622/4/6
f 622/4/6 620/4/6 623/4/6
f 623/4/6 620/4/6 624/4/6
f 622/4/6 623/4/6 625/4/6
f 625/4/6 623/4/6 626/4/6
f 626/4/6 623/4/6 627/4/6
f 627/4/6 623/4/6 628/4/6
f 626/4/6 627/4/6 629/4/6
f 629/4/6 627/4/6 630/4/6
