# Blender v2.79 (sub 0) OBJ File: ''
# www.blender.org
mtllib DoorFrame.mtl
o DoorFrame.001
v -0.347028 5.927235 0.053062
v -0.347028 0.027235 0.053061
v -0.347028 0.027235 0.153061
v -0.347028 5.927235 -3.146938
v -0.347028 0.027235 -3.246939
v -0.347028 0.027235 -3.146939
v -0.347028 6.027235 0.153062
v -0.347028 6.027235 -3.246938
v -0.047028 5.127234 0.053062
v -0.047028 5.027235 -3.146938
v -0.047028 5.027235 0.053062
v -0.047028 5.127234 -0.046938
v -0.047028 5.127235 -3.046938
v -0.047028 5.127235 -3.146938
v -0.047028 5.227234 0.053062
v -0.047028 5.227234 -0.046938
v -0.047028 5.227235 -3.046938
v -0.047028 5.227235 -3.146938
v -0.047028 5.527235 0.053062
v -0.047028 5.527235 -0.046938
v -0.047028 5.527235 -3.046938
v -0.047028 5.527235 -3.146938
v -0.047028 5.627234 -0.046938
v -0.047028 5.627235 -3.046938
v -0.047028 5.927235 0.053062
v -0.047028 5.927235 -3.146938
v 0.052972 5.027235 0.053062
v 0.052972 5.027235 -3.146938
v 0.052972 5.127234 0.053062
v 0.052972 5.127234 -0.046938
v 0.052972 5.127235 -3.046938
v 0.052972 5.127235 -3.146938
v 0.052972 5.227234 0.053062
v 0.052972 5.227234 -0.046938
v 0.052972 5.227235 -3.046938
v 0.052972 5.227235 -3.146938
v 0.052972 5.527235 0.053062
v 0.052972 5.527235 -0.046938
v 0.052972 5.527235 -3.046938
v 0.052972 5.527235 -3.146938
v 0.052972 5.627234 -0.046938
v 0.052972 5.627235 -3.046938
v 0.052972 5.927235 0.053062
v 0.052972 5.927235 -3.146938
v 0.352972 0.027235 0.153061
v 0.352972 0.027235 0.053061
v 0.352972 5.927235 0.053062
v 0.352972 0.027235 -3.146939
v 0.352972 0.027235 -3.246939
v 0.352972 5.927235 -3.146938
v 0.352972 6.027235 0.153062
v 0.352972 6.027235 -3.246938
v -0.247028 0.127234 0.153061
v -0.347028 6.027235 0.153062
v -0.347028 0.027235 0.153061
v -0.247028 5.027235 0.153062
v -0.247028 5.127234 0.153062
v -0.247028 5.927235 0.153062
v -0.047028 0.127234 0.153061
v -0.047028 5.027235 0.153062
v 0.052972 0.127234 0.153061
v 0.052972 5.027235 0.153062
v 0.252972 0.127234 0.153061
v 0.252972 5.027235 0.153062
v 0.252972 5.127234 0.153062
v 0.252972 5.927235 0.153062
v 0.352972 0.027235 0.153061
v 0.352972 6.027235 0.153062
v -0.247028 0.127235 -3.146939
v -0.347028 5.927235 -3.146938
v -0.347028 0.027235 -3.146939
v -0.247028 5.027235 -3.146938
v -0.247028 5.127235 -3.146938
v -0.247028 5.927235 -3.146938
v -0.047028 0.127235 -3.146939
v -0.047028 5.027235 -3.146938
v -0.047028 5.127235 -3.146938
v -0.047028 5.227235 -3.146938
v -0.047028 5.527235 -3.146938
v -0.047028 5.927235 -3.146938
v 0.052972 0.127235 -3.146939
v 0.052972 5.027235 -3.146938
v 0.252972 0.127235 -3.146939
v 0.252972 5.027235 -3.146938
v 0.052972 5.127235 -3.146938
v 0.252972 5.127235 -3.146938
v 0.052972 5.927235 -3.146938
v 0.052972 5.527235 -3.146938
v 0.052972 5.227235 -3.146938
v 0.252972 5.927235 -3.146938
v 0.352972 0.027235 -3.146939
v 0.352972 5.927235 -3.146938
v -0.347028 0.027235 0.053061
v -0.347028 5.927235 0.053062
v -0.247028 0.127234 0.053061
v -0.247028 5.027235 0.053062
v -0.247028 5.127234 0.053062
v -0.247028 5.927235 0.053062
v -0.047028 0.127234 0.053061
v -0.047028 5.027235 0.053062
v -0.047028 5.127234 0.053062
v -0.047028 5.227234 0.053062
v -0.047028 5.527235 0.053062
v -0.047028 5.927235 0.053062
v 0.052972 0.127234 0.053061
v 0.052972 5.027235 0.053062
v 0.252972 0.127234 0.053061
v 0.052972 5.127234 0.053062
v 0.252972 5.027235 0.053062
v 0.052972 5.527235 0.053062
v 0.052972 5.927235 0.053062
v 0.252972 5.127234 0.053062
v 0.052972 5.227234 0.053062
v 0.252972 5.927235 0.053062
v 0.352972 0.027235 0.053061
v 0.352972 5.927235 0.053062
v -0.347028 0.027235 -3.246939
v -0.347028 6.027235 -3.246938
v -0.247028 0.127235 -3.246939
v -0.247028 5.027235 -3.246938
v -0.247028 5.127235 -3.246938
v -0.247028 5.927235 -3.246938
v -0.047028 0.127235 -3.246939
v -0.047028 5.027235 -3.246938
v 0.052972 0.127235 -3.246939
v 0.052972 5.027235 -3.246938
v 0.252972 0.127235 -3.246939
v 0.252972 5.027235 -3.246938
v 0.252972 5.127235 -3.246938
v 0.252972 5.927235 -3.246938
v 0.352972 0.027235 -3.246939
v 0.352972 6.027235 -3.246938
v -0.347028 0.027235 0.053061
v 0.352972 0.027235 0.153061
v -0.347028 0.027235 0.153061
v 0.352972 0.027235 0.053061
v -0.347028 0.027235 -3.246939
v 0.352972 0.027235 -3.146939
v -0.347028 0.027235 -3.146939
v 0.352972 0.027235 -3.246939
v -0.047028 5.027235 -3.146938
v 0.052972 5.027235 0.053062
v -0.047028 5.027235 0.053062
v 0.052972 5.027235 -3.146938
v -0.347028 5.927235 -3.146938
v -0.247028 5.927235 0.053062
v -0.347028 5.927235 0.053062
v -0.247028 5.927235 -3.146938
v -0.047028 5.927235 0.053062
v -0.047028 5.927235 -3.146938
v 0.052972 5.927235 -3.146938
v 0.252972 5.927235 0.053062
v 0.052972 5.927235 0.053062
v 0.252972 5.927235 -3.146938
v 0.352972 5.927235 0.053062
v 0.352972 5.927235 -3.146938
v -0.347028 6.027235 0.153062
v 0.352972 6.027235 0.153062
v -0.247028 6.027235 0.053062
v -0.047028 6.027235 0.053062
v 0.052972 6.027235 0.053062
v 0.252972 6.027235 0.053062
v -0.247028 6.027235 -3.146938
v -0.047028 6.027235 -3.146938
v 0.052972 6.027235 -3.146938
v 0.252972 6.027235 -3.146938
v -0.347028 6.027235 -3.246938
v 0.352972 6.027235 -3.246938
vt 0.994141 0.500000
vt 0.994141 0.500000
vt 0.994141 0.500000
vt 0.994141 0.500000
vt 0.994141 0.500000
vt 0.994141 0.500000
vt 0.994141 0.500000
vt 0.994141 0.500000
vt 0.994141 0.500000
vt 0.994141 0.500000
vt 0.994141 0.500000
vt 0.994141 0.500000
vt 0.994141 0.500000
vt 0.994141 0.500000
vt 0.974609 0.500000
vt 0.974609 0.500000
vt 0.974609 0.500000
vt 0.970703 0.500000
vt 0.970703 0.500000
vt 0.970703 0.500000
vt 0.974609 0.500000
vt 0.974609 0.500000
vt 0.974609 0.500000
vt 0.974609 0.500000
vt 0.970703 0.500000
vt 0.974609 0.500000
vt 0.970703 0.500000
vt 0.970703 0.500000
vt 0.970703 0.500000
vt 0.970703 0.500000
vt 0.970703 0.500000
vt 0.970703 0.500000
vt 0.974609 0.500000
vt 0.974609 0.500000
vt 0.974609 0.500000
vt 0.970703 0.500000
vt 0.974609 0.500000
vt 0.974609 0.500000
vt 0.974609 0.500000
vt 0.970703 0.500000
vt 0.974609 0.500000
vt 0.974609 0.500000
vt 0.994141 0.500000
vt 0.994141 0.500000
vt 0.994141 0.500000
vt 0.994141 0.500000
vt 0.994141 0.500000
vt 0.994141 0.500000
vt 0.974609 0.500000
vt 0.974609 0.500000
vt 0.974609 0.500000
vt 0.970703 0.500000
vt 0.970703 0.500000
vt 0.970703 0.500000
vt 0.974609 0.500000
vt 0.974609 0.500000
vt 0.974609 0.500000
vt 0.974609 0.500000
vt 0.970703 0.500000
vt 0.974609 0.500000
vt 0.970703 0.500000
vt 0.970703 0.500000
vt 0.970703 0.500000
vt 0.970703 0.500000
vt 0.970703 0.500000
vt 0.970703 0.500000
vt 0.974609 0.500000
vt 0.974609 0.500000
vt 0.974609 0.500000
vt 0.970703 0.500000
vt 0.974609 0.500000
vt 0.974609 0.500000
vt 0.974609 0.500000
vt 0.970703 0.500000
vt 0.974609 0.500000
vt 0.974609 0.500000
vt 0.994141 0.500000
vt 0.994141 0.500000
vt 0.994141 0.500000
vt 0.994141 0.500000
vt 0.994141 0.500000
vt 0.994141 0.500000
vt 0.994141 0.500000
vt 0.994141 0.500000
vt 0.994141 0.500000
vt 0.994141 0.500000
vt 0.994141 0.500000
vt 0.994141 0.500000
vt 0.994141 0.500000
vt 0.994141 0.500000
vt 0.994141 0.500000
vt 0.974609 0.500000
vt 0.974609 0.500000
vt 0.974609 0.500000
vt 0.994141 0.500000
vt 0.974609 0.500000
vt 0.994141 0.500000
vt 0.994141 0.500000
vt 0.994141 0.500000
vt 0.974609 0.500000
vt 0.974609 0.500000
vt 0.974609 0.500000
vt 0.994141 0.500000
vt 0.974609 0.500000
vt 0.974609 0.500000
vt 0.974609 0.500000
vt 0.974609 0.500000
vt 0.994141 0.500000
vt 0.994141 0.500000
vt 0.974609 0.500000
vt 0.994141 0.500000
vt 0.994141 0.500000
vt 0.994141 0.500000
vt 0.994141 0.500000
vt 0.994141 0.500000
vt 0.994141 0.500000
vt 0.994141 0.500000
vt 0.994141 0.500000
vt 0.994141 0.500000
vt 0.974609 0.500000
vt 0.974609 0.500000
vt 0.974609 0.500000
vt 0.994141 0.500000
vt 0.974609 0.500000
vt 0.974609 0.500000
vt 0.974609 0.500000
vt 0.974609 0.500000
vt 0.994141 0.500000
vt 0.974609 0.500000
vt 0.974609 0.500000
vt 0.974609 0.500000
vt 0.994141 0.500000
vt 0.994141 0.500000
vt 0.994141 0.500000
vt 0.974609 0.500000
vt 0.974609 0.500000
vt 0.974609 0.500000
vt 0.994141 0.500000
vt 0.994141 0.500000
vt 0.974609 0.500000
vt 0.974609 0.500000
vt 0.974609 0.500000
vt 0.974609 0.500000
vt 0.994141 0.500000
vt 0.974609 0.500000
vt 0.974609 0.500000
vt 0.974609 0.500000
vt 0.994141 0.500000
vt 0.994141 0.500000
vt 0.994141 0.500000
vt 0.994141 0.500000
vt 0.994141 0.500000
vt 0.994141 0.500000
vt 0.994141 0.500000
vt 0.994141 0.500000
vt 0.994141 0.500000
vt 0.994141 0.500000
vt 0.974609 0.500000
vt 0.974609 0.500000
vt 0.974609 0.500000
vt 0.994141 0.500000
vt 0.974609 0.500000
vt 0.974609 0.500000
vt 0.974609 0.500000
vt 0.974609 0.500000
vt 0.994141 0.500000
vt 0.974609 0.500000
vt 0.974609 0.500000
vt 0.974609 0.500000
vt 0.994141 0.500000
vt 0.994141 0.500000
vt 0.994141 0.500000
vt 0.974609 0.500000
vt 0.974609 0.500000
vt 0.974609 0.500000
vt 0.994141 0.500000
vt 0.994141 0.500000
vt 0.974609 0.500000
vt 0.974609 0.500000
vt 0.974609 0.500000
vt 0.974609 0.500000
vt 0.994141 0.500000
vt 0.974609 0.500000
vt 0.974609 0.500000
vt 0.974609 0.500000
vt 0.994141 0.500000
vt 0.994141 0.500000
vt 0.994141 0.500000
vt 0.994141 0.500000
vt 0.994141 0.500000
vt 0.994141 0.500000
vt 0.994141 0.500000
vt 0.994141 0.500000
vt 0.994141 0.500000
vt 0.994141 0.500000
vt 0.974609 0.500000
vt 0.974609 0.500000
vt 0.974609 0.500000
vt 0.994141 0.500000
vt 0.974609 0.500000
vt 0.994141 0.500000
vt 0.994141 0.500000
vt 0.994141 0.500000
vt 0.974609 0.500000
vt 0.974609 0.500000
vt 0.974609 0.500000
vt 0.994141 0.500000
vt 0.974609 0.500000
vt 0.974609 0.500000
vt 0.974609 0.500000
vt 0.974609 0.500000
vt 0.994141 0.500000
vt 0.994141 0.500000
vt 0.974609 0.500000
vt 0.994141 0.500000
vt 0.994141 0.500000
vt 0.994141 0.500000
vt 0.994141 0.500000
vt 0.994141 0.500000
vt 0.994141 0.500000
vt 0.994141 0.500000
vt 0.994141 0.500000
vt 0.994141 0.500000
vt 0.994141 0.500000
vt 0.994141 0.500000
vt 0.994141 0.500000
vt 0.994141 0.500000
vt 0.994141 0.500000
vt 0.994141 0.500000
vt 0.994141 0.500000
vt 0.994141 0.500000
vt 0.974609 0.500000
vt 0.974609 0.500000
vt 0.974609 0.500000
vt 0.994141 0.500000
vt 0.974609 0.500000
vt 0.974609 0.500000
vt 0.974609 0.500000
vt 0.974609 0.500000
vt 0.994141 0.500000
vt 0.994141 0.500000
vt 0.994141 0.500000
vt 0.974609 0.500000
vt 0.994141 0.500000
vt 0.994141 0.500000
vt 0.994141 0.500000
vt 0.994141 0.500000
vt 0.994141 0.500000
vt 0.994141 0.500000
vt 0.994141 0.500000
vt 0.994141 0.500000
vt 0.974609 0.500000
vt 0.974609 0.500000
vt 0.974609 0.500000
vt 0.994141 0.500000
vt 0.974609 0.500000
vt 0.974609 0.500000
vt 0.974609 0.500000
vt 0.974609 0.500000
vt 0.994141 0.500000
vt 0.994141 0.500000
vt 0.974609 0.500000
vt 0.994141 0.500000
vt 0.994141 0.500000
vn -1.0000 0.0000 0.0000
vn 1.0000 0.0000 0.0000
vn 0.0000 -0.0000 1.0000
vn 0.0000 0.0000 -1.0000
vn 0.0000 -1.0000 -0.0000
vn 0.0000 1.0000 0.0000
usemtl palette
s 1
f 1/1/1 2/2/1 3/3/1
f 4/4/1 5/5/1 6/6/1
f 7/7/1 1/1/1 3/3/1
f 7/7/1 4/4/1 1/1/1
f 8/8/1 5/5/1 4/4/1
f 8/8/1 4/4/1 7/7/1
f 9/9/1 10/10/1 11/11/1
f 12/12/1 10/10/1 9/9/1
f 13/13/1 10/10/1 12/12/1
f 14/14/1 10/10/1 13/13/1
f 15/15/1 12/16/1 9/17/1
f 16/18/1 13/19/1 12/20/1
f 16/21/1 12/16/1 15/15/1
f 17/22/1 14/23/1 13/24/1
f 17/25/1 13/19/1 16/18/1
f 18/26/1 14/23/1 17/22/1
f 19/27/1 16/18/1 15/28/1
f 19/27/1 17/25/1 16/18/1
f 19/27/1 18/29/1 17/25/1
f 20/30/1 18/29/1 19/27/1
f 21/31/1 18/29/1 20/30/1
f 22/32/1 18/29/1 21/31/1
f 23/33/1 20/34/1 19/35/1
f 23/36/1 21/31/1 20/30/1
f 24/37/1 22/38/1 21/39/1
f 24/40/1 21/31/1 23/36/1
f 25/41/1 23/33/1 19/35/1
f 25/41/1 24/37/1 23/33/1
f 26/42/1 22/38/1 24/37/1
f 26/42/1 24/37/1 25/41/1
f 27/43/2 28/44/2 29/45/2
f 29/45/2 28/44/2 30/46/2
f 30/46/2 28/44/2 31/47/2
f 31/47/2 28/44/2 32/48/2
f 29/49/2 30/50/2 33/51/2
f 30/52/2 31/53/2 34/54/2
f 33/51/2 30/50/2 34/55/2
f 31/56/2 32/57/2 35/58/2
f 34/54/2 31/53/2 35/59/2
f 35/58/2 32/57/2 36/60/2
f 33/61/2 34/54/2 37/62/2
f 34/54/2 35/59/2 37/62/2
f 35/59/2 36/63/2 37/62/2
f 37/62/2 36/63/2 38/64/2
f 38/64/2 36/63/2 39/65/2
f 39/65/2 36/63/2 40/66/2
f 37/67/2 38/68/2 41/69/2
f 38/64/2 39/65/2 41/70/2
f 39/71/2 40/72/2 42/73/2
f 41/70/2 39/65/2 42/74/2
f 37/67/2 41/69/2 43/75/2
f 41/69/2 42/73/2 43/75/2
f 42/73/2 40/72/2 44/76/2
f 43/75/2 42/73/2 44/76/2
f 45/77/2 46/78/2 47/79/2
f 48/80/2 49/81/2 50/82/2
f 45/77/2 47/79/2 51/83/2
f 47/79/2 50/82/2 51/83/2
f 50/82/2 49/81/2 52/84/2
f 51/83/2 50/82/2 52/84/2
f 53/85/3 54/86/3 55/87/3
f 56/88/3 54/86/3 53/85/3
f 57/89/3 54/86/3 56/88/3
f 58/90/3 54/86/3 57/89/3
f 59/91/3 53/85/3 55/87/3
f 59/92/3 56/93/3 53/94/3
f 60/95/3 57/89/3 56/88/3
f 60/96/3 56/93/3 59/92/3
f 61/97/3 59/91/3 55/87/3
f 61/97/3 60/95/3 59/91/3
f 62/98/3 57/89/3 60/95/3
f 62/98/3 60/95/3 61/97/3
f 63/99/3 61/97/3 55/87/3
f 63/100/3 62/101/3 61/102/3
f 64/103/3 57/89/3 62/98/3
f 64/104/3 62/101/3 63/100/3
f 65/105/3 58/106/3 57/107/3
f 65/108/3 57/89/3 64/103/3
f 66/109/3 54/86/3 58/90/3
f 66/110/3 58/106/3 65/105/3
f 67/111/3 65/108/3 64/103/3
f 67/111/3 64/103/3 63/99/3
f 67/111/3 66/109/3 65/108/3
f 67/111/3 63/99/3 55/87/3
f 68/112/3 54/86/3 66/109/3
f 68/112/3 66/109/3 67/111/3
f 69/113/3 70/114/3 71/115/3
f 72/116/3 70/114/3 69/113/3
f 73/117/3 70/114/3 72/116/3
f 74/118/3 70/114/3 73/117/3
f 75/119/3 69/113/3 71/115/3
f 75/120/3 72/121/3 69/122/3
f 76/123/3 73/117/3 72/116/3
f 76/124/3 72/121/3 75/120/3
f 77/125/3 74/126/3 73/127/3
f 77/128/3 73/117/3 76/123/3
f 78/129/3 74/126/3 77/125/3
f 79/130/3 74/126/3 78/129/3
f 80/131/3 74/126/3 79/130/3
f 81/132/3 76/123/3 75/119/3
f 81/132/3 75/119/3 71/115/3
f 82/133/3 76/123/3 81/132/3
f 83/134/3 81/132/3 71/115/3
f 83/135/3 82/136/3 81/137/3
f 84/138/3 85/139/3 82/133/3
f 84/140/3 82/136/3 83/135/3
f 86/141/3 87/142/3 88/143/3
f 86/144/3 85/139/3 84/138/3
f 86/141/3 88/143/3 89/145/3
f 86/141/3 89/145/3 85/146/3
f 90/147/3 87/142/3 86/141/3
f 91/148/3 84/138/3 83/134/3
f 91/148/3 83/134/3 71/115/3
f 91/148/3 90/149/3 86/144/3
f 91/148/3 86/144/3 84/138/3
f 92/150/3 90/149/3 91/148/3
f 93/151/4 94/152/4 95/153/4
f 95/153/4 94/152/4 96/154/4
f 96/154/4 94/152/4 97/155/4
f 97/155/4 94/152/4 98/156/4
f 93/151/4 95/153/4 99/157/4
f 95/158/4 96/159/4 99/160/4
f 96/154/4 97/155/4 100/161/4
f 99/160/4 96/159/4 100/162/4
f 97/163/4 98/164/4 101/165/4
f 100/161/4 97/155/4 101/166/4
f 101/165/4 98/164/4 102/167/4
f 102/167/4 98/164/4 103/168/4
f 103/168/4 98/164/4 104/169/4
f 99/157/4 100/161/4 105/170/4
f 93/151/4 99/157/4 105/170/4
f 105/170/4 100/161/4 106/171/4
f 93/151/4 105/170/4 107/172/4
f 105/173/4 106/174/4 107/175/4
f 106/171/4 108/176/4 109/177/4
f 107/175/4 106/174/4 109/178/4
f 110/179/4 111/180/4 112/181/4
f 109/177/4 108/176/4 112/182/4
f 113/183/4 110/179/4 112/181/4
f 108/184/4 113/183/4 112/181/4
f 112/181/4 111/180/4 114/185/4
f 107/172/4 109/177/4 115/186/4
f 93/151/4 107/172/4 115/186/4
f 112/182/4 114/187/4 115/186/4
f 109/177/4 112/182/4 115/186/4
f 115/186/4 114/187/4 116/188/4
f 117/189/4 118/190/4 119/191/4
f 119/191/4 118/190/4 120/192/4
f 120/192/4 118/190/4 121/193/4
f 121/193/4 118/190/4 122/194/4
f 117/189/4 119/191/4 123/195/4
f 119/196/4 120/197/4 123/198/4
f 120/192/4 121/193/4 124/199/4
f 123/198/4 120/197/4 124/200/4
f 117/189/4 123/195/4 125/201/4
f 123/195/4 124/199/4 125/201/4
f 124/199/4 121/193/4 126/202/4
f 125/201/4 124/199/4 126/202/4
f 117/189/4 125/201/4 127/203/4
f 125/204/4 126/205/4 127/206/4
f 126/202/4 121/193/4 128/207/4
f 127/206/4 126/205/4 128/208/4
f 121/209/4 122/210/4 129/211/4
f 128/207/4 121/193/4 129/212/4
f 122/194/4 118/190/4 130/213/4
f 129/211/4 122/210/4 130/214/4
f 128/207/4 129/212/4 131/215/4
f 127/203/4 128/207/4 131/215/4
f 129/212/4 130/213/4 131/215/4
f 117/189/4 127/203/4 131/215/4
f 130/213/4 118/190/4 132/216/4
f 131/215/4 130/213/4 132/216/4
f 133/217/5 134/218/5 135/219/5
f 136/220/5 134/218/5 133/217/5
f 137/221/5 138/222/5 139/223/5
f 140/224/5 138/222/5 137/221/5
f 141/225/5 142/226/5 143/227/5
f 144/228/5 142/226/5 141/225/5
f 145/229/5 146/230/5 147/231/5
f 148/232/5 149/233/5 146/234/5
f 148/235/5 146/230/5 145/229/5
f 150/236/5 149/233/5 148/232/5
f 151/237/5 152/238/5 153/239/5
f 154/240/5 155/241/5 152/242/5
f 154/243/5 152/238/5 151/237/5
f 156/244/5 155/241/5 154/240/5
f 157/245/6 158/246/6 159/247/6
f 159/247/6 158/246/6 160/248/6
f 160/248/6 158/246/6 161/249/6
f 161/249/6 158/246/6 162/250/6
f 157/245/6 159/247/6 163/251/6
f 159/252/6 160/253/6 163/254/6
f 160/248/6 161/249/6 164/255/6
f 163/254/6 160/253/6 164/256/6
f 161/257/6 162/258/6 165/259/6
f 164/255/6 161/249/6 165/260/6
f 162/250/6 158/246/6 166/261/6
f 165/259/6 162/258/6 166/262/6
f 164/255/6 165/260/6 167/263/6
f 163/251/6 164/255/6 167/263/6
f 165/260/6 166/261/6 167/263/6
f 157/245/6 163/251/6 167/263/6
f 166/261/6 158/246/6 168/264/6
f 167/263/6 166/261/6 168/264/6
