# MagicaVoxel @ Ephtracy

# group
o 

# material
mtllib WhiteShirt.mtl
usemtl palette

# normals
vn -1 0 0
vn 1 0 0
vn 0 0 1
vn 0 0 -1
vn 0 -1 0
vn 0 1 0

# texcoords
vt 0.970703 0.5
vt 0.974609 0.5
vt 0.994141 0.5

# verts
v 0 0 -0.1
v 0 0 -1.7
v 0 0.1 -0.1
v 0 0.1 -1.7
v 0.1 0 0
v 0.1 0 -0.1
v 0.1 0 -1.7
v 0.1 0 -1.9
v 0.1 0.1 0
v 0.1 0.1 -0.1
v 0.1 0.1 -1.7
v 0.1 0.1 -1.9
v 0.2 0 -1.9
v 0.2 0 -2
v 0.2 0.1 -1.9
v 0.2 0.1 -2
v 0.4 0 -2
v 0.4 0 -2.1
v 0.4 0.1 -2
v 0.4 0.1 -2.1
v 1.2 0 -0.2
v 1.2 0 -0.3
v 1.2 0 -2
v 1.2 0 -2.1
v 1.2 0.1 -0.2
v 1.2 0.1 -0.3
v 1.2 0.1 -2
v 1.2 0.1 -2.1
v 1.3 0 -0.1
v 1.3 0 -0.2
v 1.3 0.1 -0.1
v 1.3 0.1 -0.2
v 0.5 0 0
v 0.5 0 -0.3
v 0.5 0.1 0
v 0.5 0.1 -0.3
v 0.8 0 -2
v 0.8 0 -2.1
v 0.8 0.1 -2
v 0.8 0.1 -2.1
v 1.5 0 -2
v 1.5 0 -2.1
v 1.5 0.1 -2
v 1.5 0.1 -2.1
v 1.6 0 -0.1
v 1.6 0 -0.2
v 1.6 0.1 -0.1
v 1.6 0.1 -0.2
v 1.7 0 -0.2
v 1.7 0 -0.6
v 1.7 0 -1.8
v 1.7 0 -2
v 1.7 0.1 -0.2
v 1.7 0.1 -0.6
v 1.7 0.1 -1.8
v 1.7 0.1 -2
v 1.8 0 -0.6
v 1.8 0 -1.8
v 1.8 0.1 -0.6
v 1.8 0.1 -1.8
v 0.1 0 0
v 0.1 0.1 0
v 0.5 0 0
v 0.5 0.1 0
v 0 0 -0.1
v 0 0.1 -0.1
v 0.1 0 -0.1
v 0.1 0.1 -0.1
v 1.3 0 -0.1
v 1.3 0.1 -0.1
v 1.6 0 -0.1
v 1.6 0.1 -0.1
v 1.2 0 -0.2
v 1.2 0.1 -0.2
v 1.3 0 -0.2
v 1.3 0.1 -0.2
v 1.6 0 -0.2
v 1.6 0.1 -0.2
v 1.7 0 -0.2
v 1.7 0.1 -0.2
v 0.5 0 -0.3
v 0.5 0.1 -0.3
v 1.2 0 -0.3
v 1.2 0.1 -0.3
v 1.7 0 -0.6
v 1.7 0.1 -0.6
v 1.8 0 -0.6
v 1.8 0.1 -0.6
v 0 0 -1.7
v 0 0.1 -1.7
v 0.1 0 -1.7
v 0.1 0.1 -1.7
v 1.7 0 -1.8
v 1.7 0.1 -1.8
v 1.8 0 -1.8
v 1.8 0.1 -1.8
v 0.1 0 -1.9
v 0.1 0.1 -1.9
v 0.2 0 -1.9
v 0.2 0.1 -1.9
v 0.2 0 -2
v 0.2 0.1 -2
v 0.4 0 -2
v 0.4 0.1 -2
v 0.8 0 -2
v 0.8 0.1 -2
v 1.2 0 -2
v 1.2 0.1 -2
v 1.5 0 -2
v 1.5 0.1 -2
v 1.7 0 -2
v 1.7 0.1 -2
v 0.4 0 -2.1
v 0.4 0.1 -2.1
v 0.8 0 -2.1
v 0.8 0.1 -2.1
v 1.2 0 -2.1
v 1.2 0.1 -2.1
v 1.5 0 -2.1
v 1.5 0.1 -2.1
v 0.1 0 0
v 0.5 0 0
v 0 0 -0.1
v 0.1 0 -0.1
v 0.2 0 -0.1
v 0.4 0 -0.1
v 1.3 0 -0.1
v 1.6 0 -0.1
v 0.1 0 -0.2
v 0.2 0 -0.2
v 0.4 0 -0.2
v 1.2 0 -0.2
v 1.3 0 -0.2
v 1.4 0 -0.2
v 1.5 0 -0.2
v 1.6 0 -0.2
v 1.7 0 -0.2
v 0.5 0 -0.3
v 1.2 0 -0.3
v 1.5 0 -0.3
v 1.6 0 -0.3
v 0.6 0 -0.4
v 1.2 0 -0.4
v 1.3 0 -0.4
v 1.4 0 -0.4
v 1.5 0 -0.4
v 1.6 0 -0.4
v 0.5 0 -0.5
v 0.6 0 -0.5
v 1.2 0 -0.5
v 1.3 0 -0.5
v 1.4 0 -0.5
v 0.5 0 -0.6
v 0.6 0 -0.6
v 1.7 0 -0.6
v 1.8 0 -0.6
v 1.5 0 -0.7
v 1.6 0 -0.7
v 1.7 0 -0.7
v 0.3 0 -0.8
v 0.4 0 -0.8
v 1.3 0 -0.9
v 1.4 0 -0.9
v 1.4 0 -1
v 1.5 0 -1
v 0.5 0 -1.1
v 0.6 0 -1.1
v 0.5 0 -1.2
v 0.6 0 -1.2
v 1.4 0 -1.2
v 1.5 0 -1.2
v 0.3 0 -1.3
v 0.4 0 -1.3
v 0.5 0 -1.3
v 1.3 0 -1.3
v 1.4 0 -1.3
v 0.4 0 -1.4
v 0.5 0 -1.4
v 1.5 0 -1.4
v 1.6 0 -1.4
v 1.4 0 -1.5
v 1.5 0 -1.5
v 0.1 0 -1.6
v 0.2 0 -1.6
v 0.5 0 -1.6
v 0.6 0 -1.6
v 0 0 -1.7
v 0.1 0 -1.7
v 1.6 0 -1.7
v 1.7 0 -1.7
v 0.2 0 -1.8
v 0.3 0 -1.8
v 0.4 0 -1.8
v 0.5 0 -1.8
v 1.7 0 -1.8
v 1.8 0 -1.8
v 0.1 0 -1.9
v 0.2 0 -1.9
v 0.3 0 -1.9
v 0.4 0 -1.9
v 0.5 0 -1.9
v 0.7 0 -1.9
v 0.8 0 -1.9
v 1.2 0 -1.9
v 1.4 0 -1.9
v 1.5 0 -1.9
v 1.6 0 -1.9
v 0.2 0 -2
v 0.4 0 -2
v 0.5 0 -2
v 0.7 0 -2
v 0.8 0 -2
v 1.2 0 -2
v 1.4 0 -2
v 1.5 0 -2
v 1.7 0 -2
v 0.4 0 -2.1
v 0.8 0 -2.1
v 1.2 0 -2.1
v 1.5 0 -2.1
v 0.1 0.1 0
v 0.5 0.1 0
v 0 0.1 -0.1
v 0.1 0.1 -0.1
v 0.2 0.1 -0.1
v 0.4 0.1 -0.1
v 1.3 0.1 -0.1
v 1.6 0.1 -0.1
v 0.1 0.1 -0.2
v 0.2 0.1 -0.2
v 0.4 0.1 -0.2
v 1.2 0.1 -0.2
v 1.3 0.1 -0.2
v 1.4 0.1 -0.2
v 1.5 0.1 -0.2
v 1.6 0.1 -0.2
v 1.7 0.1 -0.2
v 0.5 0.1 -0.3
v 1.2 0.1 -0.3
v 1.5 0.1 -0.3
v 1.6 0.1 -0.3
v 0.6 0.1 -0.4
v 1.2 0.1 -0.4
v 1.3 0.1 -0.4
v 1.4 0.1 -0.4
v 1.5 0.1 -0.4
v 1.6 0.1 -0.4
v 0.5 0.1 -0.5
v 0.6 0.1 -0.5
v 1.2 0.1 -0.5
v 1.3 0.1 -0.5
v 1.4 0.1 -0.5
v 0.5 0.1 -0.6
v 0.6 0.1 -0.6
v 1.7 0.1 -0.6
v 1.8 0.1 -0.6
v 1.5 0.1 -0.7
v 1.6 0.1 -0.7
v 1.7 0.1 -0.7
v 0.3 0.1 -0.8
v 0.4 0.1 -0.8
v 1.3 0.1 -0.9
v 1.4 0.1 -0.9
v 1.4 0.1 -1
v 1.5 0.1 -1
v 0.5 0.1 -1.1
v 0.6 0.1 -1.1
v 0.5 0.1 -1.2
v 0.6 0.1 -1.2
v 1.4 0.1 -1.2
v 1.5 0.1 -1.2
v 0.3 0.1 -1.3
v 0.4 0.1 -1.3
v 0.5 0.1 -1.3
v 1.3 0.1 -1.3
v 1.4 0.1 -1.3
v 0.4 0.1 -1.4
v 0.5 0.1 -1.4
v 1.5 0.1 -1.4
v 1.6 0.1 -1.4
v 1.4 0.1 -1.5
v 1.5 0.1 -1.5
v 0.1 0.1 -1.6
v 0.2 0.1 -1.6
v 0.5 0.1 -1.6
v 0.6 0.1 -1.6
v 0 0.1 -1.7
v 0.1 0.1 -1.7
v 1.6 0.1 -1.7
v 1.7 0.1 -1.7
v 0.2 0.1 -1.8
v 0.3 0.1 -1.8
v 0.4 0.1 -1.8
v 0.5 0.1 -1.8
v 1.7 0.1 -1.8
v 1.8 0.1 -1.8
v 0.1 0.1 -1.9
v 0.2 0.1 -1.9
v 0.3 0.1 -1.9
v 0.4 0.1 -1.9
v 0.5 0.1 -1.9
v 0.7 0.1 -1.9
v 0.8 0.1 -1.9
v 1.2 0.1 -1.9
v 1.4 0.1 -1.9
v 1.5 0.1 -1.9
v 1.6 0.1 -1.9
v 0.2 0.1 -2
v 0.4 0.1 -2
v 0.5 0.1 -2
v 0.7 0.1 -2
v 0.8 0.1 -2
v 1.2 0.1 -2
v 1.4 0.1 -2
v 1.5 0.1 -2
v 1.7 0.1 -2
v 0.4 0.1 -2.1
v 0.8 0.1 -2.1
v 1.2 0.1 -2.1
v 1.5 0.1 -2.1

# faces
f 3/3/1 2/3/1 1/3/1
f 4/3/1 2/3/1 3/3/1
f 9/3/1 6/3/1 5/3/1
f 10/3/1 6/3/1 9/3/1
f 11/3/1 8/3/1 7/3/1
f 12/3/1 8/3/1 11/3/1
f 15/3/1 14/3/1 13/3/1
f 16/3/1 14/3/1 15/3/1
f 19/3/1 18/3/1 17/3/1
f 20/3/1 18/3/1 19/3/1
f 25/3/1 22/3/1 21/3/1
f 26/3/1 22/3/1 25/3/1
f 27/3/1 24/3/1 23/3/1
f 28/3/1 24/3/1 27/3/1
f 31/3/1 30/3/1 29/3/1
f 32/3/1 30/3/1 31/3/1
f 33/3/2 34/3/2 35/3/2
f 35/3/2 34/3/2 36/3/2
f 37/3/2 38/3/2 39/3/2
f 39/3/2 38/3/2 40/3/2
f 41/3/2 42/3/2 43/3/2
f 43/3/2 42/3/2 44/3/2
f 45/3/2 46/3/2 47/3/2
f 47/3/2 46/3/2 48/3/2
f 49/3/2 50/3/2 53/3/2
f 53/3/2 50/3/2 54/3/2
f 51/3/2 52/3/2 55/3/2
f 55/3/2 52/3/2 56/3/2
f 57/3/2 58/3/2 59/3/2
f 59/3/2 58/3/2 60/3/2
f 63/3/3 62/3/3 61/3/3
f 64/3/3 62/3/3 63/3/3
f 67/3/3 66/3/3 65/3/3
f 68/3/3 66/3/3 67/3/3
f 71/3/3 70/3/3 69/3/3
f 72/3/3 70/3/3 71/3/3
f 75/3/3 74/3/3 73/3/3
f 76/3/3 74/3/3 75/3/3
f 79/3/3 78/3/3 77/3/3
f 80/3/3 78/3/3 79/3/3
f 83/3/3 82/3/3 81/3/3
f 84/3/3 82/3/3 83/3/3
f 87/3/3 86/3/3 85/3/3
f 88/3/3 86/3/3 87/3/3
f 89/3/4 90/3/4 91/3/4
f 91/3/4 90/3/4 92/3/4
f 93/3/4 94/3/4 95/3/4
f 95/3/4 94/3/4 96/3/4
f 97/3/4 98/3/4 99/3/4
f 99/3/4 98/3/4 100/3/4
f 101/3/4 102/3/4 103/3/4
f 103/3/4 102/3/4 104/3/4
f 105/3/4 106/3/4 107/3/4
f 107/3/4 106/3/4 108/3/4
f 109/3/4 110/3/4 111/3/4
f 111/3/4 110/3/4 112/3/4
f 113/3/4 114/3/4 115/3/4
f 115/3/4 114/3/4 116/3/4
f 117/3/4 118/3/4 119/3/4
f 119/3/4 118/3/4 120/3/4
f 124/3/5 122/3/5 121/3/5
f 125/3/5 122/3/5 124/3/5
f 126/3/5 122/3/5 125/3/5
f 129/3/5 124/3/5 123/3/5
f 129/3/5 125/3/5 124/3/5
f 130/2/5 126/2/5 125/2/5
f 130/3/5 125/3/5 129/3/5
f 131/3/5 122/3/5 126/3/5
f 131/2/5 126/2/5 130/2/5
f 133/3/5 128/3/5 127/3/5
f 134/3/5 128/3/5 133/3/5
f 135/3/5 128/3/5 134/3/5
f 136/3/5 128/3/5 135/3/5
f 138/3/5 122/3/5 131/3/5
f 139/3/5 133/3/5 132/3/5
f 139/3/5 134/3/5 133/3/5
f 140/3/5 137/3/5 136/3/5
f 140/3/5 136/3/5 135/3/5
f 140/2/5 135/2/5 134/2/5
f 141/3/5 137/3/5 140/3/5
f 142/3/5 139/3/5 138/3/5
f 143/3/5 134/3/5 139/3/5
f 143/3/5 139/3/5 142/3/5
f 144/3/5 134/3/5 143/3/5
f 145/2/5 140/2/5 134/2/5
f 145/3/5 134/3/5 144/3/5
f 146/1/5 141/1/5 140/1/5
f 146/2/5 140/2/5 145/2/5
f 147/3/5 137/3/5 141/3/5
f 147/1/5 141/1/5 146/1/5
f 148/3/5 138/3/5 131/3/5
f 148/3/5 142/3/5 138/3/5
f 149/1/5 143/1/5 142/1/5
f 149/3/5 142/3/5 148/3/5
f 150/2/5 144/2/5 143/2/5
f 150/1/5 143/1/5 149/1/5
f 151/3/5 146/3/5 145/3/5
f 151/2/5 144/2/5 150/2/5
f 151/3/5 145/3/5 144/3/5
f 152/3/5 146/3/5 151/3/5
f 153/2/5 149/2/5 148/2/5
f 153/3/5 148/3/5 131/3/5
f 154/1/5 150/1/5 149/1/5
f 154/2/5 149/2/5 153/2/5
f 154/1/5 152/1/5 151/1/5
f 154/1/5 151/1/5 150/1/5
f 155/3/5 137/3/5 147/3/5
f 157/2/5 147/2/5 146/2/5
f 157/3/5 146/3/5 152/3/5
f 158/3/5 156/3/5 155/3/5
f 158/2/5 147/2/5 157/2/5
f 158/3/5 155/3/5 147/3/5
f 159/3/5 156/3/5 158/3/5
f 160/1/5 130/1/5 129/1/5
f 160/1/5 131/1/5 130/1/5
f 161/3/5 153/3/5 131/3/5
f 161/1/5 131/1/5 160/1/5
f 162/1/5 152/1/5 154/1/5
f 162/1/5 154/1/5 153/1/5
f 163/3/5 157/3/5 152/3/5
f 163/1/5 152/1/5 162/1/5
f 164/3/5 163/3/5 162/3/5
f 164/3/5 157/3/5 163/3/5
f 165/1/5 159/1/5 158/1/5
f 165/3/5 157/3/5 164/3/5
f 165/1/5 158/1/5 157/1/5
f 166/3/5 153/3/5 161/3/5
f 166/1/5 162/1/5 153/1/5
f 167/1/5 162/1/5 166/1/5
f 168/3/5 166/3/5 161/3/5
f 168/2/5 167/2/5 166/2/5
f 169/1/5 162/1/5 167/1/5
f 169/2/5 167/2/5 168/2/5
f 170/3/5 164/3/5 162/3/5
f 170/2/5 165/2/5 164/2/5
f 171/1/5 159/1/5 165/1/5
f 171/2/5 165/2/5 170/2/5
f 172/1/5 160/1/5 129/1/5
f 172/2/5 161/2/5 160/2/5
f 173/3/5 169/3/5 168/3/5
f 173/2/5 161/2/5 172/2/5
f 173/3/5 168/3/5 161/3/5
f 174/3/5 169/3/5 173/3/5
f 175/1/5 162/1/5 169/1/5
f 175/3/5 170/3/5 162/3/5
f 175/3/5 171/3/5 170/3/5
f 176/3/5 171/3/5 175/3/5
f 177/2/5 174/2/5 173/2/5
f 177/1/5 173/1/5 172/1/5
f 178/3/5 169/3/5 174/3/5
f 178/2/5 174/2/5 177/2/5
f 179/1/5 159/1/5 171/1/5
f 179/3/5 171/3/5 176/3/5
f 180/1/5 159/1/5 179/1/5
f 181/1/5 176/1/5 175/1/5
f 181/3/5 179/3/5 176/3/5
f 182/2/5 180/2/5 179/2/5
f 182/3/5 179/3/5 181/3/5
f 183/3/5 129/3/5 123/3/5
f 183/1/5 177/1/5 172/1/5
f 183/1/5 178/1/5 177/1/5
f 183/1/5 172/1/5 129/1/5
f 184/1/5 178/1/5 183/1/5
f 185/3/5 169/3/5 178/3/5
f 185/1/5 178/1/5 184/1/5
f 186/1/5 182/1/5 181/1/5
f 186/3/5 169/3/5 185/3/5
f 186/1/5 181/1/5 175/1/5
f 186/1/5 175/1/5 169/1/5
f 187/3/5 184/3/5 183/3/5
f 187/3/5 183/3/5 123/3/5
f 188/3/5 184/3/5 187/3/5
f 189/2/5 180/2/5 182/2/5
f 189/1/5 159/1/5 180/1/5
f 190/3/5 156/3/5 159/3/5
f 190/1/5 159/1/5 189/1/5
f 191/3/5 184/3/5 188/3/5
f 191/1/5 185/1/5 184/1/5
f 191/1/5 186/1/5 185/1/5
f 192/1/5 186/1/5 191/1/5
f 193/1/5 186/1/5 192/1/5
f 194/1/5 186/1/5 193/1/5
f 195/3/5 156/3/5 190/3/5
f 195/3/5 190/3/5 189/3/5
f 196/3/5 156/3/5 195/3/5
f 197/3/5 191/3/5 188/3/5
f 197/3/5 192/3/5 191/3/5
f 198/3/5 192/3/5 197/3/5
f 199/1/5 193/1/5 192/1/5
f 199/3/5 192/3/5 198/3/5
f 200/2/5 194/2/5 193/2/5
f 200/1/5 193/1/5 199/1/5
f 201/1/5 186/1/5 194/1/5
f 201/2/5 194/2/5 200/2/5
f 202/1/5 182/1/5 186/1/5
f 202/1/5 186/1/5 201/1/5
f 203/1/5 182/1/5 202/1/5
f 204/1/5 182/1/5 203/1/5
f 205/1/5 182/1/5 204/1/5
f 206/2/5 189/2/5 182/2/5
f 206/1/5 182/1/5 205/1/5
f 207/3/5 195/3/5 189/3/5
f 207/2/5 189/2/5 206/2/5
f 208/3/5 201/3/5 200/3/5
f 208/3/5 200/3/5 199/3/5
f 208/3/5 199/3/5 198/3/5
f 209/3/5 201/3/5 208/3/5
f 210/2/5 202/2/5 201/2/5
f 210/3/5 201/3/5 209/3/5
f 211/1/5 203/1/5 202/1/5
f 211/2/5 202/2/5 210/2/5
f 212/3/5 204/3/5 203/3/5
f 212/1/5 203/1/5 211/1/5
f 213/2/5 205/2/5 204/2/5
f 213/3/5 204/3/5 212/3/5
f 214/3/5 207/3/5 206/3/5
f 214/2/5 205/2/5 213/2/5
f 214/3/5 206/3/5 205/3/5
f 215/3/5 207/3/5 214/3/5
f 216/3/5 195/3/5 207/3/5
f 216/3/5 207/3/5 215/3/5
f 217/3/5 212/3/5 211/3/5
f 217/3/5 211/3/5 210/3/5
f 217/3/5 210/3/5 209/3/5
f 218/3/5 212/3/5 217/3/5
f 219/3/5 215/3/5 214/3/5
f 219/3/5 214/3/5 213/3/5
f 220/3/5 215/3/5 219/3/5
f 221/3/6 222/3/6 224/3/6
f 224/3/6 222/3/6 225/3/6
f 225/3/6 222/3/6 226/3/6
f 223/3/6 224/3/6 229/3/6
f 224/3/6 225/3/6 229/3/6
f 225/2/6 226/2/6 230/2/6
f 229/3/6 225/3/6 230/3/6
f 226/3/6 222/3/6 231/3/6
f 230/2/6 226/2/6 231/2/6
f 227/3/6 228/3/6 233/3/6
f 233/3/6 228/3/6 234/3/6
f 234/3/6 228/3/6 235/3/6
f 235/3/6 228/3/6 236/3/6
f 231/3/6 222/3/6 238/3/6
f 232/3/6 233/3/6 239/3/6
f 233/3/6 234/3/6 239/3/6
f 236/3/6 237/3/6 240/3/6
f 235/3/6 236/3/6 240/3/6
f 234/2/6 235/2/6 240/2/6
f 240/3/6 237/3/6 241/3/6
f 238/3/6 239/3/6 242/3/6
f 239/3/6 234/3/6 243/3/6
f 242/3/6 239/3/6 243/3/6
f 243/3/6 234/3/6 244/3/6
f 234/2/6 240/2/6 245/2/6
f 244/3/6 234/3/6 245/3/6
f 240/1/6 241/1/6 246/1/6
f 245/2/6 240/2/6 246/2/6
f 241/3/6 237/3/6 247/3/6
f 246/1/6 241/1/6 247/1/6
f 231/3/6 238/3/6 248/3/6
f 238/3/6 242/3/6 248/3/6
f 242/1/6 243/1/6 249/1/6
f 248/3/6 242/3/6 249/3/6
f 243/2/6 244/2/6 250/2/6
f 249/1/6 243/1/6 250/1/6
f 245/3/6 246/3/6 251/3/6
f 250/2/6 244/2/6 251/2/6
f 244/3/6 245/3/6 251/3/6
f 251/3/6 246/3/6 252/3/6
f 248/2/6 249/2/6 253/2/6
f 231/3/6 248/3/6 253/3/6
f 249/1/6 250/1/6 254/1/6
f 253/2/6 249/2/6 254/2/6
f 251/1/6 252/1/6 254/1/6
f 250/1/6 251/1/6 254/1/6
f 247/3/6 237/3/6 255/3/6
f 246/2/6 247/2/6 257/2/6
f 252/3/6 246/3/6 257/3/6
f 255/3/6 256/3/6 258/3/6
f 257/2/6 247/2/6 258/2/6
f 247/3/6 255/3/6 258/3/6
f 258/3/6 256/3/6 259/3/6
f 229/1/6 230/1/6 260/1/6
f 230/1/6 231/1/6 260/1/6
f 231/3/6 253/3/6 261/3/6
f 260/1/6 231/1/6 261/1/6
f 254/1/6 252/1/6 262/1/6
f 253/1/6 254/1/6 262/1/6
f 252/3/6 257/3/6 263/3/6
f 262/1/6 252/1/6 263/1/6
f 262/3/6 263/3/6 264/3/6
f 263/3/6 257/3/6 264/3/6
f 258/1/6 259/1/6 265/1/6
f 264/3/6 257/3/6 265/3/6
f 257/1/6 258/1/6 265/1/6
f 261/3/6 253/3/6 266/3/6
f 253/1/6 262/1/6 266/1/6
f 266/1/6 262/1/6 267/1/6
f 261/3/6 266/3/6 268/3/6
f 266/2/6 267/2/6 268/2/6
f 267/1/6 262/1/6 269/1/6
f 268/2/6 267/2/6 269/2/6
f 262/3/6 264/3/6 270/3/6
f 264/2/6 265/2/6 270/2/6
f 265/1/6 259/1/6 271/1/6
f 270/2/6 265/2/6 271/2/6
f 229/1/6 260/1/6 272/1/6
f 260/2/6 261/2/6 272/2/6
f 268/3/6 269/3/6 273/3/6
f 272/2/6 261/2/6 273/2/6
f 261/3/6 268/3/6 273/3/6
f 273/3/6 269/3/6 274/3/6
f 269/1/6 262/1/6 275/1/6
f 262/3/6 270/3/6 275/3/6
f 270/3/6 271/3/6 275/3/6
f 275/3/6 271/3/6 276/3/6
f 273/2/6 274/2/6 277/2/6
f 272/1/6 273/1/6 277/1/6
f 274/3/6 269/3/6 278/3/6
f 277/2/6 274/2/6 278/2/6
f 271/1/6 259/1/6 279/1/6
f 276/3/6 271/3/6 279/3/6
f 279/1/6 259/1/6 280/1/6
f 275/1/6 276/1/6 281/1/6
f 276/3/6 279/3/6 281/3/6
f 279/2/6 280/2/6 282/2/6
f 281/3/6 279/3/6 282/3/6
f 223/3/6 229/3/6 283/3/6
f 272/1/6 277/1/6 283/1/6
f 277/1/6 278/1/6 283/1/6
f 229/1/6 272/1/6 283/1/6
f 283/1/6 278/1/6 284/1/6
f 278/3/6 269/3/6 285/3/6
f 284/1/6 278/1/6 285/1/6
f 281/1/6 282/1/6 286/1/6
f 285/3/6 269/3/6 286/3/6
f 275/1/6 281/1/6 286/1/6
f 269/1/6 275/1/6 286/1/6
f 283/3/6 284/3/6 287/3/6
f 223/3/6 283/3/6 287/3/6
f 287/3/6 284/3/6 288/3/6
f 282/2/6 280/2/6 289/2/6
f 280/1/6 259/1/6 289/1/6
f 259/3/6 256/3/6 290/3/6
f 289/1/6 259/1/6 290/1/6
f 288/3/6 284/3/6 291/3/6
f 284/1/6 285/1/6 291/1/6
f 285/1/6 286/1/6 291/1/6
f 291/1/6 286/1/6 292/1/6
f 292/1/6 286/1/6 293/1/6
f 293/1/6 286/1/6 294/1/6
f 290/3/6 256/3/6 295/3/6
f 289/3/6 290/3/6 295/3/6
f 295/3/6 256/3/6 296/3/6
f 288/3/6 291/3/6 297/3/6
f 291/3/6 292/3/6 297/3/6
f 297/3/6 292/3/6 298/3/6
f 292/1/6 293/1/6 299/1/6
f 298/3/6 292/3/6 299/3/6
f 293/2/6 294/2/6 300/2/6
f 299/1/6 293/1/6 300/1/6
f 294/1/6 286/1/6 301/1/6
f 300/2/6 294/2/6 301/2/6
f 286/1/6 282/1/6 302/1/6
f 301/1/6 286/1/6 302/1/6
f 302/1/6 282/1/6 303/1/6
f 303/1/6 282/1/6 304/1/6
f 304/1/6 282/1/6 305/1/6
f 282/2/6 289/2/6 306/2/6
f 305/1/6 282/1/6 306/1/6
f 289/3/6 295/3/6 307/3/6
f 306/2/6 289/2/6 307/2/6
f 300/3/6 301/3/6 308/3/6
f 299/3/6 300/3/6 308/3/6
f 298/3/6 299/3/6 308/3/6
f 308/3/6 301/3/6 309/3/6
f 301/2/6 302/2/6 310/2/6
f 309/3/6 301/3/6 310/3/6
f 302/1/6 303/1/6 311/1/6
f 310/2/6 302/2/6 311/2/6
f 303/3/6 304/3/6 312/3/6
f 311/1/6 303/1/6 312/1/6
f 304/2/6 305/2/6 313/2/6
f 312/3/6 304/3/6 313/3/6
f 306/3/6 307/3/6 314/3/6
f 313/2/6 305/2/6 314/2/6
f 305/3/6 306/3/6 314/3/6
f 314/3/6 307/3/6 315/3/6
f 307/3/6 295/3/6 316/3/6
f 315/3/6 307/3/6 316/3/6
f 311/3/6 312/3/6 317/3/6
f 310/3/6 311/3/6 317/3/6
f 309/3/6 310/3/6 317/3/6
f 317/3/6 312/3/6 318/3/6
f 314/3/6 315/3/6 319/3/6
f 313/3/6 314/3/6 319/3/6
f 319/3/6 315/3/6 320/3/6
