# MagicaVoxel @ Ephtracy

# group
o 

# material
mtllib CoffeeMachine.mtl
usemtl palette

# normals
vn -1 0 0
vn 1 0 0
vn 0 0 1
vn 0 0 -1
vn 0 -1 0
vn 0 1 0

# texcoords
vt 0.857422 0.5
vt 0.939453 0.5
vt 0.970703 0.5
vt 0.974609 0.5
vt 0.986328 0.5
vt 0.990234 0.5
vt 0.994141 0.5

# verts
v -0.4 0 0.7
v -0.4 0 -0.7
v -0.4 0.1 0.7
v -0.4 0.1 0.4
v -0.4 0.1 0.3
v -0.4 0.1 0
v -0.4 0.1 -0.7
v -0.4 0.2 0.2
v -0.4 0.2 0.1
v -0.4 0.4 0.6
v -0.4 0.4 0.5
v -0.4 0.4 0.4
v -0.4 0.4 0.3
v -0.4 0.6 0.2
v -0.4 0.6 0.1
v -0.4 0.8 0.7
v -0.4 0.8 0.6
v -0.4 0.8 0.5
v -0.4 0.8 0
v -0.4 0.8 -0.7
v -0.4 1 -0.2
v -0.4 1 -0.3
v -0.4 1 -0.4
v -0.4 1 -0.5
v -0.4 1.1 -0.2
v -0.4 1.1 -0.3
v -0.4 1.1 -0.4
v -0.4 1.1 -0.5
v -0.4 1.2 0.3
v -0.4 1.2 0.1
v -0.4 1.2 -0.2
v -0.4 1.2 -0.3
v -0.4 1.2 -0.4
v -0.4 1.2 -0.5
v -0.4 1.3 0.3
v -0.4 1.3 0.1
v -0.4 1.3 -0.2
v -0.4 1.3 -0.3
v -0.4 1.3 -0.4
v -0.4 1.3 -0.5
v -0.4 1.4 0.7
v -0.4 1.4 -0.7
v -0.3 0.1 -0.1
v -0.3 0.1 -0.6
v -0.3 0.2 -0.1
v -0.3 0.2 -0.6
v -0.2 0.2 -0.2
v -0.2 0.2 -0.5
v -0.2 0.3 -0.2
v -0.2 0.3 -0.5
v -0.2 0.5 -0.2
v -0.2 0.5 -0.5
v -0.2 0.6 -0.2
v -0.2 0.6 -0.5
v -0.2 1.4 0.5
v -0.2 1.4 0.2
v -0.2 1.4 -0.2
v -0.2 1.4 -0.5
v -0.2 1.5 0.5
v -0.2 1.5 0.2
v -0.2 1.5 -0.2
v -0.2 1.5 -0.5
v -0.1 0.2 0
v -0.1 0.2 -0.1
v -0.1 0.5 -0.1
v -0.1 0.5 -0.2
v -0.1 0.5 -0.5
v -0.1 0.5 -0.6
v -0.1 0.6 0
v -0.1 0.6 -0.2
v -0.1 0.6 -0.5
v -0.1 0.6 -0.6
v -0.1 1.4 0.6
v -0.1 1.4 0.5
v -0.1 1.4 0.2
v -0.1 1.4 0.1
v -0.1 1.4 -0.1
v -0.1 1.4 -0.2
v -0.1 1.4 -0.5
v -0.1 1.4 -0.6
v -0.1 1.5 0.6
v -0.1 1.5 0.5
v -0.1 1.5 0.2
v -0.1 1.5 0.1
v -0.1 1.5 -0.1
v -0.1 1.5 -0.2
v -0.1 1.5 -0.5
v -0.1 1.5 -0.6
v 0 1.4 0.4
v 0 1.4 0.3
v 0 1.5 0.4
v 0 1.5 0.3
v 0.2 0.1 -0.6
v 0.2 0.1 -0.7
v 0.2 0.2 -0.6
v 0.2 0.8 -0.6
v 0.2 0.8 -0.7
v 0.2 1.4 0.5
v 0.2 1.4 0.2
v 0.2 1.4 -0.2
v 0.2 1.4 -0.5
v 0.2 1.5 0.5
v 0.2 1.5 0.2
v 0.2 1.5 -0.2
v 0.2 1.5 -0.5
v 0.3 0.1 0
v 0.3 0.1 -0.6
v 0.3 0.8 0
v 0.3 0.8 -0.6
v -0.1 1.4 0.5
v -0.1 1.4 0.2
v -0.1 1.4 -0.2
v -0.1 1.4 -0.5
v -0.1 1.5 0.5
v -0.1 1.5 0.2
v -0.1 1.5 -0.2
v -0.1 1.5 -0.5
v 0 0.2 0
v 0 0.2 -0.1
v 0 0.5 -0.1
v 0 0.5 -0.2
v 0 0.5 -0.5
v 0 0.5 -0.6
v 0 0.6 0
v 0 0.6 -0.2
v 0 0.6 -0.5
v 0 0.6 -0.6
v 0.1 0.2 -0.2
v 0.1 0.2 -0.5
v 0.1 0.3 -0.2
v 0.1 0.3 -0.5
v 0.1 0.5 -0.2
v 0.1 0.5 -0.5
v 0.1 0.6 -0.2
v 0.1 0.6 -0.5
v 0.1 1.4 0.4
v 0.1 1.4 0.3
v 0.1 1.5 0.4
v 0.1 1.5 0.3
v 0.2 0.1 -0.1
v 0.2 0.1 -0.6
v 0.2 0.2 -0.1
v 0.2 0.2 -0.6
v 0.2 1.4 0.6
v 0.2 1.4 0.5
v 0.2 1.4 0.2
v 0.2 1.4 0.1
v 0.2 1.4 -0.1
v 0.2 1.4 -0.2
v 0.2 1.4 -0.5
v 0.2 1.4 -0.6
v 0.2 1.5 0.6
v 0.2 1.5 0.5
v 0.2 1.5 0.2
v 0.2 1.5 0.1
v 0.2 1.5 -0.1
v 0.2 1.5 -0.2
v 0.2 1.5 -0.5
v 0.2 1.5 -0.6
v 0.3 1.4 0.5
v 0.3 1.4 0.2
v 0.3 1.4 -0.2
v 0.3 1.4 -0.5
v 0.3 1.5 0.5
v 0.3 1.5 0.2
v 0.3 1.5 -0.2
v 0.3 1.5 -0.5
v 0.5 0 0.7
v 0.5 0 -0.7
v 0.5 1.4 0.7
v 0.5 1.4 -0.7
v -0.4 0 0.7
v -0.4 0.1 0.7
v -0.4 0.8 0.7
v -0.4 1.4 0.7
v -0.3 0.1 0.7
v -0.3 0.6 0.7
v -0.2 0.1 0.7
v -0.2 0.6 0.7
v -0.1 0.3 0.7
v -0.1 0.8 0.7
v 0 0.3 0.7
v 0 0.8 0.7
v 0.1 0.1 0.7
v 0.1 0.2 0.7
v 0.3 0.2 0.7
v 0.3 0.7 0.7
v 0.4 0.1 0.7
v 0.4 0.7 0.7
v 0.4 0.8 0.7
v 0.5 0 0.7
v 0.5 1.4 0.7
v -0.1 1.4 0.6
v -0.1 1.5 0.6
v 0.2 1.4 0.6
v 0.2 1.5 0.6
v -0.2 1.4 0.5
v -0.2 1.5 0.5
v -0.1 1.4 0.5
v -0.1 1.5 0.5
v 0.2 1.4 0.5
v 0.2 1.5 0.5
v 0.3 1.4 0.5
v 0.3 1.5 0.5
v 0 1.4 0.4
v 0 1.5 0.4
v 0.1 1.4 0.4
v 0.1 1.5 0.4
v -0.1 1.4 0.2
v -0.1 1.5 0.2
v 0.2 1.4 0.2
v 0.2 1.5 0.2
v -0.3 0.1 -0.1
v -0.3 0.2 -0.1
v -0.1 0.2 -0.1
v -0.1 1.4 -0.1
v -0.1 1.5 -0.1
v 0 0.2 -0.1
v 0.2 0.1 -0.1
v 0.2 0.2 -0.1
v 0.2 1.4 -0.1
v 0.2 1.5 -0.1
v -0.2 0.2 -0.2
v -0.2 0.3 -0.2
v -0.2 0.5 -0.2
v -0.2 0.6 -0.2
v -0.2 1.4 -0.2
v -0.2 1.5 -0.2
v -0.1 0.5 -0.2
v -0.1 0.6 -0.2
v -0.1 1.4 -0.2
v -0.1 1.5 -0.2
v 0 0.5 -0.2
v 0 0.6 -0.2
v 0.1 0.2 -0.2
v 0.1 0.3 -0.2
v 0.1 0.5 -0.2
v 0.1 0.6 -0.2
v 0.2 1.4 -0.2
v 0.2 1.5 -0.2
v 0.3 1.4 -0.2
v 0.3 1.5 -0.2
v -0.1 1.4 -0.5
v -0.1 1.5 -0.5
v 0.2 1.4 -0.5
v 0.2 1.5 -0.5
v 0.2 0.1 -0.6
v 0.2 0.2 -0.6
v 0.2 0.8 -0.6
v 0.3 0.1 -0.6
v 0.3 0.8 -0.6
v -0.1 1.4 0.5
v -0.1 1.5 0.5
v 0.2 1.4 0.5
v 0.2 1.5 0.5
v 0 1.4 0.3
v 0 1.5 0.3
v 0.1 1.4 0.3
v 0.1 1.5 0.3
v -0.2 1.4 0.2
v -0.2 1.5 0.2
v -0.1 1.4 0.2
v -0.1 1.5 0.2
v 0.2 1.4 0.2
v 0.2 1.5 0.2
v 0.3 1.4 0.2
v 0.3 1.5 0.2
v -0.1 1.4 0.1
v -0.1 1.5 0.1
v 0.2 1.4 0.1
v 0.2 1.5 0.1
v -0.4 0.1 0
v -0.4 0.8 0
v -0.3 0.1 0
v -0.3 0.8 0
v -0.1 0.2 0
v -0.1 0.6 0
v 0 0.2 0
v 0 0.6 0
v 0.3 0.1 0
v 0.3 0.8 0
v -0.1 0.2 -0.1
v -0.1 0.5 -0.1
v 0 0.2 -0.1
v 0 0.5 -0.1
v -0.1 1.4 -0.2
v -0.1 1.5 -0.2
v 0.2 1.4 -0.2
v 0.2 1.5 -0.2
v -0.2 0.2 -0.5
v -0.2 0.3 -0.5
v -0.2 0.5 -0.5
v -0.2 0.6 -0.5
v -0.2 1.4 -0.5
v -0.2 1.5 -0.5
v -0.1 0.5 -0.5
v -0.1 0.6 -0.5
v -0.1 1.4 -0.5
v -0.1 1.5 -0.5
v 0 0.5 -0.5
v 0 0.6 -0.5
v 0.1 0.2 -0.5
v 0.1 0.3 -0.5
v 0.1 0.5 -0.5
v 0.1 0.6 -0.5
v 0.2 1.4 -0.5
v 0.2 1.5 -0.5
v 0.3 1.4 -0.5
v 0.3 1.5 -0.5
v -0.3 0.1 -0.6
v -0.3 0.2 -0.6
v -0.1 0.5 -0.6
v -0.1 0.6 -0.6
v -0.1 1.4 -0.6
v -0.1 1.5 -0.6
v 0 0.5 -0.6
v 0 0.6 -0.6
v 0.2 0.1 -0.6
v 0.2 0.2 -0.6
v 0.2 1.4 -0.6
v 0.2 1.5 -0.6
v -0.4 0 -0.7
v -0.4 0.1 -0.7
v -0.4 0.8 -0.7
v -0.4 1.4 -0.7
v 0.2 0.1 -0.7
v 0.2 0.8 -0.7
v 0.5 0 -0.7
v 0.5 1.4 -0.7
v -0.4 0 0.7
v 0.5 0 0.7
v -0.4 0 -0.7
v 0.5 0 -0.7
v -0.1 0.2 0
v 0 0.2 0
v -0.1 0.2 -0.1
v 0 0.2 -0.1
v -0.1 0.5 -0.1
v 0 0.5 -0.1
v -0.2 0.5 -0.2
v -0.1 0.5 -0.2
v 0 0.5 -0.2
v 0.1 0.5 -0.2
v -0.1 0.5 -0.3
v 0 0.5 -0.3
v -0.1 0.5 -0.4
v 0 0.5 -0.4
v -0.2 0.5 -0.5
v -0.1 0.5 -0.5
v 0 0.5 -0.5
v 0.1 0.5 -0.5
v -0.1 0.5 -0.6
v 0 0.5 -0.6
v -0.4 0.8 0
v -0.3 0.8 0
v 0.3 0.8 0
v 0.2 0.8 -0.6
v 0.3 0.8 -0.6
v -0.4 0.8 -0.7
v 0.2 0.8 -0.7
v -0.4 0.1 0
v -0.3 0.1 0
v 0.3 0.1 0
v -0.3 0.1 -0.1
v 0.2 0.1 -0.1
v -0.3 0.1 -0.6
v 0.2 0.1 -0.6
v 0.3 0.1 -0.6
v -0.4 0.1 -0.7
v 0.2 0.1 -0.7
v -0.3 0.2 -0.1
v -0.1 0.2 -0.1
v 0 0.2 -0.1
v 0.2 0.2 -0.1
v -0.2 0.2 -0.2
v 0.1 0.2 -0.2
v -0.2 0.2 -0.5
v 0.1 0.2 -0.5
v -0.3 0.2 -0.6
v 0.2 0.2 -0.6
v -0.2 0.3 -0.2
v 0.1 0.3 -0.2
v -0.2 0.3 -0.5
v 0.1 0.3 -0.5
v -0.1 0.6 0
v 0 0.6 0
v -0.2 0.6 -0.2
v -0.1 0.6 -0.2
v 0 0.6 -0.2
v 0.1 0.6 -0.2
v -0.1 0.6 -0.3
v 0 0.6 -0.3
v -0.1 0.6 -0.4
v 0 0.6 -0.4
v -0.2 0.6 -0.5
v -0.1 0.6 -0.5
v 0 0.6 -0.5
v 0.1 0.6 -0.5
v -0.1 0.6 -0.6
v 0 0.6 -0.6
v -0.4 1.4 0.7
v 0.5 1.4 0.7
v -0.1 1.4 0.6
v 0.2 1.4 0.6
v -0.2 1.4 0.5
v -0.1 1.4 0.5
v 0.2 1.4 0.5
v 0.3 1.4 0.5
v 0 1.4 0.4
v 0.1 1.4 0.4
v 0 1.4 0.3
v 0.1 1.4 0.3
v -0.2 1.4 0.2
v -0.1 1.4 0.2
v 0.2 1.4 0.2
v 0.3 1.4 0.2
v -0.1 1.4 0.1
v 0.2 1.4 0.1
v -0.1 1.4 -0.1
v 0.2 1.4 -0.1
v -0.2 1.4 -0.2
v -0.1 1.4 -0.2
v 0.2 1.4 -0.2
v 0.3 1.4 -0.2
v -0.2 1.4 -0.5
v -0.1 1.4 -0.5
v 0.2 1.4 -0.5
v 0.3 1.4 -0.5
v -0.1 1.4 -0.6
v 0.2 1.4 -0.6
v -0.4 1.4 -0.7
v 0.5 1.4 -0.7
v -0.1 1.5 0.6
v 0.2 1.5 0.6
v -0.2 1.5 0.5
v -0.1 1.5 0.5
v 0.2 1.5 0.5
v 0.3 1.5 0.5
v 0 1.5 0.4
v 0.1 1.5 0.4
v 0 1.5 0.3
v 0.1 1.5 0.3
v -0.2 1.5 0.2
v -0.1 1.5 0.2
v 0.2 1.5 0.2
v 0.3 1.5 0.2
v -0.1 1.5 0.1
v 0.2 1.5 0.1
v -0.1 1.5 -0.1
v 0.2 1.5 -0.1
v -0.2 1.5 -0.2
v -0.1 1.5 -0.2
v 0.2 1.5 -0.2
v 0.3 1.5 -0.2
v -0.2 1.5 -0.5
v -0.1 1.5 -0.5
v 0.2 1.5 -0.5
v 0.3 1.5 -0.5
v -0.1 1.5 -0.6
v 0.2 1.5 -0.6

# faces
f 3/4/1 2/4/1 1/4/1
f 4/4/1 2/4/1 3/4/1
f 5/4/1 2/4/1 4/4/1
f 6/4/1 2/4/1 5/4/1
f 7/4/1 2/4/1 6/4/1
f 8/3/1 6/3/1 5/3/1
f 9/3/1 6/3/1 8/3/1
f 10/3/1 4/3/1 3/3/1
f 11/3/1 4/3/1 10/3/1
f 12/2/1 5/2/1 4/2/1
f 12/3/1 4/3/1 11/3/1
f 13/3/1 8/3/1 5/3/1
f 13/2/1 5/2/1 12/2/1
f 14/3/1 12/3/1 11/3/1
f 14/3/1 8/3/1 13/3/1
f 14/3/1 13/3/1 12/3/1
f 14/2/1 9/2/1 8/2/1
f 15/3/1 6/3/1 9/3/1
f 15/2/1 9/2/1 14/2/1
f 16/3/1 10/3/1 3/3/1
f 17/2/1 11/2/1 10/2/1
f 17/3/1 10/3/1 16/3/1
f 18/3/1 14/3/1 11/3/1
f 18/2/1 11/2/1 17/2/1
f 18/3/1 15/3/1 14/3/1
f 19/3/1 6/3/1 15/3/1
f 19/3/1 15/3/1 18/3/1
f 21/4/1 17/4/1 16/4/1
f 21/4/1 20/4/1 19/4/1
f 21/4/1 19/4/1 18/4/1
f 21/4/1 18/4/1 17/4/1
f 22/4/1 20/4/1 21/4/1
f 23/4/1 20/4/1 22/4/1
f 24/4/1 20/4/1 23/4/1
f 25/4/1 21/4/1 16/4/1
f 25/1/1 22/1/1 21/1/1
f 26/4/1 23/4/1 22/4/1
f 26/1/1 22/1/1 25/1/1
f 27/6/1 24/6/1 23/6/1
f 27/4/1 23/4/1 26/4/1
f 28/4/1 20/4/1 24/4/1
f 28/6/1 24/6/1 27/6/1
f 29/4/1 27/4/1 26/4/1
f 29/4/1 26/4/1 25/4/1
f 29/4/1 28/4/1 27/4/1
f 29/4/1 25/4/1 16/4/1
f 30/4/1 28/4/1 29/4/1
f 31/4/1 28/4/1 30/4/1
f 32/4/1 28/4/1 31/4/1
f 33/4/1 28/4/1 32/4/1
f 34/4/1 20/4/1 28/4/1
f 34/4/1 28/4/1 33/4/1
f 35/4/1 29/4/1 16/4/1
f 35/7/1 30/7/1 29/7/1
f 36/4/1 31/4/1 30/4/1
f 36/7/1 30/7/1 35/7/1
f 37/1/1 32/1/1 31/1/1
f 37/4/1 31/4/1 36/4/1
f 38/4/1 33/4/1 32/4/1
f 38/1/1 32/1/1 37/1/1
f 39/6/1 34/6/1 33/6/1
f 39/4/1 33/4/1 38/4/1
f 40/4/1 20/4/1 34/4/1
f 40/6/1 34/6/1 39/6/1
f 41/4/1 37/4/1 36/4/1
f 41/4/1 39/4/1 38/4/1
f 41/4/1 40/4/1 39/4/1
f 41/4/1 36/4/1 35/4/1
f 41/4/1 35/4/1 16/4/1
f 41/4/1 38/4/1 37/4/1
f 42/4/1 20/4/1 40/4/1
f 42/4/1 40/4/1 41/4/1
f 45/5/1 44/5/1 43/5/1
f 46/5/1 44/5/1 45/5/1
f 49/7/1 48/7/1 47/7/1
f 50/7/1 48/7/1 49/7/1
f 53/6/1 52/6/1 51/6/1
f 54/6/1 52/6/1 53/6/1
f 59/5/1 56/5/1 55/5/1
f 60/5/1 56/5/1 59/5/1
f 61/5/1 58/5/1 57/5/1
f 62/5/1 58/5/1 61/5/1
f 65/6/1 64/6/1 63/6/1
f 69/6/1 65/6/1 63/6/1
f 69/6/1 66/6/1 65/6/1
f 70/6/1 66/6/1 69/6/1
f 71/6/1 68/6/1 67/6/1
f 72/6/1 68/6/1 71/6/1
f 81/5/1 74/5/1 73/5/1
f 82/5/1 74/5/1 81/5/1
f 83/5/1 76/5/1 75/5/1
f 84/5/1 76/5/1 83/5/1
f 85/5/1 78/5/1 77/5/1
f 86/5/1 78/5/1 85/5/1
f 87/5/1 80/5/1 79/5/1
f 88/5/1 80/5/1 87/5/1
f 91/2/1 90/2/1 89/2/1
f 92/2/1 90/2/1 91/2/1
f 95/4/1 94/4/1 93/4/1
f 96/4/1 94/4/1 95/4/1
f 97/4/1 94/4/1 96/4/1
f 102/5/1 99/5/1 98/5/1
f 103/5/1 99/5/1 102/5/1
f 104/5/1 101/5/1 100/5/1
f 105/5/1 101/5/1 104/5/1
f 108/5/1 107/5/1 106/5/1
f 109/5/1 107/5/1 108/5/1
f 110/5/2 111/5/2 114/5/2
f 114/5/2 111/5/2 115/5/2
f 112/5/2 113/5/2 116/5/2
f 116/5/2 113/5/2 117/5/2
f 118/6/2 119/6/2 120/6/2
f 118/6/2 120/6/2 124/6/2
f 120/6/2 121/6/2 124/6/2
f 124/6/2 121/6/2 125/6/2
f 122/6/2 123/6/2 126/6/2
f 126/6/2 123/6/2 127/6/2
f 128/7/2 129/7/2 130/7/2
f 130/7/2 129/7/2 131/7/2
f 132/6/2 133/6/2 134/6/2
f 134/6/2 133/6/2 135/6/2
f 136/2/2 137/2/2 138/2/2
f 138/2/2 137/2/2 139/2/2
f 140/5/2 141/5/2 142/5/2
f 142/5/2 141/5/2 143/5/2
f 144/5/2 145/5/2 152/5/2
f 152/5/2 145/5/2 153/5/2
f 146/5/2 147/5/2 154/5/2
f 154/5/2 147/5/2 155/5/2
f 148/5/2 149/5/2 156/5/2
f 156/5/2 149/5/2 157/5/2
f 150/5/2 151/5/2 158/5/2
f 158/5/2 151/5/2 159/5/2
f 160/5/2 161/5/2 164/5/2
f 164/5/2 161/5/2 165/5/2
f 162/5/2 163/5/2 166/5/2
f 166/5/2 163/5/2 167/5/2
f 168/4/2 169/4/2 170/4/2
f 170/4/2 169/4/2 171/4/2
f 176/4/3 173/4/3 172/4/3
f 176/3/3 174/3/3 173/3/3
f 177/3/3 174/3/3 176/3/3
f 178/4/3 176/4/3 172/4/3
f 178/2/3 177/2/3 176/2/3
f 179/3/3 174/3/3 177/3/3
f 179/2/3 177/2/3 178/2/3
f 180/3/3 179/3/3 178/3/3
f 181/4/3 175/4/3 174/4/3
f 181/3/3 179/3/3 180/3/3
f 181/3/3 174/3/3 179/3/3
f 182/3/3 180/3/3 178/3/3
f 182/2/3 181/2/3 180/2/3
f 183/4/3 175/4/3 181/4/3
f 183/2/3 181/2/3 182/2/3
f 184/3/3 182/3/3 178/3/3
f 184/4/3 178/4/3 172/4/3
f 184/3/3 183/3/3 182/3/3
f 185/3/3 183/3/3 184/3/3
f 186/2/3 185/2/3 184/2/3
f 186/3/3 183/3/3 185/3/3
f 187/3/3 183/3/3 186/3/3
f 188/4/3 184/4/3 172/4/3
f 188/2/3 186/2/3 184/2/3
f 188/2/3 187/2/3 186/2/3
f 189/3/3 183/3/3 187/3/3
f 189/2/3 187/2/3 188/2/3
f 190/4/3 175/4/3 183/4/3
f 190/3/3 183/3/3 189/3/3
f 191/4/3 189/4/3 188/4/3
f 191/4/3 188/4/3 172/4/3
f 191/4/3 190/4/3 189/4/3
f 192/4/3 175/4/3 190/4/3
f 192/4/3 190/4/3 191/4/3
f 195/5/3 194/5/3 193/5/3
f 196/5/3 194/5/3 195/5/3
f 199/5/3 198/5/3 197/5/3
f 200/5/3 198/5/3 199/5/3
f 203/5/3 202/5/3 201/5/3
f 204/5/3 202/5/3 203/5/3
f 207/2/3 206/2/3 205/2/3
f 208/2/3 206/2/3 207/2/3
f 211/5/3 210/5/3 209/5/3
f 212/5/3 210/5/3 211/5/3
f 215/5/3 214/5/3 213/5/3
f 218/5/3 215/5/3 213/5/3
f 219/5/3 218/5/3 213/5/3
f 220/5/3 218/5/3 219/5/3
f 221/5/3 217/5/3 216/5/3
f 222/5/3 217/5/3 221/5/3
f 229/6/3 226/6/3 225/6/3
f 230/6/3 226/6/3 229/6/3
f 231/5/3 228/5/3 227/5/3
f 232/5/3 228/5/3 231/5/3
f 235/7/3 224/7/3 223/7/3
f 236/7/3 224/7/3 235/7/3
f 237/6/3 234/6/3 233/6/3
f 238/6/3 234/6/3 237/6/3
f 241/5/3 240/5/3 239/5/3
f 242/5/3 240/5/3 241/5/3
f 245/5/3 244/5/3 243/5/3
f 246/5/3 244/5/3 245/5/3
f 250/4/3 248/4/3 247/4/3
f 250/4/3 249/4/3 248/4/3
f 251/4/3 249/4/3 250/4/3
f 252/5/4 253/5/4 254/5/4
f 254/5/4 253/5/4 255/5/4
f 256/2/4 257/2/4 258/2/4
f 258/2/4 257/2/4 259/2/4
f 260/5/4 261/5/4 262/5/4
f 262/5/4 261/5/4 263/5/4
f 264/5/4 265/5/4 266/5/4
f 266/5/4 265/5/4 267/5/4
f 268/5/4 269/5/4 270/5/4
f 270/5/4 269/5/4 271/5/4
f 272/3/4 273/3/4 274/3/4
f 274/3/4 273/3/4 275/3/4
f 274/2/4 275/2/4 276/2/4
f 276/2/4 275/2/4 277/2/4
f 274/2/4 276/2/4 278/2/4
f 277/2/4 275/2/4 279/2/4
f 274/2/4 278/2/4 280/2/4
f 278/2/4 279/2/4 280/2/4
f 279/2/4 275/2/4 281/2/4
f 280/2/4 279/2/4 281/2/4
f 282/6/4 283/6/4 284/6/4
f 284/6/4 283/6/4 285/6/4
f 286/5/4 287/5/4 288/5/4
f 288/5/4 287/5/4 289/5/4
f 292/6/4 293/6/4 296/6/4
f 296/6/4 293/6/4 297/6/4
f 294/5/4 295/5/4 298/5/4
f 298/5/4 295/5/4 299/5/4
f 290/7/4 291/7/4 302/7/4
f 302/7/4 291/7/4 303/7/4
f 300/6/4 301/6/4 304/6/4
f 304/6/4 301/6/4 305/6/4
f 306/5/4 307/5/4 308/5/4
f 308/5/4 307/5/4 309/5/4
f 312/6/4 313/6/4 316/6/4
f 316/6/4 313/6/4 317/6/4
f 310/5/4 311/5/4 318/5/4
f 318/5/4 311/5/4 319/5/4
f 314/5/4 315/5/4 320/5/4
f 320/5/4 315/5/4 321/5/4
f 322/4/4 323/4/4 326/4/4
f 324/4/4 325/4/4 327/4/4
f 322/4/4 326/4/4 328/4/4
f 326/4/4 327/4/4 328/4/4
f 327/4/4 325/4/4 329/4/4
f 328/4/4 327/4/4 329/4/4
f 332/4/5 331/4/5 330/4/5
f 333/4/5 331/4/5 332/4/5
f 336/6/5 335/6/5 334/6/5
f 337/6/5 335/6/5 336/6/5
f 341/6/5 339/6/5 338/6/5
f 342/6/5 339/6/5 341/6/5
f 344/6/5 341/6/5 340/6/5
f 344/6/5 343/6/5 342/6/5
f 344/6/5 342/6/5 341/6/5
f 345/6/5 343/6/5 344/6/5
f 346/6/5 344/6/5 340/6/5
f 346/5/5 345/5/5 344/5/5
f 347/6/5 343/6/5 345/6/5
f 347/5/5 345/5/5 346/5/5
f 348/6/5 346/6/5 340/6/5
f 348/6/5 347/6/5 346/6/5
f 349/6/5 347/6/5 348/6/5
f 350/6/5 343/6/5 347/6/5
f 350/6/5 347/6/5 349/6/5
f 351/6/5 343/6/5 350/6/5
f 352/6/5 350/6/5 349/6/5
f 353/6/5 350/6/5 352/6/5
f 357/4/5 355/4/5 354/4/5
f 357/4/5 356/4/5 355/4/5
f 358/4/5 356/4/5 357/4/5
f 359/4/5 357/4/5 354/4/5
f 360/4/5 357/4/5 359/4/5
f 361/4/6 362/4/6 364/4/6
f 362/4/6 363/4/6 364/4/6
f 364/4/6 363/4/6 365/4/6
f 361/4/6 364/4/6 366/4/6
f 365/4/6 363/4/6 367/4/6
f 367/4/6 363/4/6 368/4/6
f 361/4/6 366/4/6 369/4/6
f 366/4/6 367/4/6 369/4/6
f 369/4/6 367/4/6 370/4/6
f 371/5/6 372/5/6 375/5/6
f 373/5/6 374/5/6 375/5/6
f 372/5/6 373/5/6 375/5/6
f 375/5/6 374/5/6 376/5/6
f 371/5/6 375/5/6 377/5/6
f 376/5/6 374/5/6 378/5/6
f 371/5/6 377/5/6 379/5/6
f 377/5/6 378/5/6 379/5/6
f 378/5/6 374/5/6 380/5/6
f 379/5/6 378/5/6 380/5/6
f 381/7/6 382/7/6 383/7/6
f 383/7/6 382/7/6 384/7/6
f 385/6/6 386/6/6 388/6/6
f 388/6/6 386/6/6 389/6/6
f 387/6/6 388/6/6 391/6/6
f 389/6/6 390/6/6 391/6/6
f 388/6/6 389/6/6 391/6/6
f 391/6/6 390/6/6 392/6/6
f 387/6/6 391/6/6 393/6/6
f 391/5/6 392/5/6 393/5/6
f 392/6/6 390/6/6 394/6/6
f 393/5/6 392/5/6 394/5/6
f 387/6/6 393/6/6 395/6/6
f 393/6/6 394/6/6 395/6/6
f 395/6/6 394/6/6 396/6/6
f 394/6/6 390/6/6 397/6/6
f 396/6/6 394/6/6 397/6/6
f 397/6/6 390/6/6 398/6/6
f 396/6/6 397/6/6 399/6/6
f 399/6/6 397/6/6 400/6/6
f 401/4/6 402/4/6 403/4/6
f 403/4/6 402/4/6 404/4/6
f 401/4/6 403/4/6 405/4/6
f 405/4/6 403/4/6 406/4/6
f 404/4/6 402/4/6 407/4/6
f 407/4/6 402/4/6 408/4/6
f 406/4/6 407/4/6 409/4/6
f 409/4/6 407/4/6 410/4/6
f 406/4/6 409/4/6 411/4/6
f 410/4/6 407/4/6 412/4/6
f 401/4/6 405/4/6 413/4/6
f 411/4/6 412/4/6 414/4/6
f 406/4/6 411/4/6 414/4/6
f 412/4/6 407/4/6 415/4/6
f 414/4/6 412/4/6 415/4/6
f 408/4/6 402/4/6 416/4/6
f 413/4/6 414/4/6 417/4/6
f 415/4/6 416/4/6 418/4/6
f 413/4/6 417/4/6 419/4/6
f 417/4/6 418/4/6 419/4/6
f 418/4/6 416/4/6 420/4/6
f 419/4/6 418/4/6 420/4/6
f 413/4/6 419/4/6 421/4/6
f 401/4/6 413/4/6 421/4/6
f 421/4/6 419/4/6 422/4/6
f 420/4/6 416/4/6 423/4/6
f 416/4/6 402/4/6 424/4/6
f 423/4/6 416/4/6 424/4/6
f 401/4/6 421/4/6 425/4/6
f 422/4/6 423/4/6 426/4/6
f 426/4/6 423/4/6 427/4/6
f 424/4/6 402/4/6 428/4/6
f 425/4/6 426/4/6 429/4/6
f 427/4/6 428/4/6 430/4/6
f 425/4/6 429/4/6 431/4/6
f 429/4/6 430/4/6 431/4/6
f 401/4/6 425/4/6 431/4/6
f 430/4/6 428/4/6 432/4/6
f 431/4/6 430/4/6 432/4/6
f 428/4/6 402/4/6 432/4/6
f 433/5/6 434/5/6 436/5/6
f 436/5/6 434/5/6 437/5/6
f 439/2/6 440/2/6 441/2/6
f 441/2/6 440/2/6 442/2/6
f 435/5/6 436/5/6 443/5/6
f 443/5/6 436/5/6 444/5/6
f 437/5/6 438/5/6 445/5/6
f 445/5/6 438/5/6 446/5/6
f 444/5/6 445/5/6 447/5/6
f 447/5/6 445/5/6 448/5/6
f 449/5/6 450/5/6 452/5/6
f 452/5/6 450/5/6 453/5/6
f 451/5/6 452/5/6 455/5/6
f 455/5/6 452/5/6 456/5/6
f 453/5/6 454/5/6 457/5/6
f 457/5/6 454/5/6 458/5/6
f 456/5/6 457/5/6 459/5/6
f 459/5/6 457/5/6 460/5/6
