# Blender v2.79 (sub 0) OBJ File: ''
# www.blender.org
mtllib LowerRightArm.mtl
o LowerRightArm
v -0.149116 -0.900002 0.048458
v -0.149116 -1.000001 -0.151542
v -0.149116 -1.000001 0.148458
v -0.149116 -0.900002 -0.051542
v -0.149116 -0.000001 0.148458
v -0.149116 -0.000001 0.048458
v -0.149116 -0.000001 -0.051542
v -0.149116 -0.000001 -0.151542
v 0.050884 -0.700001 0.048458
v 0.050884 -0.900002 -0.051542
v 0.050884 -0.900002 0.048458
v 0.050884 -0.700001 -0.051542
v 0.050884 -0.600001 0.048458
v 0.050884 -0.600001 -0.051542
v 0.050884 -0.100001 0.048458
v 0.050884 -0.100001 -0.051542
v -0.049116 -0.900002 0.048458
v -0.049116 -0.900002 -0.051542
v -0.049116 -0.700001 0.048458
v -0.049116 -0.700001 -0.051542
v -0.049116 -0.600001 0.048458
v -0.049116 -0.600001 -0.051542
v -0.049116 -0.100001 0.048458
v -0.049116 -0.100001 -0.051542
v 0.150884 -1.000001 0.148458
v 0.150884 -1.000001 -0.151542
v 0.150884 -0.900002 0.148458
v 0.150884 -0.900002 0.048458
v 0.150884 -0.900002 -0.051542
v 0.150884 -0.900002 -0.151542
v 0.150884 -0.700001 0.148458
v 0.150884 -0.700001 0.048458
v 0.150884 -0.700001 -0.051542
v 0.150884 -0.700001 -0.151542
v 0.150884 -0.600001 0.048458
v 0.150884 -0.600001 -0.051542
v 0.150884 -0.000001 0.148458
v 0.150884 -0.000001 0.048458
v 0.150884 -0.000001 -0.051542
v 0.150884 -0.000001 -0.151542
v -0.049116 -0.900002 0.148458
v -0.149116 -0.000001 0.148458
v -0.149116 -1.000001 0.148458
v -0.049116 -0.700001 0.148458
v -0.049116 -0.600001 0.148458
v -0.049116 -0.000001 0.148458
v 0.050884 -0.600001 0.148458
v 0.050884 -0.000001 0.148458
v 0.150884 -1.000001 0.148458
v 0.150884 -0.900002 0.148458
v 0.150884 -0.700001 0.148458
v 0.150884 -0.000001 0.148458
v 0.050884 -0.900002 -0.051542
v -0.049116 -0.700001 -0.051542
v -0.049116 -0.900002 -0.051542
v 0.050884 -0.700001 -0.051542
v -0.049116 -0.600001 -0.051542
v 0.050884 -0.600001 -0.051542
v -0.049116 -0.100001 -0.051542
v 0.050884 -0.100001 -0.051542
v -0.049116 -0.900002 0.048458
v -0.049116 -0.700001 0.048458
v 0.050884 -0.900002 0.048458
v -0.049116 -0.600001 0.048458
v 0.050884 -0.700001 0.048458
v -0.049116 -0.100001 0.048458
v 0.050884 -0.600001 0.048458
v 0.050884 -0.100001 0.048458
v -0.149116 -1.000001 -0.151542
v -0.149116 -0.000001 -0.151542
v -0.049116 -0.900002 -0.151542
v -0.049116 -0.700001 -0.151542
v -0.049116 -0.600001 -0.151542
v -0.049116 -0.000001 -0.151542
v 0.050884 -0.600001 -0.151542
v 0.050884 -0.000001 -0.151542
v 0.150884 -1.000001 -0.151542
v 0.150884 -0.900002 -0.151542
v 0.150884 -0.700001 -0.151542
v 0.150884 -0.000001 -0.151542
v -0.049116 -1.000001 0.048458
v 0.150884 -1.000001 0.148458
v -0.149116 -1.000001 0.148458
v 0.050884 -1.000001 0.048458
v -0.049116 -1.000001 -0.051542
v 0.050884 -1.000001 -0.051542
v -0.149116 -1.000001 -0.151542
v 0.150884 -1.000001 -0.151542
v -0.049116 -0.100001 -0.051542
v 0.050884 -0.100001 0.048458
v -0.049116 -0.100001 0.048458
v 0.050884 -0.100001 -0.051542
v -0.049116 -0.900002 0.048458
v 0.050884 -0.900002 0.048458
v -0.049116 -0.900002 -0.051542
v 0.050884 -0.900002 -0.051542
v -0.149116 -0.000001 0.148458
v -0.049116 -0.000001 0.148458
v -0.149116 -0.000001 0.048458
v 0.050884 -0.000001 0.148458
v -0.049116 -0.000001 0.048458
v 0.150884 -0.000001 0.148458
v 0.050884 -0.000001 0.048458
v 0.150884 -0.000001 0.048458
v -0.149116 -0.000001 -0.051542
v -0.049116 -0.000001 -0.051542
v 0.050884 -0.000001 -0.051542
v 0.150884 -0.000001 -0.051542
v -0.149116 -0.000001 -0.151542
v -0.049116 -0.000001 -0.151542
v 0.050884 -0.000001 -0.151542
v 0.150884 -0.000001 -0.151542
vt 0.994141 0.500000
vt 0.994141 0.500000
vt 0.994141 0.500000
vt 0.994141 0.500000
vt 0.994141 0.500000
vt 0.986328 0.500000
vt 0.986328 0.500000
vt 0.986328 0.500000
vt 0.994141 0.500000
vt 0.994141 0.500000
vt 0.986328 0.500000
vt 0.994141 0.500000
vt 0.974609 0.500000
vt 0.974609 0.500000
vt 0.974609 0.500000
vt 0.974609 0.500000
vt 0.994141 0.500000
vt 0.994141 0.500000
vt 0.994141 0.500000
vt 0.994141 0.500000
vt 0.986328 0.500000
vt 0.986328 0.500000
vt 0.986328 0.500000
vt 0.986328 0.500000
vt 0.986328 0.500000
vt 0.986328 0.500000
vt 0.986328 0.500000
vt 0.986328 0.500000
vt 0.986328 0.500000
vt 0.986328 0.500000
vt 0.986328 0.500000
vt 0.986328 0.500000
vt 0.994141 0.500000
vt 0.994141 0.500000
vt 0.994141 0.500000
vt 0.994141 0.500000
vt 0.994141 0.500000
vt 0.994141 0.500000
vt 0.970703 0.500000
vt 0.970703 0.500000
vt 0.970703 0.500000
vt 0.974609 0.500000
vt 0.974609 0.500000
vt 0.974609 0.500000
vt 0.970703 0.500000
vt 0.970703 0.500000
vt 0.970703 0.500000
vt 0.970703 0.500000
vt 0.974609 0.500000
vt 0.970703 0.500000
vt 0.994141 0.500000
vt 0.994141 0.500000
vt 0.994141 0.500000
vt 0.994141 0.500000
vt 0.994141 0.500000
vt 0.994141 0.500000
vt 0.994141 0.500000
vt 0.986328 0.500000
vt 0.986328 0.500000
vt 0.986328 0.500000
vt 0.994141 0.500000
vt 0.994141 0.500000
vt 0.986328 0.500000
vt 0.994141 0.500000
vt 0.994141 0.500000
vt 0.994141 0.500000
vt 0.994141 0.500000
vt 0.994141 0.500000
vt 0.994141 0.500000
vt 0.994141 0.500000
vt 0.994141 0.500000
vt 0.986328 0.500000
vt 0.986328 0.500000
vt 0.986328 0.500000
vt 0.986328 0.500000
vt 0.994141 0.500000
vt 0.970703 0.500000
vt 0.970703 0.500000
vt 0.970703 0.500000
vt 0.994141 0.500000
vt 0.994141 0.500000
vt 0.970703 0.500000
vt 0.994141 0.500000
vt 0.994141 0.500000
vt 0.970703 0.500000
vt 0.970703 0.500000
vt 0.970703 0.500000
vt 0.994141 0.500000
vt 0.994141 0.500000
vt 0.994141 0.500000
vt 0.970703 0.500000
vt 0.986328 0.500000
vt 0.986328 0.500000
vt 0.986328 0.500000
vt 0.994141 0.500000
vt 0.986328 0.500000
vt 0.970703 0.500000
vt 0.970703 0.500000
vt 0.970703 0.500000
vt 0.994141 0.500000
vt 0.994141 0.500000
vt 0.994141 0.500000
vt 0.970703 0.500000
vt 0.986328 0.500000
vt 0.986328 0.500000
vt 0.986328 0.500000
vt 0.994141 0.500000
vt 0.986328 0.500000
vt 0.994141 0.500000
vt 0.994141 0.500000
vt 0.994141 0.500000
vt 0.994141 0.500000
vt 0.994141 0.500000
vt 0.994141 0.500000
vt 0.994141 0.500000
vt 0.986328 0.500000
vt 0.986328 0.500000
vt 0.986328 0.500000
vt 0.986328 0.500000
vt 0.994141 0.500000
vt 0.970703 0.500000
vt 0.970703 0.500000
vt 0.970703 0.500000
vt 0.994141 0.500000
vt 0.994141 0.500000
vt 0.970703 0.500000
vt 0.994141 0.500000
vt 0.994141 0.500000
vt 0.994141 0.500000
vt 0.994141 0.500000
vt 0.994141 0.500000
vt 0.994141 0.500000
vt 0.994141 0.500000
vt 0.986328 0.500000
vt 0.986328 0.500000
vt 0.986328 0.500000
vt 0.994141 0.500000
vt 0.986328 0.500000
vt 0.994141 0.500000
vt 0.994141 0.500000
vt 0.986328 0.500000
vt 0.986328 0.500000
vt 0.986328 0.500000
vt 0.986328 0.500000
vt 0.986328 0.500000
vt 0.986328 0.500000
vt 0.986328 0.500000
vt 0.986328 0.500000
vt 0.994141 0.500000
vt 0.994141 0.500000
vt 0.994141 0.500000
vt 0.986328 0.500000
vt 0.986328 0.500000
vt 0.986328 0.500000
vt 0.994141 0.500000
vt 0.994141 0.500000
vt 0.994141 0.500000
vt 0.994141 0.500000
vt 0.986328 0.500000
vt 0.994141 0.500000
vt 0.986328 0.500000
vt 0.986328 0.500000
vt 0.986328 0.500000
vt 0.986328 0.500000
vt 0.986328 0.500000
vt 0.986328 0.500000
vt 0.994141 0.500000
vt 0.994141 0.500000
vt 0.994141 0.500000
vt 0.986328 0.500000
vt 0.994141 0.500000
vt 0.994141 0.500000
vt 0.994141 0.500000
vt 0.994141 0.500000
vt 0.986328 0.500000
vt 0.994141 0.500000
vn -1.0000 0.0000 0.0000
vn 1.0000 0.0000 0.0000
vn 0.0000 -0.0000 1.0000
vn 0.0000 0.0000 -1.0000
vn 0.0000 -1.0000 -0.0000
vn 0.0000 1.0000 0.0000
usemtl palette.004
s 1
f 1/1/1 2/2/1 3/3/1
f 4/4/1 2/2/1 1/1/1
f 5/5/1 1/1/1 3/3/1
f 6/6/1 4/7/1 1/8/1
f 6/9/1 1/1/1 5/5/1
f 7/10/1 2/2/1 4/4/1
f 7/11/1 4/7/1 6/6/1
f 8/12/1 2/2/1 7/10/1
f 9/13/1 10/14/1 11/15/1
f 12/16/1 10/14/1 9/13/1
f 13/17/1 12/18/1 9/19/1
f 14/20/1 12/18/1 13/17/1
f 15/21/1 14/22/1 13/23/1
f 16/24/1 14/22/1 15/21/1
f 17/25/2 18/26/2 19/27/2
f 19/27/2 18/26/2 20/28/2
f 19/27/2 20/28/2 21/29/2
f 21/29/2 20/28/2 22/30/2
f 21/29/2 22/30/2 23/31/2
f 23/31/2 22/30/2 24/32/2
f 25/33/2 26/34/2 27/35/2
f 27/35/2 26/34/2 28/36/2
f 28/36/2 26/34/2 29/37/2
f 29/37/2 26/34/2 30/38/2
f 27/39/2 28/40/2 31/41/2
f 28/42/2 29/43/2 32/44/2
f 31/41/2 28/40/2 32/45/2
f 29/46/2 30/47/2 33/48/2
f 32/44/2 29/43/2 33/49/2
f 33/48/2 30/47/2 34/50/2
f 31/51/2 32/52/2 35/53/2
f 32/52/2 33/54/2 35/53/2
f 33/54/2 34/55/2 35/53/2
f 35/53/2 34/55/2 36/56/2
f 31/51/2 35/53/2 37/57/2
f 35/58/2 36/59/2 38/60/2
f 37/57/2 35/53/2 38/61/2
f 36/56/2 34/55/2 39/62/2
f 38/60/2 36/59/2 39/63/2
f 39/62/2 34/55/2 40/64/2
f 41/65/3 42/66/3 43/67/3
f 44/68/3 42/66/3 41/65/3
f 45/69/3 42/66/3 44/68/3
f 46/70/3 42/66/3 45/69/3
f 47/71/3 45/69/3 44/68/3
f 47/72/3 46/73/3 45/74/3
f 48/75/3 46/73/3 47/72/3
f 49/76/3 41/65/3 43/67/3
f 50/77/3 44/78/3 41/79/3
f 50/80/3 41/65/3 49/76/3
f 51/81/3 47/71/3 44/68/3
f 51/82/3 44/78/3 50/77/3
f 51/81/3 48/83/3 47/71/3
f 52/84/3 48/83/3 51/81/3
f 53/85/3 54/86/3 55/87/3
f 56/88/3 57/89/3 54/90/3
f 56/91/3 54/86/3 53/85/3
f 58/92/3 59/93/3 57/94/3
f 58/95/3 57/89/3 56/88/3
f 60/96/3 59/93/3 58/92/3
f 61/97/4 62/98/4 63/99/4
f 62/100/4 64/101/4 65/102/4
f 63/99/4 62/98/4 65/103/4
f 64/104/4 66/105/4 67/106/4
f 65/102/4 64/101/4 67/107/4
f 67/106/4 66/105/4 68/108/4
f 69/109/4 70/110/4 71/111/4
f 71/111/4 70/110/4 72/112/4
f 72/112/4 70/110/4 73/113/4
f 73/113/4 70/110/4 74/114/4
f 72/112/4 73/113/4 75/115/4
f 73/116/4 74/117/4 75/118/4
f 75/118/4 74/117/4 76/119/4
f 69/109/4 71/111/4 77/120/4
f 71/121/4 72/122/4 78/123/4
f 77/120/4 71/111/4 78/124/4
f 72/112/4 75/115/4 79/125/4
f 78/123/4 72/122/4 79/126/4
f 75/115/4 76/127/4 79/125/4
f 79/125/4 76/127/4 80/128/4
f 81/129/5 82/130/5 83/131/5
f 84/132/5 82/130/5 81/129/5
f 85/133/5 81/129/5 83/131/5
f 85/134/5 84/135/5 81/136/5
f 86/137/5 82/130/5 84/132/5
f 86/138/5 84/135/5 85/134/5
f 87/139/5 85/133/5 83/131/5
f 87/139/5 86/137/5 85/133/5
f 88/140/5 82/130/5 86/137/5
f 88/140/5 86/137/5 87/139/5
f 89/141/5 90/142/5 91/143/5
f 92/144/5 90/142/5 89/141/5
f 93/145/6 94/146/6 95/147/6
f 95/147/6 94/146/6 96/148/6
f 97/149/6 98/150/6 99/151/6
f 98/152/6 100/153/6 101/154/6
f 99/151/6 98/150/6 101/155/6
f 100/156/6 102/157/6 103/158/6
f 101/154/6 100/153/6 103/159/6
f 103/158/6 102/157/6 104/160/6
f 99/161/6 101/154/6 105/162/6
f 101/154/6 103/159/6 105/162/6
f 103/159/6 104/163/6 105/162/6
f 105/162/6 104/163/6 106/164/6
f 106/164/6 104/163/6 107/165/6
f 107/165/6 104/163/6 108/166/6
f 105/167/6 106/168/6 109/169/6
f 106/164/6 107/165/6 110/170/6
f 109/169/6 106/168/6 110/171/6
f 107/172/6 108/173/6 111/174/6
f 110/170/6 107/165/6 111/175/6
f 111/174/6 108/173/6 112/176/6
